<svg width="25" height="24" viewBox="0 0 25 24" fill="none" xmlns="http://www.w3.org/2000/svg">
<g clip-path="url(#clip0_6041_2716)">
<path d="M24.5002 12.2772C24.3673 12.7631 24.0335 13.1053 23.6871 13.4471C22.7031 14.4179 21.7294 15.3991 20.753 16.3774C20.5272 16.6037 20.276 16.7835 19.9493 16.8201C19.4239 16.8793 18.9766 16.5713 18.7911 16.0315C18.5221 15.2498 17.7339 14.7855 16.8804 14.9057C16.0997 15.0155 15.4509 15.7146 15.4035 16.4967C15.3519 17.3431 15.7833 18.0102 16.5668 18.2952C17.3292 18.5726 17.5696 19.3759 17.0809 20.0232C17.0105 20.1162 16.9274 20.2002 16.8448 20.2828C15.7904 21.3382 14.736 22.3931 13.6802 23.447C12.9464 24.1798 12.0591 24.1812 11.3286 23.4498C10.3409 22.4607 9.35506 21.4701 8.34807 20.4598C7.66595 21.5663 6.70591 22.1752 5.40599 22.1419C4.47647 22.118 3.70374 21.7255 3.09627 21.0204C1.94047 19.6787 2.03718 17.3389 4.01969 16.1559C3.96101 16.093 3.90702 16.0305 3.84881 15.9723C2.91036 15.0329 1.97098 14.0954 1.03301 13.1556C0.323192 12.4439 0.322253 11.5486 1.03066 10.8388C2.10102 9.76656 3.17373 8.69667 4.24315 7.6235C4.46896 7.39675 4.71871 7.21507 5.04357 7.17329C5.57406 7.10475 6.02849 7.41881 6.2158 7.97277C6.47072 8.72672 7.24391 9.18725 8.09034 9.08914C8.86964 8.999 9.53767 8.30749 9.59823 7.5282C9.66537 6.66628 9.23628 5.99495 8.42412 5.69075C7.68238 5.41283 7.44343 4.63729 7.90631 3.99554C7.9833 3.8885 8.0772 3.79273 8.17062 3.69884C9.14145 2.72613 10.1189 1.75905 11.0841 0.780705C11.4155 0.445044 11.7498 0.126753 12.2206 0H12.783C13.2619 0.1291 13.6003 0.455372 13.9365 0.796667C14.7801 1.65342 15.635 2.49938 16.4861 3.34863C16.5434 3.4059 16.6049 3.45895 16.6659 3.51576C17.4513 2.27827 18.5423 1.67126 19.9826 1.89379C21.276 2.09377 22.1698 2.86744 22.5172 4.13121C22.9552 5.72455 22.344 6.94701 20.9849 7.83945C21.044 7.90094 21.0961 7.95775 21.1501 8.01221C22.0003 8.86286 22.8458 9.71774 23.703 10.5609C24.0448 10.897 24.3697 11.236 24.4992 11.7143V12.2767L24.5002 12.2772ZM5.02292 8.83281C4.00044 9.85529 2.99674 10.8613 1.99023 11.8641C1.8555 11.9979 1.94282 12.0796 2.03624 12.173C2.84323 12.9786 3.64976 13.7846 4.45534 14.5916C4.76425 14.901 5.08488 15.2005 5.37548 15.5263C5.96464 16.1864 5.72804 17.0535 4.89382 17.3417C4.80556 17.3722 4.71495 17.4009 4.63421 17.4464C3.9765 17.8163 3.62675 18.6285 3.79951 19.3749C3.97885 20.1505 4.65392 20.7035 5.46749 20.742C6.21158 20.7772 6.90731 20.2993 7.16176 19.5838C7.31151 19.1623 7.59319 18.8768 8.04668 18.8092C8.46966 18.7463 8.80204 18.9393 9.09122 19.2284C10.1625 20.2997 11.2376 21.3678 12.3037 22.4442C12.4549 22.5968 12.5478 22.5991 12.6999 22.4452C13.6388 21.4955 14.5867 20.5542 15.5307 19.6101C15.5739 19.5669 15.6124 19.5195 15.6547 19.4721C13.6581 18.3046 13.5698 15.87 14.7932 14.5381C15.404 13.8729 16.1565 13.5053 17.0631 13.4865C18.3597 13.4602 19.3042 14.0705 19.9779 15.1573C20.0338 15.1043 20.0741 15.0677 20.1122 15.0296C21.0567 14.0856 21.9975 13.1377 22.9491 12.2002C23.1143 12.0373 23.0974 11.9397 22.9416 11.7852C21.9529 10.8078 20.9722 9.82243 19.9896 8.83892C19.8629 8.71169 19.7314 8.58823 19.6145 8.45209C19.047 7.79203 19.2822 6.9348 20.1051 6.65078C20.1859 6.62309 20.2694 6.59773 20.3445 6.55783C21.0032 6.21043 21.3675 5.40203 21.2116 4.64339C21.053 3.8716 20.3849 3.30732 19.5648 3.25192C18.8151 3.20122 18.0963 3.68241 17.8442 4.4035C17.5649 5.20204 16.726 5.44053 16.072 4.90582C15.9814 4.83211 15.8993 4.74761 15.8166 4.66498C14.7834 3.63265 13.7473 2.60313 12.7211 1.56423C12.5577 1.39898 12.4596 1.38724 12.2896 1.56C11.3639 2.50079 10.4264 3.42985 9.49308 4.36312C9.44378 4.41242 9.39825 4.46453 9.34661 4.51992C10.6526 5.35649 11.2587 6.52356 10.9254 8.05164C10.6456 9.33232 9.80292 10.1633 8.52036 10.428C7.01059 10.7397 5.8562 10.1341 5.02339 8.83141L5.02292 8.83281Z" fill="#434343"/>
</g>
<defs>
<clipPath id="clip0_6041_2716">
<rect width="24" height="23.9972" fill="white" transform="translate(0.5)"/>
</clipPath>
</defs>
</svg>
