<svg width="32" height="36" viewBox="0 0 32 36" fill="none" xmlns="http://www.w3.org/2000/svg">
<path d="M10.9438 36C10.3197 35.8549 9.67871 35.7605 9.07507 35.5555C7.41557 34.9927 6.12516 33.9087 5.04536 32.557C3.57816 30.7207 2.62725 28.6133 1.89612 26.4022C1.01917 23.7517 0.397919 21.0363 0.115466 18.2583C-0.118385 15.9536 0.526115 13.8482 1.8778 11.9774C3.32106 9.97912 5.28062 8.76126 7.70577 8.32384C8.70246 8.14423 9.71041 8.15057 10.7127 8.32807C10.8254 8.34779 10.9388 8.36259 11.0367 8.37738C10.8282 7.74203 10.5726 7.13627 10.4338 6.50445C9.99216 4.49629 10.2887 2.54589 11.0241 0.653946C11.2558 0.058048 11.9193 -0.170873 12.492 0.136233C14.9509 1.45693 16.8873 3.23476 17.5804 6.07338C17.5853 6.09381 17.6078 6.11001 17.6536 6.16847C17.8445 5.96631 18.0269 5.76346 18.2192 5.56975C19.4448 4.33429 20.85 3.35803 22.4497 2.66845C22.961 2.44798 23.4696 2.57406 23.776 2.97344C24.0697 3.35732 24.0817 3.90462 23.7675 4.27441C23.6365 4.42867 23.4513 4.55546 23.266 4.64139C21.6805 5.37535 20.2858 6.36569 19.1807 7.72513C18.7306 8.27876 18.3657 8.90284 18.0304 9.5255C18.6447 9.2515 19.2455 8.94158 19.8759 8.71054C23.378 7.42577 27.5366 8.64011 29.8378 11.5794C31.2797 13.4214 32.0291 15.5014 31.9228 17.835C31.872 18.9507 31.6628 20.0657 31.4522 21.1674C30.9352 23.8728 30.2421 26.5304 29.0799 29.0422C28.1572 31.0377 27.0133 32.8754 25.2594 34.2644C24.0662 35.209 22.7223 35.7943 21.1994 35.9472C21.1311 35.9542 21.0649 35.9817 20.9973 36H19.6618C19.6308 35.9845 19.6005 35.9577 19.5688 35.9549C18.3242 35.845 17.1718 35.4795 16.1385 34.7575C16.0695 34.7096 15.9061 34.749 15.8096 34.7955C15.308 35.0406 14.8347 35.3597 14.3128 35.5415C13.7028 35.7542 13.0527 35.8521 12.4201 36H10.9438ZM20.6859 33.8481C22.1996 33.8587 23.6577 33.0325 24.8706 31.7076C26.2547 30.1946 27.1161 28.3808 27.817 26.4811C28.7158 24.0447 29.2314 21.5139 29.6631 18.962C30.0421 16.7242 29.568 14.709 28.1621 12.922C26.4413 10.7349 23.4661 9.82838 20.8036 10.6497C19.8569 10.942 19.0694 11.5062 18.2467 12.0204C17.4493 12.5184 16.5682 12.7015 15.6271 12.6283C14.6558 12.5522 13.8423 12.1232 13.0689 11.5703C12.0341 10.8314 10.8712 10.4201 9.60405 10.3553C5.9371 10.1679 2.73714 12.8875 2.27929 16.5326C2.13631 17.6694 2.30747 18.7711 2.5061 19.8805C2.9724 22.488 3.56548 25.0604 4.59808 27.5116C5.33063 29.25 6.2287 30.8834 7.62265 32.1964C9.86537 34.3088 12.9259 34.406 15.2665 32.4373C15.7462 32.0337 16.2773 32.0379 16.7591 32.45C16.9901 32.6479 17.2056 32.867 17.4536 33.0409C18.3214 33.6502 19.3124 33.8341 20.6866 33.8496L20.6859 33.8481ZM12.6469 2.74452C11.7334 5.28167 13.1182 8.87044 15.3665 9.83754C16.0723 7.11867 15.4391 4.63294 12.6469 2.74452Z" fill="white"/>
</svg>
