<svg width="32" height="32" viewBox="0 0 32 32" fill="none" xmlns="http://www.w3.org/2000/svg">
<path d="M25.055 14.6738L10.1617 14.6738L16.6684 8.1671C17.1884 7.6471 17.1884 6.79377 16.6684 6.27377C16.4193 6.0241 16.0811 5.88379 15.7284 5.88379C15.3757 5.88379 15.0375 6.0241 14.7884 6.27377L6.00169 15.0604C5.48169 15.5804 5.48169 16.4204 6.00169 16.9404L14.7884 25.7271C15.3084 26.2471 16.1484 26.2471 16.6684 25.7271C17.1884 25.2071 17.1884 24.3671 16.6684 23.8471L10.1617 17.3404H25.055C25.7884 17.3404 26.3884 16.7404 26.3884 16.0071C26.3884 15.2738 25.7884 14.6738 25.055 14.6738Z" fill="#A55199"/>
</svg>
