<svg width="40" height="38" viewBox="0 0 40 38" fill="none" xmlns="http://www.w3.org/2000/svg">
<path d="M0.214844 22.393C0.278396 22.1503 0.337355 21.906 0.407799 21.6648C0.652822 20.8256 1.12985 20.1334 1.74547 19.5193C5.04562 16.2276 8.33887 12.9305 11.6352 9.63496C12.9744 8.29575 13.4062 8.06911 15.2301 7.7567C15.2615 7.43358 15.2646 7.10204 15.3281 6.78274C15.7983 4.44584 18.3511 3.27968 20.4407 4.42593C20.5915 4.50862 20.8281 4.5293 20.9928 4.47723C22.6183 3.96574 24.2041 4.0515 25.7569 4.74599C26.8947 5.25518 27.675 4.9711 28.1199 3.79959C28.5586 2.64415 29.1957 1.66713 30.2761 1.02624C32.5448 -0.319089 35.4468 0.690864 36.5846 3.21766C37.5264 5.30954 36.7554 7.59591 34.7186 8.71612C34.3074 8.942 33.8656 9.11275 33.4483 9.33021C32.4744 9.8371 32.1972 10.6365 32.6459 11.625C33.3564 13.1908 33.4284 14.7889 32.9246 16.4267C32.8787 16.5752 32.8794 16.7843 32.9499 16.9167C34.26 19.3692 32.6627 22.1066 29.8833 22.1579C29.8097 22.1594 29.7355 22.1648 29.6382 22.1702C29.5601 23.1571 29.2699 24.053 28.6574 24.8225C28.4912 25.0316 28.3113 25.2306 28.1229 25.419C24.7026 28.8424 21.283 32.2659 17.858 35.6839C16.2814 37.2567 14.237 37.6387 12.335 36.6786C11.8557 36.4366 11.4063 36.0905 11.0234 35.7115C7.92081 32.6372 4.84041 29.5408 1.747 26.4565C0.966757 25.6786 0.427707 24.7835 0.272271 23.6786C0.26538 23.6303 0.234752 23.5859 0.214844 23.5392C0.214844 23.1571 0.214844 22.7751 0.214844 22.393ZM15.4514 18.2031C12.5226 18.2031 9.59309 18.1985 6.6643 18.2138C6.46369 18.2146 6.2156 18.3134 6.07242 18.4527C5.12066 19.3731 4.18498 20.3111 3.25619 21.2552C2.24164 22.2858 2.24394 23.7016 3.26767 24.7276C6.39784 27.8654 9.53183 30.9994 12.6697 34.1296C13.7102 35.1679 15.1314 35.1701 16.1704 34.1334C19.6413 30.6702 23.1084 27.2031 26.5716 23.7322C27.6107 22.6908 27.6091 21.2758 26.5816 20.2299C25.9928 19.6304 25.3871 19.0469 24.8044 18.4412C24.6291 18.259 24.4468 18.1993 24.2018 18.1993C21.2853 18.2062 18.3687 18.2039 15.4522 18.2039L15.4514 18.2031ZM30.9238 14.6595C31.0004 13.9451 30.9246 13.318 30.5701 12.6112C29.5877 10.6541 30.3189 8.29729 32.4254 7.29422C32.9292 7.05456 33.4177 6.77661 33.894 6.48565C34.3006 6.23756 34.5594 5.86084 34.6574 5.38688C34.8572 4.41827 34.2355 3.33941 33.2255 2.8999C32.2898 2.49255 31.3565 2.75748 30.763 3.65947C30.4866 4.0806 30.2952 4.55992 30.0869 5.02241C29.2079 6.97493 27.031 7.81337 25.0686 6.95196C24.7784 6.82409 24.4882 6.67478 24.1819 6.60816C23.7133 6.50632 23.2309 6.46804 22.7539 6.40295L22.7638 6.49484C25.4782 9.21076 28.1934 11.9267 30.9231 14.6579L30.9238 14.6595ZM8.60763 15.8861H22.2156C22.1038 15.7636 22.0326 15.6801 21.9545 15.602C20.3986 14.0446 18.8427 12.4872 17.2837 10.932C16.1819 9.83251 14.6903 9.82715 13.587 10.9198C12.9177 11.5821 12.2562 12.2529 11.5893 12.9175C10.6176 13.8861 9.64439 14.8532 8.6061 15.8861H8.60763ZM31.1168 18.5071C31.1222 18.3057 30.943 17.9987 30.6696 17.7261C26.9943 14.0538 23.3212 10.38 19.6474 6.70694C19.5931 6.65334 19.541 6.59591 19.4805 6.54997C19.0808 6.24752 18.6482 6.17478 18.1934 6.40755C17.7401 6.63955 17.5349 7.0247 17.5571 7.53236C17.5755 7.9466 17.819 8.23297 18.0946 8.50862C21.7064 12.1173 25.3166 15.7291 28.9277 19.3386C29.0441 19.455 29.1635 19.5745 29.2998 19.6648C29.6819 19.9167 30.0869 19.9389 30.4935 19.7253C30.9016 19.5109 31.1038 19.164 31.116 18.5078L31.1168 18.5071Z" fill="#A55199"/>
<path d="M35.171 33.2889C32.1503 33.2583 30.2223 30.2276 31.3073 27.661C32.0623 25.8762 33.1304 24.2858 34.2881 22.7514C34.7185 22.1809 35.5607 22.1373 35.9888 22.6917C37.2338 24.305 38.4275 25.9665 39.1013 27.9114C40.014 30.5446 37.9803 33.2889 35.1702 33.2889H35.171ZM35.282 25.4489C35.2315 25.4535 35.1809 25.4589 35.1304 25.4635C34.7805 26.0355 34.4114 26.5975 34.0852 27.184C33.8272 27.648 33.6128 28.1381 33.3969 28.6243C33.3318 28.7705 33.3035 28.9428 33.2966 29.1044C33.2675 29.8348 33.7116 30.5201 34.3976 30.8287C35.0868 31.1388 35.8969 31.0033 36.4528 30.4864C37.0041 29.9734 37.22 29.2384 36.893 28.5462C36.3961 27.4941 35.8226 26.4796 35.2812 25.4482L35.282 25.4489Z" fill="#A55199"/>
</svg>
