<svg width="19" height="18" viewBox="0 0 19 18" fill="none" xmlns="http://www.w3.org/2000/svg">
<mask id="mask0_5856_16030" style="mask-type:alpha" maskUnits="userSpaceOnUse" x="0" y="0" width="19" height="18">
<rect x="0.290039" width="18" height="18" fill="#D9D9D9"/>
</mask>
<g mask="url(#mask0_5856_16030)">
<path d="M4.04004 16.5C3.62754 16.5 3.27441 16.3531 2.98066 16.0594C2.68691 15.7656 2.54004 15.4125 2.54004 15V4.5C2.54004 4.0875 2.68691 3.73438 2.98066 3.44063C3.27441 3.14688 3.62754 3 4.04004 3H4.79004V1.5H6.29004V3H12.29V1.5H13.79V3H14.54C14.9525 3 15.3057 3.14688 15.5994 3.44063C15.8932 3.73438 16.04 4.0875 16.04 4.5V15C16.04 15.4125 15.8932 15.7656 15.5994 16.0594C15.3057 16.3531 14.9525 16.5 14.54 16.5H4.04004ZM4.04004 15H14.54V7.5H4.04004V15ZM4.04004 6H14.54V4.5H4.04004V6Z" fill="#A55199"/>
</g>
</svg>
