<svg width="12" height="12" viewBox="0 0 12 12" fill="none" xmlns="http://www.w3.org/2000/svg">
<path d="M5.18366 8.68463L9.29616 4.57213L8.47949 3.75547L5.18366 7.0513L3.52116 5.3888L2.70449 6.20547L5.18366 8.68463ZM6.00033 11.8346C5.19338 11.8346 4.43505 11.6815 3.72533 11.3753C3.0156 11.069 2.39824 10.6534 1.87324 10.1284C1.34824 9.60338 0.932617 8.98602 0.626367 8.2763C0.320117 7.56658 0.166992 6.80825 0.166992 6.0013C0.166992 5.19436 0.320117 4.43602 0.626367 3.7263C0.932617 3.01658 1.34824 2.39922 1.87324 1.87422C2.39824 1.34922 3.0156 0.933594 3.72533 0.627344C4.43505 0.321094 5.19338 0.167969 6.00033 0.167969C6.80727 0.167969 7.5656 0.321094 8.27533 0.627344C8.98505 0.933594 9.60241 1.34922 10.1274 1.87422C10.6524 2.39922 11.068 3.01658 11.3743 3.7263C11.6805 4.43602 11.8337 5.19436 11.8337 6.0013C11.8337 6.80825 11.6805 7.56658 11.3743 8.2763C11.068 8.98602 10.6524 9.60338 10.1274 10.1284C9.60241 10.6534 8.98505 11.069 8.27533 11.3753C7.5656 11.6815 6.80727 11.8346 6.00033 11.8346ZM6.00033 10.668C7.3031 10.668 8.40658 10.2159 9.31074 9.31172C10.2149 8.40755 10.667 7.30408 10.667 6.0013C10.667 4.69852 10.2149 3.59505 9.31074 2.69089C8.40658 1.78672 7.3031 1.33464 6.00033 1.33464C4.69755 1.33464 3.59408 1.78672 2.68991 2.69089C1.78574 3.59505 1.33366 4.69852 1.33366 6.0013C1.33366 7.30408 1.78574 8.40755 2.68991 9.31172C3.59408 10.2159 4.69755 10.668 6.00033 10.668Z" fill="white"/>
</svg>
