<svg width="25" height="24" viewBox="0 0 25 24" fill="none" xmlns="http://www.w3.org/2000/svg">
<g clip-path="url(#clip0_6041_1304)">
<path d="M15.4709 8.97078C15.4709 7.76983 14.7475 6.6854 13.6366 6.22556C12.5268 5.76695 11.2498 6.02033 10.3998 6.87039C9.54973 7.71917 9.29638 8.99741 9.75622 10.1072C10.2148 11.2182 11.2992 11.9415 12.5002 11.9415C14.1395 11.9377 15.4671 10.6101 15.4709 8.97078ZM10.8268 8.97078C10.8268 8.2943 11.2347 7.68366 11.8593 7.42525C12.4851 7.16555 13.2046 7.3087 13.6835 7.78757C14.1624 8.26644 14.3055 8.98599 14.0458 9.61055C13.7874 10.2364 13.1768 10.6443 12.5003 10.6443C11.578 10.6405 10.8306 9.89305 10.8268 8.97078Z" fill="#434343"/>
<path d="M19.3362 14.0433C20.541 14.0535 21.6317 13.3364 22.0992 12.2267C22.5679 11.1182 22.3196 9.83615 21.4721 8.98098C20.6246 8.12587 19.3451 7.86743 18.2315 8.32477C17.1193 8.78338 16.3921 9.86904 16.3921 11.0726C16.3921 12.703 17.7058 14.0294 19.3362 14.0433ZM19.3362 9.39921C20.0165 9.38907 20.6335 9.78939 20.9008 10.4139C21.1681 11.0385 21.0313 11.7618 20.5549 12.2458C20.0786 12.7297 19.3565 12.8779 18.7282 12.6207C18.0998 12.3636 17.6894 11.7517 17.6894 11.0727C17.6932 10.1593 18.4241 9.41695 19.3362 9.39921Z" fill="#434343"/>
<path d="M8.60837 11.0729C8.60837 9.87069 7.88499 8.78752 6.774 8.32769C5.66425 7.86781 4.38728 8.12246 3.53723 8.97251C2.68718 9.82129 2.43383 11.0995 2.89367 12.2093C3.35354 13.319 4.43667 14.0436 5.63762 14.0436C7.27818 14.0436 8.60837 12.7135 8.60837 11.0729ZM3.96425 11.0729C3.96425 10.3964 4.37216 9.78578 4.99799 9.52611C5.62254 9.26767 6.34209 9.41082 6.82097 9.88969C7.29984 10.3686 7.44299 11.0881 7.18328 11.7127C6.92485 12.3385 6.31423 12.7464 5.63775 12.7464C4.72563 12.7287 3.9934 11.985 3.99087 11.0729H3.96425Z" fill="#434343"/>
<path d="M19.2396 15.0672C18.4656 15.0824 17.7055 15.2775 17.0214 15.6372C16.782 15.1964 16.4779 14.7948 16.1194 14.4439C14.9768 13.3126 13.3679 12.7843 11.7766 13.02C10.1855 13.2543 8.79826 14.2247 8.03049 15.6372C7.26911 15.2471 6.42162 15.0507 5.56648 15.0672C4.19575 15.1178 2.89978 15.7006 1.95334 16.6938C1.00701 17.6857 0.486359 19.0083 0.500272 20.3789V22.8632C0.500272 23.2217 0.790377 23.5118 1.14889 23.5118C1.50741 23.5118 1.79751 23.2217 1.79751 22.8632V20.3789C1.76711 18.2342 3.44948 16.4554 5.59161 16.3643C6.27192 16.3478 6.94334 16.5138 7.53747 16.8444C7.40952 17.3106 7.34492 17.7933 7.34365 18.2772V21.7675C7.34365 22.7303 8.124 23.5119 9.08808 23.5119C10.0522 23.5119 10.8325 22.7302 10.8325 21.7675V20.2295C10.8274 18.8398 10.2586 17.5096 9.25656 16.5457L9.0754 16.3772C9.6252 15.275 10.6729 14.5073 11.8891 14.3135C13.1052 14.1209 14.3404 14.5263 15.2045 15.4043C15.5085 15.6969 15.7606 16.0389 15.9506 16.4165C14.8168 17.435 14.1707 18.8881 14.1733 20.412V21.8004V21.7991C14.1733 22.7632 14.9549 23.5448 15.9177 23.5448C16.8818 23.5448 17.6634 22.7632 17.6634 21.7991V18.1279C17.6672 17.6909 17.6127 17.2538 17.5012 16.8307C18.0397 16.5254 18.6452 16.3582 19.2647 16.3442C20.3035 16.3278 21.3056 16.7281 22.0479 17.454C22.789 18.1786 23.2058 19.1731 23.202 20.2106V22.8634C23.202 23.2219 23.4921 23.512 23.8506 23.512C24.2091 23.512 24.4992 23.2219 24.4992 22.8634V20.2296C24.4992 18.8412 23.9431 17.511 22.9537 16.5354C21.9656 15.56 20.6278 15.0215 19.2394 15.0405L19.2396 15.0672ZM9.51032 20.2561V21.7928C9.51032 22.0398 9.31016 22.24 9.06186 22.24C8.81483 22.24 8.61467 22.0398 8.61467 21.7928V18.2773V17.7908C9.19616 18.4711 9.52047 19.3351 9.52932 20.2295L9.51032 20.2561ZM16.3919 21.7675C16.3919 22.0145 16.1917 22.2147 15.9447 22.2147C15.6976 22.2147 15.4962 22.0145 15.4962 21.7675V20.379C15.4949 19.4568 15.8066 18.5599 16.3792 17.8365V18.1279L16.3919 21.7675Z" fill="#434343"/>
</g>
<defs>
<clipPath id="clip0_6041_1304">
<rect width="24" height="24" fill="white" transform="translate(0.5)"/>
</clipPath>
</defs>
</svg>
