<svg width="56" height="56" viewBox="0 0 56 56" fill="none" xmlns="http://www.w3.org/2000/svg">
<path d="M55.9951 14.7629C55.7761 15.6925 55.613 16.6441 55.3259 17.5518C53.7294 22.57 49.1347 26.2228 43.8927 26.6877C43.4279 26.729 42.9655 26.7826 42.4155 26.841C42.6199 27.1598 42.7854 27.4129 42.9484 27.6684C44.708 30.4452 46.2217 33.3363 46.9712 36.5682C47.3071 38.0138 47.4628 39.474 47.1635 40.9512C46.5746 43.8496 44.4281 45.6164 41.4615 45.704C39.3662 45.7673 37.3876 45.2733 35.448 44.5529C35.2776 44.4897 35.1073 44.4264 34.9369 44.368C34.9053 44.3582 34.8688 44.368 34.8007 44.368C33.0144 48.8361 29.9894 52.197 25.621 54.2826C22.3989 55.8206 18.9894 56.3049 15.4606 55.8109C7.71681 54.7304 1.78119 48.8167 0.362385 41.5523C-0.477217 37.2496 0.13606 33.1441 2.26548 29.3038C4.39248 25.466 7.55863 22.7866 11.6033 21.1974C11.2577 20.0074 10.8732 18.8709 10.6007 17.71C10.204 16.0284 10.0847 14.3248 10.6299 12.6456C11.3819 10.3215 13.0562 9.0901 15.4241 8.75913C18.0208 8.39895 20.4666 9.0828 22.7834 10.1244C24.7498 11.0078 26.6066 12.1346 28.5097 13.1591C28.6971 13.2613 28.8699 13.3903 29.1327 13.5582C29.2009 12.9401 29.2739 12.4047 29.3201 11.8669C29.8093 6.24275 34.4819 1.18811 40.0768 0.231691C40.4662 0.165983 40.8531 0.0808058 41.24 0.00292969C42.1502 0.00292969 43.0628 0.00292969 43.973 0.00292969C44.0728 0.0370005 44.1726 0.0881076 44.2748 0.102709C49.7188 0.917975 53.3766 3.95027 55.2918 9.0755C55.6447 10.0173 55.7688 11.0419 56 12.0299V14.7629H55.9951ZM32.1626 27.7998C32.2794 27.7122 32.4133 27.6197 32.5398 27.52C34.5013 25.9624 36.6721 24.7724 39.1058 24.1883C40.8117 23.7795 42.5737 23.5897 44.3113 23.3098C49.9768 22.3996 53.7878 16.6879 52.4469 11.11C51.1425 5.68059 45.9783 2.40005 40.4807 3.50979C36.2341 4.36643 32.9365 8.08257 32.5763 12.4339C32.3573 15.089 31.7684 17.6516 30.4907 20.0001C29.7825 21.302 28.9162 22.5164 28.1301 23.7551C29.4199 25.0474 30.7681 26.4005 32.1626 27.7974V27.7998ZM28.2445 16.9751C26.1345 15.4735 23.9759 14.1618 21.6274 13.1956C19.8874 12.4801 18.1133 11.8815 16.1907 12.0032C14.4458 12.1127 13.5989 13.0155 13.5648 14.7726C13.5259 16.7682 14.1513 18.6056 14.9423 20.3943C16.8161 24.6434 19.5369 28.3206 22.7274 31.6547C26.4582 35.5534 30.6513 38.8436 35.6184 41.0558C37.4046 41.8516 39.2493 42.4697 41.2425 42.4235C42.7538 42.3894 43.6104 41.7421 43.8976 40.4085C44.1385 39.2793 43.9803 38.1598 43.698 37.0598C42.8341 33.6941 41.1062 30.7567 39.1569 27.9288C38.9646 27.6489 38.7869 27.7341 38.5582 27.8242C36.6916 28.564 35.0221 29.6105 33.5717 31.0001C32.4473 32.0757 31.6759 32.0709 30.5905 30.9855C28.6704 29.0653 26.7502 27.1476 24.8325 25.2275C23.7544 24.1494 23.7447 23.3658 24.8179 22.2877C26.3268 20.7715 27.4681 19.0193 28.2493 16.9775L28.2445 16.9751ZM28.6217 40.9755C26.9498 46.4317 22.1823 49.245 17.5925 49.0332C12.6546 48.8069 8.59778 45.5799 7.35177 41.0169C6.72389 38.7195 6.77986 36.4392 7.6219 34.21C8.94092 30.7178 11.4695 28.4813 15.0104 27.3593C14.346 26.2642 13.7157 25.2251 13.0878 24.1908C6.88938 26.3032 2.27278 32.8788 3.50176 40.5301C4.60907 47.4124 10.8976 52.747 18.0111 52.691C21.6396 52.6618 24.8593 51.4644 27.6044 49.0722C29.544 47.3808 30.9458 45.322 31.7927 42.8932C30.717 42.241 29.6925 41.6204 28.6217 40.9731V40.9755ZM10.2526 38.1793C10.2648 38.3739 10.2551 38.7439 10.3111 39.1016C10.8903 42.8737 13.9834 45.6408 17.7093 45.7284C21.5934 45.8184 24.7692 43.2753 25.5699 39.4447C25.6648 38.9945 25.5748 38.6903 25.1805 38.3788C22.3746 36.1545 19.8533 33.6332 17.6265 30.8297C17.2834 30.399 16.9549 30.3235 16.473 30.4233C12.8177 31.1826 10.2575 34.3001 10.2551 38.1817L10.2526 38.1793Z" fill="#A55199"/>
</svg>
