<svg width="66" height="52" viewBox="0 0 66 52" fill="none" xmlns="http://www.w3.org/2000/svg">
<path d="M0.526611 33.3306C0.877865 32.4778 1.23927 31.6312 1.57834 30.7723C2.34379 28.8313 3.10924 26.8902 3.84221 24.935C3.92545 24.7137 3.89703 24.336 3.75694 24.1655C1.4748 21.3778 2.5651 17.2034 5.78324 15.8978C5.95379 15.8288 6.11825 15.5425 6.13855 15.3415C6.40047 12.8421 6.6502 10.3427 6.87151 7.8393C6.96085 6.82208 7.11516 5.85359 7.62275 4.93384C8.32526 3.66079 8.93031 2.33496 9.58612 1.03553C10.1384 -0.0588406 10.7414 -0.251726 11.852 0.296474C12.5525 0.643667 13.2408 1.00913 13.9474 1.34415C14.5483 1.63043 14.8407 2.09741 14.8407 2.75119C14.8448 4.35721 14.859 5.96526 14.8285 7.57129C14.8204 7.96112 14.6945 8.3611 14.5544 8.73063C13.9758 10.2696 13.3707 11.7985 12.7779 13.3314C12.7027 13.5223 12.6378 13.7172 12.5992 13.973C14.0042 12.5193 15.7036 13.0249 17.3198 13.234C18.7796 13.4228 20.2212 13.768 21.6749 14.0157C21.8922 14.0522 22.1927 13.9954 22.3612 13.8614C26.0382 10.96 29.8614 11.0493 33.8145 13.2441C38.1209 15.6359 41.9786 18.649 45.7429 21.7961C46.6667 22.5696 47.5723 23.3635 48.492 24.1432C49.426 24.935 50.3031 24.7746 50.8716 23.6944C52.2381 21.0956 53.57 18.4744 55.4075 16.1679C56.0592 15.3496 56.8023 14.5639 57.6328 13.9365C59.6591 12.4076 62.193 12.7995 63.8498 14.7405C65.3867 16.5394 65.6405 18.6429 65.3888 20.8722C65.072 23.6985 64.2051 26.3887 63.263 29.0546C63.1087 29.4912 63.1797 29.8323 63.3036 30.2485C63.6406 31.3956 64.0102 32.5489 64.1665 33.7265C64.4731 36.0249 63.1858 37.5964 61.529 38.9445C61.3991 39.0501 61.257 39.1476 61.1128 39.2349C59.919 39.9597 58.7251 40.6825 57.5292 41.4013C57.0724 41.6754 56.9485 42.6378 57.3323 43.0012C59.0215 44.5991 59.456 47.0051 58.4348 49.1025C57.4744 51.074 55.1578 52.2881 53.0198 51.9409C50.7498 51.5714 48.9205 49.7705 48.6342 47.5391C48.4088 45.7788 48.9205 44.2337 50.2361 43.0073C50.5123 42.7495 50.5793 42.5424 50.4534 42.1931C50.1529 41.3607 49.8788 40.5181 49.6169 39.6735C49.5093 39.3263 49.3286 39.1983 48.957 39.1395C44.8313 38.4979 40.7076 37.8339 36.588 37.1578C36.0804 37.0746 35.8063 37.1436 35.5911 37.6796C34.9211 39.3506 34.0886 40.9485 32.8318 42.2642C30.4664 44.7392 27.6889 44.8184 25.2261 42.4144C24.2068 41.4196 23.3703 40.2399 22.4181 39.107C22.4099 39.1131 22.2922 39.1882 22.2028 39.2897C21.3298 40.2663 20.4486 41.2368 19.604 42.2398C19.472 42.3962 19.4172 42.7434 19.4923 42.9342C20.9927 46.664 19.0395 50.676 15.1737 51.7582C12.4388 52.5237 9.52115 51.3197 7.92122 48.7634C6.52433 46.532 6.80452 43.3484 8.55267 41.314C9.43182 40.2907 10.4978 39.5699 11.8073 39.243C12.1931 39.1476 12.3779 38.977 12.4246 38.5831C12.6723 36.4898 12.9342 34.3986 13.1941 32.2728C11.3363 31.6474 9.37497 31.1479 9.12726 28.6709C9.07853 28.6932 9.02777 28.7135 8.97904 28.7359C8.9161 29.2658 8.84301 29.7957 8.79225 30.3277C8.65012 31.82 8.53032 33.3143 8.3679 34.8046C8.32526 35.1945 8.21156 35.5965 8.04101 35.9477C7.29789 37.4867 6.52432 39.0116 5.75481 40.5384C5.21879 41.6003 4.59548 41.8114 3.54172 41.2957C2.87982 40.9709 2.20167 40.6683 1.57022 40.2907C1.18851 40.0633 0.877873 39.7161 0.534741 39.4217C0.534741 37.3913 0.534741 35.363 0.534741 33.3326L0.526611 33.3306ZM60.5585 36.2685C61.7889 35.0483 61.8803 32.4433 60.7352 30.9368C60.2763 30.3317 60.2052 29.7713 60.4631 29.0587C61.0154 27.5339 61.5392 25.9969 61.9859 24.4396C62.5097 22.6143 62.9523 20.7606 62.8061 18.8317C62.729 17.8125 62.4041 16.8907 61.6062 16.1983C60.7413 15.4491 59.921 15.3902 59.0439 16.1171C58.4794 16.5841 57.9028 17.1018 57.5191 17.713C56.0328 20.0885 54.5852 22.4904 53.1924 24.9249C51.7102 27.5156 49.026 28.0293 46.7581 26.1045C44.9227 24.5452 43.0547 23.0244 41.2254 21.459C40.8457 21.1342 40.4843 21.0996 40.0214 21.1545C37.4062 21.4692 34.7952 21.8752 32.1679 22.0235C27.9833 22.261 24.6312 20.5799 22.1054 17.2257C21.8902 16.9394 21.5084 16.6694 21.1633 16.6064C19.2162 16.2531 17.2528 15.979 15.3016 15.642C14.8285 15.5608 14.524 15.7049 14.2864 16.0765C14.1382 16.308 13.9798 16.5354 13.8702 16.7851C12.2743 20.4195 11.6673 24.2467 11.6876 28.1917C11.6896 28.7643 11.9535 29.1419 12.52 29.3084C13.9352 29.7226 15.3422 30.1612 16.7594 30.5632C17.4964 30.7723 18.2497 30.9266 19.0984 31.1297C18.9928 30.754 18.9218 30.5165 18.8568 30.2789C18.3918 28.5491 17.9127 26.8253 17.4721 25.0893C17.202 24.0254 17.9452 23.2457 19.0253 23.4143C19.1918 23.4407 19.3583 23.4711 19.5227 23.5056C21.7886 23.9909 24.0566 24.4782 26.3225 24.9655C29.8675 25.7268 33.4125 26.4821 36.9535 27.2496C37.9138 27.4567 38.3504 28.0902 38.1433 28.9957C37.8083 30.4535 37.4428 31.9032 37.0854 33.3549C36.988 33.7549 36.8804 34.1508 36.7545 34.632C41.5624 35.4097 46.2952 36.1751 51.0361 36.9406C50.6605 35.5559 50.295 34.2808 49.9722 32.9956C49.6697 31.7916 50.3498 31.0099 51.5681 31.2007C54.0877 31.5966 56.6034 32.0291 59.117 32.4616C59.7951 32.5773 60.1687 32.9874 60.2641 33.7062C60.3778 34.5407 60.455 35.3792 60.5545 36.2685H60.5585ZM20.5542 26.4111C20.5542 26.5938 20.5461 26.6365 20.5542 26.6771C21.6221 30.7459 22.9256 34.7315 25.1712 38.3212C25.7966 39.3202 26.6534 40.2216 27.561 40.981C28.631 41.8764 29.768 41.7241 30.7202 40.7089C31.2481 40.1465 31.7111 39.4988 32.0948 38.8268C33.4287 36.5061 34.2287 33.9762 34.9109 31.4038C35.0693 30.8068 35.1911 30.1998 35.3353 29.5744C30.3568 28.5085 25.4859 27.4648 20.5542 26.4091V26.4111ZM24.2271 15.6907C25.5083 17.4328 27.1265 18.5373 29.1162 19.1281C30.7141 19.6033 32.3384 19.4489 33.9526 19.3495C35.185 19.2743 36.4093 19.0855 37.7088 18.9393C36.5291 17.7313 32.0907 15.0796 30.3263 14.5578C28.1376 13.9101 26.1397 14.4055 24.2271 15.6907ZM13.5129 49.3238C15.6387 49.3238 17.3848 47.5939 17.399 45.4722C17.4132 43.3748 15.6549 41.5921 13.5474 41.5698C11.4114 41.5475 9.63891 43.318 9.64501 45.4702C9.6511 47.6081 11.3708 49.3218 13.5129 49.3238ZM17.7117 40.38C18.5746 39.4115 19.4253 38.3517 20.3877 37.4096C21.0597 36.7538 21.1064 36.2218 20.7613 35.3447C20.3552 34.3092 19.7705 33.824 18.7004 33.6737C17.7177 33.5356 16.7574 33.2291 15.7442 32.9854C15.4823 35.0848 15.2305 37.0888 14.991 39.0136C15.9107 39.4745 16.7696 39.9069 17.7096 40.38H17.7117ZM10.2643 18.718C9.578 18.5495 8.91407 18.3566 8.23796 18.2267C6.90401 17.9688 5.76903 18.6165 5.32844 19.8449C4.88176 21.0976 5.3122 22.4945 6.4756 23.0488C7.32836 23.4549 8.28466 23.6376 9.22675 23.93C9.58409 22.1372 9.91504 20.4743 10.2622 18.718H10.2643ZM8.80646 15.6522C8.87346 15.6664 8.94046 15.6785 9.00747 15.6928C9.09274 15.51 9.18614 15.3314 9.25923 15.1446C9.82367 13.6908 10.3028 12.1985 10.9627 10.7914C11.984 8.61895 12.4022 6.37743 12.2195 3.98972C12.1769 3.44761 12.0287 3.17757 11.4662 3.13087C10.9038 4.25366 10.3333 5.35615 9.80134 6.47691C9.65109 6.79162 9.57191 7.15709 9.53739 7.50631C9.28359 10.0463 9.04605 12.5883 8.80849 15.1283C8.79225 15.3009 8.80646 15.4755 8.80646 15.6501V15.6522ZM6.54869 25.9177C6.47966 25.9035 6.41266 25.8872 6.34362 25.873C6.26241 26.0578 6.17307 26.2385 6.09794 26.4273C5.52944 27.877 5.04419 29.3653 4.38026 30.7683C3.37117 32.8961 2.92245 35.095 3.14782 37.434C3.15392 37.4969 3.15595 37.5619 3.14782 37.6228C3.0727 38.1283 3.33664 38.3537 3.86657 38.4329C4.37822 37.4157 4.91018 36.3944 5.40153 35.3569C5.57817 34.9853 5.72639 34.5752 5.77106 34.1712C6.03094 31.7408 6.25835 29.3084 6.49387 26.876C6.52432 26.5573 6.53042 26.2385 6.54869 25.9177ZM53.0035 34.1021C52.9365 34.1488 52.8695 34.1935 52.8025 34.2402C53.4096 35.434 53.968 36.6563 54.6461 37.8096C54.8938 38.2319 55.3791 38.5791 55.8318 38.8004C56.6277 39.1902 57.245 38.9446 57.4582 38.104C57.6876 37.1984 57.7546 36.2502 57.8378 35.3163C57.85 35.1721 57.5901 34.8919 57.4196 34.8594C55.9516 34.5833 54.4776 34.3498 53.0035 34.1021ZM53.773 44.1931C52.3254 44.1971 51.2127 45.3179 51.2168 46.7655C51.2209 48.2091 52.3457 49.3279 53.7873 49.3238C55.2187 49.3218 56.3496 48.1827 56.3475 46.7493C56.3475 45.3158 55.2126 44.189 53.773 44.1931ZM52.5183 39.6207C52.4594 39.7141 52.4127 39.7547 52.4208 39.7811C52.4898 40.0227 52.565 40.2623 52.6441 40.4998C53.0259 41.6551 53.0279 41.6612 54.2441 41.5759C54.3984 41.5658 54.5426 41.4257 54.6969 41.3424C53.9091 40.7191 53.2147 40.1709 52.5183 39.6186V39.6207Z" fill="#A55199"/>
</svg>
