<svg width="50" height="56" viewBox="0 0 50 56" fill="none" xmlns="http://www.w3.org/2000/svg">
<path d="M25.4369 0C26.0237 0.481703 26.6382 0.929705 27.1913 1.44709C31.142 5.14808 35.0789 8.86295 39.0217 12.5699C39.4321 12.9544 39.7611 13.3688 39.7631 13.9694C39.7671 14.8872 39.0911 15.6147 38.1693 15.6326C37.2634 15.6504 36.3555 15.6365 35.4179 15.6365V24.6105C35.5943 24.6105 35.7866 24.6105 35.9769 24.6105C38.092 24.6105 40.2052 24.6105 42.3203 24.6105C43.4958 24.6105 44.1361 25.2567 44.1381 26.4362C44.1381 29.8815 44.1381 33.3248 44.1381 36.8255C44.3066 36.8374 44.4612 36.8572 44.6158 36.8592C45.6546 36.8612 46.6933 36.8533 47.732 36.8632C48.6954 36.8731 49.3833 37.555 49.3853 38.5204C49.3912 43.7874 49.3912 49.0544 49.3853 54.3234C49.3853 55.3166 48.6935 55.9945 47.6904 55.9945C43.0617 55.9985 38.431 55.9985 33.8023 55.9945C32.8012 55.9945 32.1431 55.3285 32.1114 54.3175C31.9885 50.4996 29.2548 47.5994 25.4647 47.2644C21.8985 46.9472 18.4175 49.776 17.9854 53.3422C17.9418 53.703 17.91 54.0657 17.8902 54.4285C17.8387 55.3027 17.1786 55.9906 16.3063 55.9926C11.6043 56.0025 6.90223 56.0025 2.19819 55.9926C1.30218 55.9926 0.616299 55.2829 0.616299 54.377C0.608369 49.0723 0.608369 43.7696 0.616299 38.4649C0.616299 37.5451 1.32597 36.8711 2.26757 36.8632C3.44705 36.8533 4.62653 36.8612 5.86151 36.8612C5.86151 36.6154 5.86151 36.4191 5.86151 36.2249C5.86151 32.962 5.86151 29.6991 5.86151 26.4362C5.86151 25.2567 6.50378 24.6125 7.6793 24.6105C9.77461 24.6085 11.8719 24.6105 13.9672 24.6105C14.1635 24.6105 14.3597 24.6105 14.5837 24.6105V15.6385C13.7809 15.6385 12.9681 15.6167 12.1593 15.6445C11.3287 15.6722 10.6924 15.4006 10.3534 14.6097C10.0541 13.9079 10.2444 13.2716 10.9422 12.6135C15.2002 8.60128 19.4582 4.58907 23.7242 0.586764C23.97 0.354833 24.2832 0.194267 24.5647 0C24.8561 0 25.1475 0 25.4389 0H25.4369ZM14.6947 52.7039C15.5709 47.6371 19.7873 44.2909 24.2336 43.9857C26.5173 43.8291 28.6483 44.3445 30.579 45.5933C33.1798 47.2743 34.7062 49.6848 35.2851 52.6841H46.0669V40.1697H3.92281V52.7039H14.6947ZM17.916 15.6623V24.5788H32.0717V15.6623H17.916ZM9.1482 36.8275H23.3198V27.9328H9.1482V36.8275ZM40.8137 36.8513V27.9269H26.6798V36.8513H40.8137ZM16.0744 12.3161H33.9311C30.9121 9.47548 27.9624 6.69825 25.0008 3.90913C22.0174 6.72006 19.0816 9.48539 16.0764 12.3161H16.0744Z" fill="#A55199"/>
</svg>
