<svg width="56" height="56" viewBox="0 0 56 56" fill="none" xmlns="http://www.w3.org/2000/svg">
<path d="M55.9767 19.571C55.803 20.4952 55.6722 21.4323 55.4492 22.3436C53.7037 29.452 47.8712 34.7741 40.6428 35.872C36.798 36.4553 33.1484 35.8377 29.6832 34.0858C29.5374 34.0129 29.3916 33.9379 29.2458 33.8671C29.2158 33.8521 29.1772 33.8542 29.1021 33.8414C27.7941 35.1515 26.4689 36.4767 25.1438 37.804C24.3075 38.6425 23.4798 39.4895 22.6263 40.3086C22.3797 40.5445 22.339 40.746 22.4377 41.0634C24.4211 47.5242 20.6107 54.1351 14.0105 55.7047C7.82209 57.1757 1.38918 52.99 0.224829 46.7372C-0.97598 40.2914 3.14536 34.296 9.58041 33.1659C11.3795 32.8507 13.1678 32.9815 14.9219 33.5219C15.1149 33.5819 15.4451 33.5412 15.578 33.4125C17.7459 31.2789 19.8924 29.1218 22.0431 26.971C22.0817 26.9324 22.1074 26.8831 22.0753 26.9281C21.5478 25.5086 20.9431 24.1792 20.555 22.7896C17.8038 12.9623 23.943 2.7104 33.9032 0.454591C34.7331 0.265892 35.5779 0.150101 36.4142 0C37.4349 0 38.4556 0 39.4763 0C39.8665 0.0686177 40.2568 0.143671 40.6492 0.203711C48.0042 1.3166 53.9267 6.83604 55.5457 14.1052C55.7237 14.9008 55.8394 15.7092 55.9831 16.509V19.571H55.9767ZM28.6647 6.6216C28.9563 7.28205 29.2565 7.8846 29.486 8.51288C29.5953 8.81523 29.7326 8.98248 30.0413 9.08755C32.6574 9.98387 34.4071 11.7529 35.3228 14.3625C35.3935 14.5619 35.6058 14.785 35.8031 14.8536C38.4363 15.7713 40.2032 17.5361 41.1209 20.1714C41.1896 20.3687 41.4104 20.5853 41.6099 20.6561C44.2431 21.576 46.0121 23.3429 46.9149 25.9804C46.9685 26.1348 47.0757 26.3277 47.2086 26.3899C47.9162 26.7116 48.641 26.9946 49.3701 27.297C53.8259 22.0777 54.0833 13.3954 48.3987 7.66159C42.7163 1.92987 33.9847 2.09927 28.6647 6.6216ZM26.321 9.20334C21.9659 14.5427 21.9144 23.2421 27.9035 28.828C33.6373 34.178 41.9101 33.717 46.8891 29.6836C46.0786 29.5442 45.3795 29.3662 44.6719 29.319C44.183 29.2869 44.0779 29.1067 44.0522 28.6629C43.9922 27.6014 43.7713 26.5786 43.1387 25.6802C42.0988 24.2027 40.6149 23.5916 38.878 23.5187C38.3913 23.4973 38.2819 23.3193 38.2562 22.8711C38.194 21.8097 37.9753 20.7847 37.3427 19.8884C36.3156 18.4324 34.8596 17.8106 33.1399 17.7248C32.6745 17.7012 32.4794 17.5919 32.458 17.0772C32.3979 15.7199 32.012 14.474 31.0277 13.4619C29.9985 12.4026 28.7119 11.9974 27.2902 11.9245C26.8721 11.903 26.6962 11.8022 26.6619 11.3369C26.6083 10.6207 26.4411 9.91525 26.321 9.20549V9.20334ZM23.9923 29.6964C23.9194 29.7672 23.7714 29.9002 23.632 30.0395C21.4556 32.216 19.2791 34.3925 17.1026 36.5668C16.7681 36.9013 16.4636 37.4245 16.0755 37.4995C15.696 37.5746 15.2285 37.1843 14.7975 37.0064C11.8019 35.7798 8.95857 36.0843 6.42186 38.0871C3.91946 40.062 2.90521 42.7359 3.41984 45.8838C4.02453 49.587 7.08873 52.321 10.7662 52.6555C13.8604 52.9385 17.3321 51.3582 18.9124 47.923C20.0232 45.5107 19.9245 43.094 18.7559 40.7139C18.3656 39.9183 18.3742 39.9162 19.0068 39.2815C21.3248 36.9635 23.6427 34.6455 25.9607 32.3275C26.098 32.1903 26.2309 32.0466 26.2695 32.0059C25.4933 31.2189 24.7578 30.4684 23.9966 29.6964H23.9923Z" fill="#A55199"/>
</svg>
