<svg width="48" height="48" viewBox="0 0 48 48" fill="none" xmlns="http://www.w3.org/2000/svg">
<path d="M21.2844 48.0013C20.5296 47.9099 19.7724 47.821 19.0176 47.7249C14.2894 47.1143 9.92173 45.5014 5.89781 42.9582C3.93632 41.7202 2.1407 40.2707 0.494114 38.6362C0.0422036 38.1891 -0.126062 37.6674 0.102297 37.0593C0.316233 36.492 0.748914 36.1915 1.34986 36.1555C1.81619 36.1266 2.18637 36.3309 2.51569 36.6555C3.9868 38.1073 5.58531 39.403 7.33286 40.5111C7.46266 40.5928 7.59487 40.6674 7.74391 40.7563C8.97224 35.1267 9.88807 29.4682 11.2702 23.764C10.8905 24.3457 10.5131 24.8192 10.2535 25.3505C10.0251 25.8192 9.91452 26.3505 9.78231 26.8601C8.79916 30.6628 5.31129 33.1988 1.40995 32.9392C0.47248 32.8767 -0.140484 32.1772 0.0277804 31.2638C0.33306 29.5932 0.631122 27.9177 1.04217 26.2735C2.00608 22.3962 5.47233 19.6679 9.46501 19.5958C11.1981 19.5646 12.9337 19.5934 14.6668 19.579C14.8879 19.579 15.1355 19.5237 15.3254 19.4155C16.9191 18.5045 18.6258 18.0502 20.4647 18.0742C21.6498 18.0911 22.8348 18.0766 24.0752 18.0766C24.0848 17.8867 24.0992 17.7233 24.0992 17.5598C24.0992 16.1536 24.0944 14.7474 24.1016 13.3412C24.1329 7.05291 28.5847 1.60353 34.7432 0.286256C36.2263 -0.031043 37.7214 -0.0214267 39.219 0.0170338C39.9449 0.0362641 40.481 0.694913 40.4858 1.50258C40.4954 3.12754 40.4978 4.75248 40.481 6.37503C40.4786 6.71156 40.5651 6.95435 40.8103 7.19473C41.8728 8.23076 42.9376 9.26438 43.952 10.3485C46.238 12.7931 45.1732 16.8267 41.9833 17.8338C40.2598 18.3771 38.7214 17.9877 37.3873 16.781C37.1806 16.5959 37.0219 16.3579 36.8393 16.144C36.7912 16.1704 36.7407 16.1993 36.6926 16.2257C38.0339 24.276 39.3752 32.3262 40.7286 40.4486C40.9064 40.3428 41.0579 40.2755 41.1829 40.1746C42.5771 39.0472 44.0338 37.9847 45.3366 36.7588C46.1996 35.9463 47.5048 35.9031 48 37.2155V37.9655C47.7476 38.2732 47.5361 38.6265 47.238 38.8838C46.0121 39.9414 44.8174 41.0496 43.5049 41.9918C39.1541 45.1216 34.3033 47.0278 28.9837 47.72C28.2313 47.8186 27.4765 47.9051 26.7218 47.9965H21.2844V48.0013ZM12.4385 43.1457C12.5539 42.6793 12.6596 42.2731 12.7582 41.8668C13.15 40.2635 13.5058 38.6554 14.3351 37.1915C17.9744 30.759 26.5823 29.4802 31.7793 34.6098C33.4187 36.23 34.3778 38.2035 34.8706 40.4318C35.0701 41.3332 35.3225 42.2226 35.5604 43.1601C36.3008 42.8212 36.9715 42.4846 37.6662 42.2106C38.0652 42.0543 38.1037 41.8332 38.0388 41.4582C37.445 37.9703 36.8681 34.4824 36.2864 30.9921C35.7407 27.7182 35.1927 24.4442 34.647 21.1703C34.1446 18.1584 33.6398 15.1464 33.1471 12.1321C33.0389 11.4662 33.474 10.8052 34.1206 10.6081C34.7239 10.4254 35.2191 10.6225 35.6494 11.0528C36.8633 12.2691 38.07 13.4926 39.2959 14.6945C40.2406 15.62 41.7694 15.3027 42.2213 14.096C42.5026 13.346 42.3151 12.6874 41.755 12.1273C40.63 10.9999 39.5195 9.85571 38.3681 8.75478C37.8392 8.24999 37.6181 7.68991 37.6397 6.96877C37.6734 5.76688 37.6493 4.56259 37.6493 3.3607C37.6493 3.19244 37.6493 3.02417 37.6493 2.75735C36.8489 2.86071 36.0989 2.89917 35.3778 3.06023C30.3106 4.1852 26.9357 8.39662 26.9141 13.5912C26.9068 15.4974 26.9141 17.4012 26.9141 19.3074C26.9141 20.3386 26.354 20.8963 25.3252 20.8987C23.6545 20.9011 21.9839 20.8939 20.3109 20.8987C16.9288 20.9131 14.1548 23.2087 13.4962 26.5163C12.8856 29.5883 12.263 32.6556 11.6476 35.7252C11.239 37.7564 10.8352 39.7876 10.4265 41.8188C10.376 42.0712 10.3857 42.2515 10.6813 42.3668C11.2606 42.5928 11.8231 42.862 12.4409 43.136L12.4385 43.1457ZM15.1187 44.0687C21.0729 45.5927 26.9429 45.5975 32.8947 44.0687C32.4668 42.4942 32.1783 40.951 31.6303 39.5063C30.4885 36.492 28.2169 34.7156 25.0271 34.3502C21.8132 33.9824 19.2051 35.2252 17.2725 37.8405C15.924 39.665 15.7509 41.8909 15.1187 44.0711V44.0687ZM8.57081 22.5044C8.3761 22.5549 8.179 22.5933 7.9891 22.6534C5.62859 23.4058 4.19113 25.0067 3.66229 27.4201C3.48201 28.2494 3.33778 29.0859 3.16471 29.9898C5.08052 29.4489 6.37856 28.3312 6.92182 26.5091C7.33767 25.1149 7.69343 23.7207 8.57081 22.5044Z" fill="#A55199"/>
</svg>
