<svg width="63" height="52" viewBox="0 0 63 52" fill="none" xmlns="http://www.w3.org/2000/svg">
<path d="M62.9998 3.20112V22.2743C62.9641 22.4322 62.9198 22.5887 62.8964 22.749C62.6858 24.1656 62.5553 25.5983 62.261 26.9976C59.3007 41.0406 46.4559 51.5438 32.1383 51.6831C26.1647 51.7411 20.5458 50.3873 15.4626 47.236C5.88594 41.297 0.629064 32.6617 0.131575 21.3669C-0.125789 15.5143 0.0687736 9.64187 0.097096 3.77812C0.0995588 3.32811 0.29289 2.7659 0.597047 2.4478C2.75078 0.190333 5.70615 -0.962444 8.88072 1.01885C9.22305 1.23215 9.43855 1.17913 9.74886 0.989263C11.9087 -0.333657 14.0834 -0.325026 16.2334 1.00529C16.5795 1.21982 16.8073 1.22845 17.1595 1.01392C19.3526 -0.316396 21.5679 -0.353383 23.7586 1.02132C24.0677 1.21489 24.2708 1.20379 24.5738 1.01639C26.746 -0.331191 28.9379 -0.338588 31.1113 1.00899C31.4426 1.21489 31.6593 1.19516 31.9795 0.997893C34.1344 -0.328725 36.3115 -0.33489 38.4628 0.997893C38.8236 1.22105 39.0502 1.1853 39.3851 0.9794C41.5229 -0.328725 43.6803 -0.325026 45.8168 0.981865C46.1702 1.19763 46.4165 1.23708 46.797 1.00529C48.9913 -0.328725 51.2091 -0.349685 53.3936 1.03242C53.7199 1.23831 53.9194 1.17543 54.2088 1.00283C57.3132 -0.858879 61.1416 0.102796 63.001 3.19865L62.9998 3.20112ZM3.97356 24.0251C10.5148 23.7279 16.0709 25.7475 20.4978 30.472C24.9444 35.2175 26.5945 40.9111 25.8039 47.3889C29.6521 48.194 33.4658 48.2001 37.2708 47.3827C36.4901 40.8704 38.1439 35.2002 42.5806 30.4695C47.0235 25.7327 52.6018 23.7242 59.1012 24.0201C59.1862 22.7613 59.2674 21.5654 59.3536 20.3054C59.031 20.3054 58.8106 20.3054 58.5914 20.3054C55.9697 20.3054 53.3481 20.2647 50.7276 20.3165C47.9299 20.3719 45.9313 19.2044 44.7368 16.614H36.0985C30.3232 16.614 24.5479 16.614 18.7726 16.614C18.4758 16.614 18.216 16.5696 18.035 16.958C16.9883 19.2142 15.1855 20.3041 12.7116 20.3041C9.96682 20.3041 7.22325 20.3041 4.47844 20.3041C4.25925 20.3041 4.04006 20.3041 3.71989 20.3041C3.80609 21.5679 3.8886 22.7638 3.9748 24.0238L3.97356 24.0251ZM59.3118 9.23008C59.3118 7.67907 59.3179 6.18724 59.3007 4.69664C59.2994 4.56842 59.1652 4.41061 59.0507 4.3206C58.068 3.5488 57.2245 3.49085 56.163 4.148C55.801 4.37239 55.4685 4.65349 55.1521 4.94199C54.2445 5.76805 53.3173 5.77421 52.4257 4.94939C52.1708 4.7139 51.9036 4.48828 51.6265 4.28115C50.666 3.56113 49.6723 3.50934 48.6675 4.18498C48.3116 4.42417 47.9668 4.68185 47.6405 4.96049C46.7009 5.75942 45.7971 5.75202 44.9055 4.9235C44.6962 4.7287 44.4844 4.53267 44.2529 4.36499C43.0486 3.48838 42.1595 3.48592 40.9478 4.36499C40.667 4.56842 40.4232 4.82117 40.1609 5.05049C39.3839 5.73229 38.4333 5.73229 37.6612 5.05049C37.4161 4.8335 37.1846 4.59678 36.9235 4.40198C35.686 3.47729 34.7612 3.47729 33.5212 4.40321C33.2601 4.59801 33.0311 4.8372 32.7848 5.05296C32.009 5.73353 31.0608 5.72736 30.2838 5.05049C29.9304 4.74226 29.577 4.42663 29.1903 4.16156C28.3271 3.56852 27.4306 3.53277 26.5563 4.13813C26.1549 4.41677 25.7805 4.73733 25.4099 5.05666C24.628 5.72859 23.6798 5.73106 22.9089 5.04556C22.6799 4.84213 22.4644 4.61897 22.2218 4.4328C21.0027 3.50071 20.1333 3.46496 18.8539 4.30458C18.53 4.51664 18.2382 4.77925 17.9402 5.0283C17.0868 5.74092 16.1571 5.7249 15.3431 4.97898C13.4702 3.26276 12.5011 3.26646 10.5998 4.99624C9.75748 5.76188 8.81422 5.74709 7.96332 4.98145C7.60006 4.65472 7.22202 4.328 6.80457 4.08142C5.80097 3.48839 4.84786 3.59811 3.9711 4.36006C3.87505 4.44266 3.77531 4.58691 3.77408 4.70404C3.76053 6.19464 3.76546 7.68523 3.76546 9.23131C4.04745 9.23131 4.26664 9.23131 4.48706 9.23131C7.33407 9.23131 10.1811 9.19556 13.0269 9.24364C15.2668 9.28186 16.928 10.3557 17.934 12.3617C18.1507 12.7932 18.365 12.935 18.8416 12.9338C27.2792 12.9177 35.7168 12.9214 44.1544 12.9214H44.7381C45.9387 10.3298 47.9336 9.1598 50.7338 9.21898C53.3333 9.27323 55.9352 9.23008 58.536 9.23008H59.313H59.3118ZM22.1639 46.3125C23.5148 35.7822 14.5772 27.0544 4.85525 27.7571C5.59902 34.5123 14.9183 44.5149 22.1639 46.3125ZM58.2811 27.7485C47.6159 27.1148 39.4184 36.8092 40.9626 46.3483C45.6665 44.6271 49.628 41.8617 52.8456 38.0359C55.3934 35.0067 57.211 31.5866 58.2811 27.7497V27.7485ZM59.2859 12.9239C56.1643 12.9239 53.1129 12.9116 50.0614 12.9301C49.0541 12.9362 48.1971 13.7426 48.1343 14.6561C48.0739 15.5266 48.7635 16.3687 49.7203 16.5696C49.9383 16.6153 50.1686 16.6116 50.3927 16.6116C53.1584 16.614 55.9229 16.614 58.6887 16.6116C58.8857 16.6116 59.0827 16.5943 59.2871 16.5844V12.9227L59.2859 12.9239ZM3.79255 16.614H4.35653C7.13828 16.614 9.9188 16.6153 12.7005 16.614C13.9861 16.614 14.8346 15.8619 14.8223 14.7474C14.8087 13.655 13.9726 12.9251 12.719 12.9239C9.93727 12.9214 7.15675 12.9239 4.375 12.9239H3.79255V16.6153V16.614Z" fill="white"/>
</svg>
