<svg width="21" height="21" viewBox="0 0 21 21" fill="none" xmlns="http://www.w3.org/2000/svg">
<path fill-rule="evenodd" clip-rule="evenodd" d="M15.9696 4.20542C15.7504 4.20542 15.5403 4.29247 15.3854 4.44741L6.2203 13.6125C5.89696 13.9358 5.66757 14.341 5.55666 14.7846L5.33669 15.6645L6.21659 15.4445C6.66021 15.3336 7.06535 15.1042 7.3887 14.7809L16.5538 5.6158C16.6305 5.53909 16.6913 5.44801 16.7329 5.34777C16.7744 5.24754 16.7957 5.1401 16.7957 5.03161C16.7957 4.92311 16.7744 4.81567 16.7329 4.71544C16.6913 4.6152 16.6305 4.52412 16.5538 4.44741C16.477 4.37069 16.386 4.30983 16.2857 4.26831C16.1855 4.22679 16.0781 4.20542 15.9696 4.20542ZM14.196 3.25806C14.6664 2.78769 15.3044 2.52344 15.9696 2.52344C16.2989 2.52344 16.6251 2.58831 16.9294 2.71436C17.2337 2.84041 17.5102 3.02516 17.7431 3.25806C17.976 3.49097 18.1608 3.76746 18.2868 4.07177C18.4129 4.37608 18.4777 4.70223 18.4777 5.03161C18.4777 5.36098 18.4129 5.68713 18.2868 5.99144C18.1608 6.29575 17.976 6.57224 17.7431 6.80515L8.57804 15.9702C8.03914 16.5091 7.3639 16.8914 6.62453 17.0763L4.38482 17.6362C4.09824 17.7078 3.79507 17.6239 3.58618 17.415C3.3773 17.2061 3.29332 16.9029 3.36497 16.6163L3.9249 14.3766C4.10974 13.6373 4.49205 12.962 5.03095 12.4231L14.196 3.25806Z" fill="#A55199"/>
<path fill-rule="evenodd" clip-rule="evenodd" d="M14.5191 9.00529L11.9961 6.48231L13.1854 5.29297L15.7084 7.81595L14.5191 9.00529Z" fill="#A55199"/>
<path fill-rule="evenodd" clip-rule="evenodd" d="M10.9082 16.8195C10.9082 16.355 11.2847 15.9785 11.7492 15.9785L17.6361 15.9785C18.1006 15.9785 18.4771 16.355 18.4771 16.8195C18.4771 17.284 18.1006 17.6605 17.6361 17.6605L11.7492 17.6605C11.2847 17.6605 10.9082 17.284 10.9082 16.8195Z" fill="#A55199"/>
</svg>
