<svg width="70" height="66" viewBox="0 0 70 66" fill="none" xmlns="http://www.w3.org/2000/svg">
<path d="M0.642578 39.0243C0.754148 38.5982 0.857654 38.1694 0.981322 37.746C1.41147 36.2727 2.24892 35.0575 3.32968 33.9795C9.12327 28.2007 14.9048 22.4124 20.6916 16.6269C23.0427 14.2759 23.8008 13.878 27.0028 13.3295C27.0579 12.7623 27.0632 12.1802 27.1748 11.6197C28.0002 7.51713 32.4818 5.46988 36.1502 7.48218C36.415 7.62736 36.8304 7.66365 37.1194 7.57224C39.9731 6.6743 42.757 6.82486 45.4831 8.04406C47.4806 8.93797 48.8504 8.43927 49.6314 6.38261C50.4016 4.35418 51.52 2.63895 53.4167 1.51384C57.3996 -0.847961 62.4942 0.925067 64.4917 5.361C66.1451 9.03341 64.7915 13.0473 61.2159 15.0139C60.494 15.4104 59.7184 15.7102 58.9858 16.0919C57.276 16.9818 56.7894 18.3852 57.5771 20.1206C58.8245 22.8695 58.9509 25.6749 58.0664 28.5502C57.9857 28.8109 57.9871 29.1779 58.1107 29.4105C60.4107 33.716 57.6066 38.5216 52.7271 38.6117C52.5981 38.6143 52.4677 38.6238 52.297 38.6332C52.1599 40.3659 51.6504 41.9386 50.575 43.2896C50.2833 43.6565 49.9674 44.006 49.6368 44.3367C43.6321 50.3467 37.6288 56.3567 31.6161 62.3573C28.8484 65.1184 25.2593 65.7891 21.9203 64.1035C21.0788 63.6787 20.2897 63.0711 19.6176 62.4057C14.1708 57.0087 8.76302 51.5726 3.33237 46.1581C1.9626 44.7924 1.01627 43.221 0.743395 41.2813C0.731297 41.1966 0.677528 41.1186 0.642578 41.0366C0.642578 40.3659 0.642578 39.6951 0.642578 39.0243ZM27.3912 31.6688C22.2496 31.6688 17.1066 31.6607 11.965 31.6876C11.6128 31.6889 11.1772 31.8623 10.9259 32.107C9.255 33.7227 7.61237 35.3694 5.98183 37.0268C4.20073 38.8361 4.20476 41.3216 6.00199 43.1229C11.4972 48.6315 16.9991 54.1334 22.5077 59.6286C24.3345 61.4513 26.8294 61.4554 28.6535 59.6353C34.7468 53.5554 40.8335 47.4687 46.9134 41.3754C48.7375 39.5472 48.7348 37.0631 46.9308 35.2269C45.8971 34.1744 44.8339 33.1501 43.8109 32.0868C43.5031 31.7669 43.1832 31.662 42.753 31.662C37.6329 31.6741 32.5127 31.6701 27.3926 31.6701L27.3912 31.6688ZM54.5539 25.4477C54.6883 24.1935 54.5553 23.0926 53.9329 21.8519C52.2083 18.4161 53.492 14.2786 57.1899 12.5176C58.0744 12.0969 58.9321 11.6089 59.7682 11.0981C60.4819 10.6626 60.9363 10.0013 61.1083 9.16918C61.4592 7.46874 60.3677 5.57473 58.5947 4.80315C56.952 4.08802 55.3134 4.55312 54.2716 6.13661C53.7864 6.87594 53.4503 7.71742 53.0847 8.52933C51.5415 11.9571 47.7199 13.429 44.2747 11.9168C43.7652 11.6923 43.2557 11.4302 42.7181 11.3132C41.8954 11.1344 41.0485 11.0672 40.2111 10.953L40.2286 11.1143C44.9938 15.8822 49.7604 20.6502 54.5526 25.445L54.5539 25.4477ZM15.3766 27.6011H39.2661C39.0698 27.3861 38.9448 27.2395 38.8077 27.1024C36.0763 24.3683 33.3448 21.6341 30.608 18.904C28.6736 16.9737 26.0551 16.9643 24.1181 18.8825C22.9432 20.0453 21.7818 21.2228 20.611 22.3896C18.9052 24.09 17.1967 25.7878 15.3739 27.6011H15.3766ZM54.8927 32.2024C54.9021 31.8489 54.5875 31.3099 54.1076 30.8313C47.6554 24.3844 41.2071 17.9348 34.7576 11.4866C34.6621 11.3925 34.5707 11.2917 34.4645 11.2111C33.7628 10.6801 33.0034 10.5524 32.2049 10.961C31.4091 11.3683 31.0489 12.0445 31.0878 12.9357C31.1201 13.6629 31.5476 14.1656 32.0315 14.6496C38.3722 20.9849 44.7102 27.3256 51.0495 33.6622C51.2539 33.8666 51.4636 34.0763 51.7028 34.2349C52.3736 34.6771 53.0847 34.7161 53.7985 34.3411C54.5149 33.9647 54.8698 33.3558 54.8913 32.2038L54.8927 32.2024Z" fill="#A55199"/>
<path d="M62.0104 58.153C56.7074 58.0993 53.3227 52.7788 55.2274 48.273C56.5528 45.1396 58.428 42.3477 60.4605 39.6539C61.2159 38.6524 62.6946 38.5758 63.446 39.549C65.6317 42.3813 67.7274 45.2982 68.9103 48.7126C70.5126 53.3353 66.9423 58.153 62.009 58.153H62.0104ZM62.2053 44.3896C62.1166 44.3976 62.0278 44.407 61.9391 44.4151C61.3248 45.4192 60.6769 46.4059 60.1043 47.4356C59.6513 48.2502 59.2749 49.1105 58.8958 49.964C58.7816 50.2208 58.7318 50.5232 58.7197 50.8069C58.6686 52.0893 59.4483 53.2923 60.6527 53.834C61.8625 54.3785 63.2847 54.1405 64.2606 53.2332C65.2284 52.3326 65.6075 51.0421 65.0335 49.8269C64.1611 47.98 63.1543 46.1989 62.2039 44.3882L62.2053 44.3896Z" fill="#A55199"/>
</svg>
