<svg width="73" height="69" viewBox="0 0 73 69" fill="none" xmlns="http://www.w3.org/2000/svg">
<path d="M0 41C0.118632 40.5469 0.228688 40.0909 0.360183 39.6407C0.817559 38.0742 1.70801 36.7821 2.85717 35.6358C9.01745 29.4913 15.1649 23.3367 21.318 17.185C23.8178 14.6851 24.624 14.2621 28.0286 13.6789C28.0872 13.0758 28.0929 12.4569 28.2115 11.8609C29.0891 7.49863 33.8544 5.32181 37.7549 7.46147C38.0365 7.61584 38.4782 7.65443 38.7854 7.55723C41.8199 6.60246 44.7799 6.76254 47.6785 8.05892C49.8025 9.0094 51.2589 8.47913 52.0894 6.2923C52.9084 4.13549 54.0975 2.31171 56.1143 1.11538C60.3493 -1.39589 65.7663 0.489352 67.8903 5.20604C69.6483 9.11088 68.209 13.3788 64.4071 15.4698C63.6395 15.8915 62.8148 16.2102 62.0359 16.6161C60.2178 17.5623 59.7004 19.0545 60.5379 20.8997C61.8643 23.8227 61.9987 26.8056 61.0582 29.8629C60.9725 30.1402 60.9739 30.5304 61.1054 30.7776C63.5509 35.3557 60.5694 40.4654 55.381 40.5612C55.2438 40.564 55.1052 40.574 54.9237 40.584C54.7779 42.4264 54.2362 44.0987 53.0927 45.5351C52.7826 45.9253 52.4467 46.297 52.0951 46.6486C45.7104 53.039 39.3272 59.4293 32.9339 65.8097C29.991 68.7455 26.1747 69.4587 22.6244 67.6664C21.7296 67.2147 20.8906 66.5687 20.176 65.8612C14.3845 60.1226 8.63439 54.3425 2.86003 48.5853C1.40357 47.1331 0.397345 45.4622 0.107197 43.3998C0.0943337 43.3097 0.0371618 43.2268 0 43.1396C0 42.4264 0 41.7132 0 41ZM28.4416 33.1788C22.9746 33.1788 17.5061 33.1703 12.039 33.1989C11.6645 33.2003 11.2014 33.3847 10.9341 33.6448C9.15752 35.3628 7.41091 37.1137 5.67718 38.876C3.78335 40.7999 3.78764 43.4426 5.69861 45.3579C11.5416 51.2152 17.3917 57.0653 23.249 62.9083C25.1914 64.8464 27.8442 64.8507 29.7837 62.9154C36.2627 56.4507 42.7346 49.9788 49.1993 43.4998C51.1389 41.556 51.136 38.9146 49.2179 36.9622C48.1188 35.8431 46.9882 34.7539 45.9005 33.6234C45.5732 33.2832 45.233 33.1717 44.7756 33.1717C39.3314 33.1846 33.8872 33.1803 28.443 33.1803L28.4416 33.1788ZM57.3235 26.5641C57.4664 25.2305 57.3249 24.0599 56.6631 22.7407C54.8293 19.0874 56.1943 14.688 60.1263 12.8156C61.0668 12.3683 61.9787 11.8494 62.8677 11.3063C63.6267 10.8432 64.1098 10.14 64.2927 9.25524C64.6658 7.44718 63.5052 5.4333 61.6199 4.61288C59.8733 3.85249 58.131 4.34703 57.0233 6.03074C56.5073 6.81686 56.15 7.7116 55.7612 8.5749C54.1204 12.2196 50.0569 13.7847 46.3936 12.1767C45.8519 11.938 45.3102 11.6593 44.7385 11.535C43.8638 11.3449 42.9633 11.2734 42.0728 11.1519L42.0914 11.3234C47.1583 16.3932 52.2266 21.4629 57.322 26.5612L57.3235 26.5641ZM15.6665 28.8538H41.068C40.8594 28.6251 40.7264 28.4693 40.5807 28.3235C37.6763 25.4163 34.772 22.5091 31.8619 19.6062C29.8052 17.5538 27.0209 17.5437 24.9613 19.5834C23.7121 20.8197 22.4772 22.0718 21.2322 23.3124C19.4185 25.1205 17.6018 26.9257 15.6637 28.8538H15.6665ZM57.6836 33.7463C57.6936 33.3704 57.3592 32.7972 56.8489 32.2884C49.9883 25.4335 43.132 18.5757 36.2742 11.7194C36.1727 11.6193 36.0755 11.5121 35.9626 11.4263C35.2165 10.8618 34.4089 10.726 33.5599 11.1605C32.7138 11.5936 32.3307 12.3125 32.3722 13.2601C32.4065 14.0334 32.861 14.5679 33.3756 15.0825C40.1176 21.8188 46.8567 28.5608 53.5973 35.2985C53.8145 35.5158 54.0375 35.7387 54.2919 35.9074C55.0051 36.3776 55.7612 36.4191 56.5202 36.0203C57.282 35.6201 57.6593 34.9726 57.6822 33.7477L57.6836 33.7463Z" fill="white"/>
<path d="M65.25 61.339C59.6114 61.2818 56.0124 55.6247 58.0377 50.8336C59.447 47.502 61.4409 44.5333 63.602 41.669C64.4053 40.6042 65.9775 40.5227 66.7765 41.5575C69.1005 44.569 71.3288 47.6706 72.5866 51.301C74.2903 56.2164 70.4941 61.339 65.2485 61.339H65.25ZM65.4572 46.7044C65.3629 46.713 65.2685 46.723 65.1742 46.7316C64.521 47.7993 63.8321 48.8484 63.2232 49.9432C62.7415 50.8094 62.3413 51.7241 61.9383 52.6317C61.8168 52.9047 61.7639 53.2263 61.751 53.5279C61.6967 54.8914 62.5257 56.1706 63.8064 56.7467C65.0927 57.3255 66.6049 57.0725 67.6426 56.1078C68.6717 55.1501 69.0748 53.778 68.4645 52.4859C67.5368 50.5221 66.4663 48.6282 65.4558 46.703L65.4572 46.7044Z" fill="white"/>
</svg>
