<svg width="16" height="16" viewBox="0 0 16 16" fill="none" xmlns="http://www.w3.org/2000/svg">
<path d="M1.20876 8.9954L12.3788 8.9954L7.49876 13.8754C7.10876 14.2654 7.10876 14.9054 7.49876 15.2954C7.68559 15.4827 7.93924 15.5879 8.20376 15.5879C8.46828 15.5879 8.72193 15.4827 8.90876 15.2954L15.4988 8.70541C15.8888 8.31541 15.8888 7.68541 15.4988 7.29541L8.90876 0.705405C8.51876 0.315404 7.88876 0.315404 7.49876 0.705405C7.10876 1.0954 7.10876 1.7254 7.49876 2.1154L12.3788 6.9954L1.20876 6.9954C0.65876 6.9954 0.20876 7.4454 0.20876 7.9954C0.20876 8.5454 0.65876 8.9954 1.20876 8.9954Z" fill="#434343"/>
</svg>
