<svg width="24" height="24" viewBox="0 0 24 24" fill="none" xmlns="http://www.w3.org/2000/svg">
<g clip-path="url(#clip0_5887_23117)">
<path d="M12 24C9.62663 24 7.30655 23.2962 5.33316 21.9776C3.35977 20.6591 1.8217 18.7849 0.913451 16.5922C0.00519943 14.3995 -0.232441 11.9867 0.230582 9.65892C0.693605 7.33115 1.83649 5.19295 3.51472 3.51472C5.19295 1.83649 7.33115 0.693605 9.65892 0.230582C11.9867 -0.232441 14.3995 0.00519943 16.5922 0.913451C18.7849 1.8217 20.6591 3.35977 21.9776 5.33316C23.2962 7.30655 24 9.62663 24 12C23.9966 15.1815 22.7312 18.2318 20.4815 20.4815C18.2318 22.7312 15.1815 23.9966 12 24ZM12 2.00001C10.0222 2.00001 8.08879 2.5865 6.4443 3.68531C4.79981 4.78412 3.51809 6.34591 2.76121 8.17317C2.00433 10.0004 1.8063 12.0111 2.19215 13.9509C2.578 15.8907 3.53041 17.6725 4.92894 19.0711C6.32746 20.4696 8.10929 21.422 10.0491 21.8079C11.9889 22.1937 13.9996 21.9957 15.8268 21.2388C17.6541 20.4819 19.2159 19.2002 20.3147 17.5557C21.4135 15.9112 22 13.9778 22 12C21.9971 9.34873 20.9426 6.80689 19.0679 4.93215C17.1931 3.05742 14.6513 2.00292 12 2.00001Z" fill="#A55199"/>
<path d="M13 14.9996H11V14.2566C10.9852 13.551 11.1596 12.8543 11.5049 12.2389C11.8503 11.6234 12.3541 11.1116 12.964 10.7566C13.3335 10.5531 13.6291 10.238 13.8087 9.8563C13.9883 9.47464 14.0427 9.04596 13.964 8.63156C13.8861 8.23676 13.6922 7.87415 13.4072 7.59005C13.1222 7.30595 12.759 7.11325 12.364 7.03656C12.0757 6.9832 11.7792 6.99387 11.4955 7.06782C11.2118 7.14177 10.9479 7.27718 10.7223 7.46448C10.4968 7.65177 10.3151 7.88636 10.1903 8.15163C10.0655 8.41691 10.0005 8.70639 10 8.99956H8C8.00025 8.29407 8.18708 7.60119 8.54155 6.99121C8.89602 6.38123 9.40551 5.87586 10.0183 5.52635C10.6312 5.17684 11.3255 4.99563 12.031 5.0011C12.7365 5.00657 13.428 5.19853 14.0353 5.5575C14.6426 5.91648 15.1442 6.42969 15.4892 7.0451C15.8342 7.6605 16.0102 8.35619 15.9995 9.0616C15.9888 9.76702 15.7918 10.4571 15.4283 11.0617C15.0648 11.6664 14.5479 12.1642 13.93 12.5046C13.6347 12.6892 13.3933 12.9483 13.2301 13.2559C13.0668 13.5634 12.9874 13.9086 13 14.2566V14.9996Z" fill="#A55199"/>
<path d="M13 17H11V19H13V17Z" fill="#A55199"/>
</g>
<defs>
<clipPath id="clip0_5887_23117">
<rect width="24" height="24" fill="white"/>
</clipPath>
</defs>
</svg>
