<svg width="40" height="40" viewBox="0 0 40 40" fill="none" xmlns="http://www.w3.org/2000/svg">
<rect x="0.5" y="0.5" width="39" height="39" rx="19.5" fill="white"/>
<rect x="0.5" y="0.5" width="39" height="39" rx="19.5" stroke="#DFDFDF"/>
<path d="M11.4866 7.68185C10.6305 8.01484 9.9065 8.45883 9.18252 9.18296C8.45854 9.90181 8.01463 10.6312 7.68171 11.4822C7.35935 12.3068 7.14268 13.2529 7.07927 14.6377C7.01585 16.0226 7 16.4666 7 19.9974C7 23.5282 7.01585 23.9721 7.07927 25.357C7.14268 26.7418 7.36463 27.6879 7.68171 28.5125C8.01463 29.3688 8.45854 30.0929 9.18252 30.817C9.9065 31.5412 10.6305 31.9852 11.4866 32.3182C12.311 32.6406 13.2569 32.8573 14.6415 32.9207C16.026 32.9841 16.4699 33 20 33C23.5301 33 23.974 32.9841 25.3585 32.9207C26.7431 32.8573 27.689 32.6353 28.5134 32.3182C29.3695 31.9852 30.0935 31.5412 30.8175 30.817C31.5415 30.0929 31.9854 29.3688 32.3183 28.5125C32.6406 27.6879 32.8573 26.7418 32.9207 25.357C32.9841 23.9721 33 23.5282 33 19.9974C33 16.4666 32.9841 16.0226 32.9207 14.6377C32.8573 13.2529 32.6354 12.3068 32.3183 11.4822C31.9854 10.6312 31.5415 9.90181 30.8228 9.18296C30.0988 8.45883 29.3748 8.01484 28.5187 7.68185C27.6943 7.35942 26.7484 7.14271 25.3638 7.07928C23.9793 7.01586 23.5354 7 20.0053 7C16.4752 7 16.0313 7.01586 14.6467 7.07928C13.2569 7.13743 12.311 7.35942 11.4866 7.68185ZM25.2528 9.41553C26.5211 9.47367 27.2081 9.6851 27.6679 9.86481C28.2756 10.1027 28.7089 10.3828 29.1634 10.8374C29.6179 11.2919 29.898 11.7254 30.1358 12.3332C30.3154 12.793 30.5268 13.4802 30.585 14.7487C30.6484 16.1177 30.6589 16.53 30.6589 20.0026C30.6589 23.4753 30.6431 23.8876 30.585 25.2566C30.5268 26.5251 30.3154 27.2122 30.1358 27.6721C29.898 28.2799 29.6179 28.7134 29.1634 29.1679C28.7089 29.6225 28.2756 29.9026 27.6679 30.1405C27.2081 30.3202 26.5211 30.5316 25.2528 30.5898C23.8841 30.6532 23.472 30.6638 20 30.6638C16.5281 30.6638 16.1159 30.6479 14.7472 30.5898C13.4789 30.5316 12.7919 30.3202 12.3321 30.1405C11.7244 29.9026 11.2911 29.6225 10.8366 29.1679C10.3821 28.7134 10.102 28.2799 9.86423 27.6721C9.68455 27.2122 9.47317 26.5251 9.41504 25.2566C9.35163 23.8876 9.34106 23.4753 9.34106 20.0026C9.34106 16.53 9.35691 16.1177 9.41504 14.7487C9.47317 13.4802 9.68455 12.793 9.86423 12.3332C10.102 11.7254 10.3821 11.2919 10.8366 10.8374C11.2911 10.3828 11.7244 10.1027 12.3321 9.86481C12.7919 9.6851 13.4789 9.47367 14.7472 9.41553C16.1159 9.3521 16.5281 9.34153 20 9.34153C23.472 9.34153 23.8841 9.3521 25.2528 9.41553Z" fill="url(#paint0_radial_5811_7606)"/>
<path d="M13.3203 20.0019C13.3203 23.6913 16.3114 26.6777 19.9947 26.6777C23.678 26.6777 26.6691 23.686 26.6691 20.0019C26.6691 16.3178 23.6833 13.3262 19.9947 13.3262C16.3061 13.3262 13.3203 16.3126 13.3203 20.0019ZM24.328 20.0019C24.328 22.3963 22.3886 24.3361 19.9947 24.3361C17.6008 24.3361 15.6614 22.3963 15.6614 20.0019C15.6614 17.6075 17.6008 15.6677 19.9947 15.6677C22.3886 15.6677 24.328 17.6075 24.328 20.0019Z" fill="url(#paint1_radial_5811_7606)"/>
<path d="M26.9418 14.6224C27.8027 14.6224 28.5007 13.9243 28.5007 13.0632C28.5007 12.202 27.8027 11.5039 26.9418 11.5039C26.0808 11.5039 25.3828 12.202 25.3828 13.0632C25.3828 13.9243 26.0808 14.6224 26.9418 14.6224Z" fill="#654C9F"/>
<defs>
<radialGradient id="paint0_radial_5811_7606" cx="0" cy="0" r="1" gradientUnits="userSpaceOnUse" gradientTransform="translate(7.47307 30.6196) rotate(-3.0007) scale(37.5898 31.9574)">
<stop stop-color="#FED576"/>
<stop offset="0.2634" stop-color="#F47133"/>
<stop offset="0.6091" stop-color="#BC3081"/>
<stop offset="1" stop-color="#4C63D2"/>
</radialGradient>
<radialGradient id="paint1_radial_5811_7606" cx="0" cy="0" r="1" gradientUnits="userSpaceOnUse" gradientTransform="translate(13.5624 25.4534) rotate(-3.0007) scale(19.3029 16.4106)">
<stop stop-color="#FED576"/>
<stop offset="0.2634" stop-color="#F47133"/>
<stop offset="0.6091" stop-color="#BC3081"/>
<stop offset="1" stop-color="#4C63D2"/>
</radialGradient>
</defs>
</svg>
