<svg width="42" height="42" viewBox="0 0 42 42" fill="none" xmlns="http://www.w3.org/2000/svg">
<rect x="0.5" y="0.5" width="41" height="41" rx="20.5" fill="white"/>
<rect x="0.5" y="0.5" width="41" height="41" rx="20.5" stroke="#DFDFDF"/>
<path fill-rule="evenodd" clip-rule="evenodd" d="M31.132 9.75H10.7283C10.1693 9.75 9.75 10.1719 9.75 10.7344V31.4062C9.75 31.8281 10.1693 32.25 10.7283 32.25H31.2717C31.8307 32.25 32.25 31.8281 32.25 31.2656V10.7344C32.1102 10.1719 31.691 9.75 31.132 9.75ZM16.3217 28.875H13.1074V18.1875H16.4615V28.875H16.3217ZM14.7827 16.7812C13.6647 16.7812 12.8262 15.7969 12.8262 14.8125C12.8262 13.6875 13.6647 12.8438 14.7827 12.8438C15.9007 12.8438 16.7392 13.6875 16.7392 14.8125C16.5995 15.7969 15.761 16.7812 14.7827 16.7812ZM28.7587 28.8739H25.4047V23.6708C25.4047 22.4052 25.4047 20.8583 23.7277 20.8583C22.0507 20.8583 21.7712 22.2645 21.7712 23.6708V29.0145H18.4171V18.1864H21.6314V19.5927C22.0507 18.7489 23.1687 17.9052 24.7059 17.9052C28.06 17.9052 28.619 20.1552 28.619 22.9677V28.8739H28.7587Z" fill="#0273AF"/>
</svg>
