<svg width="12" height="12" viewBox="0 0 12 12" fill="none" xmlns="http://www.w3.org/2000/svg">
<path fill-rule="evenodd" clip-rule="evenodd" d="M3.33268 1.33366C3.33268 1.70185 3.03421 2.00033 2.66602 2.00033H1.99935V10.0003H2.66602C3.03421 10.0003 3.33268 10.2988 3.33268 10.667C3.33268 11.0352 3.03421 11.3337 2.66602 11.3337H1.33268C0.964492 11.3337 0.666016 11.0352 0.666016 10.667V1.33366C0.666016 0.965469 0.964492 0.666992 1.33268 0.666992H2.66602C3.03421 0.666992 3.33268 0.965469 3.33268 1.33366ZM9.99935 2.94699L11.8793 5.61366C12.0466 5.85083 12.0412 6.16896 11.866 6.40033L9.86602 9.06699C9.74011 9.23486 9.54252 9.33366 9.33268 9.33366C9.18844 9.33366 9.04808 9.28687 8.93268 9.20033C8.79123 9.09424 8.69772 8.93631 8.67272 8.76127C8.64771 8.58624 8.69326 8.40844 8.79935 8.26699L9.99935 6.66699H4.66602C4.29783 6.66699 3.99935 6.36852 3.99935 6.00033C3.99935 5.63214 4.29783 5.33366 4.66602 5.33366H10.0593L8.91268 3.72033C8.80936 3.5756 8.76813 3.39559 8.79818 3.22032C8.82823 3.04504 8.92705 2.88904 9.07268 2.78699C9.37298 2.57628 9.78709 2.64778 9.99935 2.94699Z" fill="#A55199"/>
</svg>
