<svg width="260" height="88" viewBox="0 0 260 88" fill="none" xmlns="http://www.w3.org/2000/svg">
<g clip-path="url(#clip0_5804_15919)">
<path d="M20.0266 32.4086L19.955 32.825C19.9372 32.9637 19.9074 33.1086 19.8716 33.2413C19.5259 34.7498 18.6557 36.0652 17.3981 36.9703C16.2656 37.7849 14.9424 38.1952 13.5835 38.153C13.2855 38.147 12.9875 38.1108 12.6954 38.0625C9.55433 37.5255 7.34902 34.7257 7.43247 31.6061C7.43843 31.2984 7.47419 31.0027 7.52187 30.707C7.59339 30.2786 7.96293 29.9648 8.38015 29.9648C8.42187 29.9648 8.45168 29.9648 8.4934 29.9709C8.98214 30.0312 9.32188 30.4958 9.23843 30.9846C9.19075 31.2742 9.17287 31.5578 9.17287 31.8294C9.20267 34.0137 10.7822 35.9445 12.9875 36.3187C14.1974 36.5238 15.4014 36.2402 16.3967 35.5161C17.261 34.8946 17.863 34.0197 18.1431 33.006C18.1908 32.8431 18.2325 32.6801 18.2564 32.5233L18.3219 32.1069C18.3994 31.6423 18.8285 31.3225 19.2935 31.3828C19.7762 31.4432 20.116 31.9078 20.0385 32.3965" fill="#36B7B9"/>
<path d="M21.9518 42.9981C16.5637 48.3805 8.95834 50.4441 2.99209 51.8923C2.81924 51.482 2.65831 51.0716 2.50931 50.6553C2.48546 50.5829 2.4497 50.4984 2.41394 50.4079C8.1537 49.0502 15.2345 46.4194 20.3306 41.3327C20.7836 40.8802 21.5226 40.8862 21.9637 41.3448C22.4167 41.8034 22.4107 42.5456 21.9518 42.9981Z" fill="#36B7B9"/>
<path d="M48.9817 52.4354L48.946 52.5681C48.2009 52.2604 47.4201 52.0311 46.5916 51.8742C43.2837 51.2467 40.238 51.9165 37.4605 53.8594C34.677 55.8084 32.9843 58.4513 32.3644 61.8002C32.2512 62.4096 32.1856 63.013 32.1498 63.6043C32.1498 63.4354 32.1558 63.2664 32.1677 63.0975C32.3883 59.7003 33.7532 56.8704 36.2922 54.6016C38.8254 52.3328 41.7638 51.307 45.1194 51.5363C45.9539 51.5906 46.7585 51.7234 47.5393 51.9406C48.0281 52.0733 48.5049 52.2363 48.9698 52.4293" fill="#36B7B9"/>
<path d="M21.9518 42.9983C16.5637 48.3806 8.95832 50.4443 2.99207 51.8924C2.99207 51.8924 2.98809 51.8945 2.98015 51.8985C2.65233 51.1503 2.68213 51.1503 2.40796 50.402H2.41392C8.15368 49.0444 15.2345 46.4136 20.3306 41.3269C20.7835 40.8743 21.5226 40.8804 21.9637 41.339C22.4167 41.7975 22.4107 42.5397 21.9518 42.9923" fill="#176969"/>
<path d="M19.2815 31.3947C18.8166 31.3344 18.3935 31.6542 18.31 32.1188L18.2444 32.5352C18.2206 32.6981 18.1789 32.861 18.1312 33.0179C17.8511 34.0316 17.2491 34.9065 16.3848 35.528C15.3895 36.2461 14.1855 36.5297 12.9755 36.3306C10.7702 35.9564 9.19672 34.0256 9.16096 31.8352C9.16096 31.5576 9.17884 31.2801 9.22652 30.9965C9.31593 30.4957 8.97619 30.0371 8.48148 29.9767C8.43976 29.9707 8.40996 29.9707 8.36824 29.9707C7.95102 29.9707 7.58148 30.2784 7.50996 30.7008C7.46227 31.0025 7.43247 31.2982 7.42651 31.5999C7.33711 34.7255 9.54242 37.5253 12.6895 38.0623C12.9815 38.1106 13.2795 38.1408 13.5775 38.1468C14.9305 38.189 16.2597 37.7787 17.3921 36.9641C18.6497 36.0651 19.52 34.7436 19.8656 33.2411C19.9074 33.1084 19.9312 32.9636 19.9551 32.8248L20.0266 32.4084C20.1041 31.9197 19.7703 31.4551 19.2815 31.3947Z" fill="#176969"/>
<path d="M20.0264 32.4088L19.9549 32.8251C19.937 32.9639 19.9072 33.1087 19.8714 33.2415C19.5257 34.75 18.6555 36.0654 17.3979 36.9705C16.2655 37.7851 14.9423 38.1954 13.5833 38.1531C13.2853 38.1471 12.9873 38.1109 12.6952 38.0687C9.55416 37.5316 7.34885 34.7319 7.4323 31.6123C7.43826 31.3045 7.47402 31.0089 7.5217 30.7132C7.59323 30.2848 7.96276 29.971 8.37998 29.971C8.42171 29.971 8.45151 29.971 8.49323 29.9771C8.98197 30.0374 9.32171 30.502 9.23827 30.9908C9.19058 31.2804 9.1727 31.564 9.1727 31.8355C9.20847 34.0198 10.782 35.9507 12.9873 36.3309C14.1972 36.536 15.4012 36.2524 16.3966 35.5284C17.2608 34.9068 17.8628 34.0319 18.1429 33.0182C18.1906 32.8553 18.2264 32.6984 18.2562 32.5355L18.3218 32.1191C18.3992 31.6545 18.8284 31.3347 19.2933 31.3951C19.7761 31.4554 20.1158 31.92 20.0383 32.4088M44.9643 76.2338C44.4994 76.2519 44.0285 76.2458 43.5517 76.2157C40.202 75.9985 37.4126 74.5986 35.1894 72.0401C33.1689 69.705 32.1616 67.038 32.1616 64.0089C32.1616 63.8761 32.1616 63.7374 32.1675 63.6046C32.1675 63.4356 32.1735 63.2667 32.1854 63.0977C32.4059 59.7006 33.7708 56.8706 36.3099 54.6019C38.8431 52.3331 41.7815 51.3073 45.1371 51.5366C45.9716 51.5909 46.7762 51.7236 47.557 51.9409C48.0457 52.0736 48.5226 52.2365 48.9875 52.4296C50.8888 53.2261 52.5696 54.5415 54.0418 56.3819L60.7471 51.2288C57.308 46.9809 53.2193 44.3682 48.4749 43.4148C47.563 43.2277 46.6391 43.101 45.6855 43.0407C44.4159 42.9623 43.1821 42.9804 41.9722 43.1131C41.1795 43.1976 40.3987 43.3364 39.6358 43.5174C38.5212 43.3484 37.4543 42.9562 36.5066 42.2683C36.3397 42.1416 36.1728 42.0149 36.0179 41.8641C35.2609 41.1822 34.5934 40.2771 34.0629 39.0945C32.9602 36.6326 34.6828 31.4554 33.9079 28.5048C32.9543 24.8602 30.3854 22.338 27.1132 20.8054C29.1159 17.2694 33.151 8.71924 29.5271 2.7154C27.4887 -0.651574 23.7754 -1.35152 23.2807 3.34897C23.0125 5.85912 23.8768 8.45978 24.0317 10.9699C24.2165 13.8663 24.0198 16.7384 23.5728 19.5925H23.5668C22.7801 19.3994 21.9933 19.2546 21.1827 19.1641C20.7118 15.2782 19.1622 8.30893 14.1019 6.07635C10.9906 4.70663 8.00449 6.07635 9.95946 9.67262C11.0085 11.5914 12.9038 13.0155 14.2509 14.7231C15.3178 16.0807 16.2476 17.5108 17.082 19.0133C12.9635 19.2064 8.99389 20.4554 6.34156 22.5854C6.34156 22.5854 0.351467 28.0643 0.0296108 36.8619C-0.137277 41.2667 0.738886 45.8767 2.41969 50.4082C8.15945 49.0506 15.2403 46.4197 20.3363 41.3331C20.7893 40.8805 21.5224 40.8866 21.9695 41.3451C22.4224 41.8037 22.4165 42.5519 21.9575 42.9985C16.5694 48.3808 8.96409 50.4444 2.99784 51.8926C3.09916 52.146 3.20049 52.3994 3.30777 52.6468C9.38727 66.8449 23.0483 79.9628 36.9894 83.7461C37.8596 83.9814 38.7358 84.1926 39.6119 84.3495C39.7788 84.3857 39.9457 84.4099 40.1126 84.44C40.6252 84.5245 41.1437 84.603 41.6444 84.6633L41.6623 84.5728C41.7755 84.5909 41.8947 84.609 42.008 84.6211C42.3358 84.6633 42.6636 84.6935 43.0033 84.7176C48.9398 85.1098 54.2683 83.0763 58.9829 78.6233L53.0047 72.5772C50.6087 74.8822 47.9385 76.1071 44.9643 76.2398" fill="#36B7B9"/>
<path d="M88.8442 72.7276C91.2283 70.314 92.4144 67.4056 92.4144 64.0024C92.4144 60.5992 91.2223 57.6365 88.8442 55.2289C86.4601 52.8153 83.5753 51.6146 80.1779 51.6146C76.7805 51.6146 73.9434 52.8214 71.5593 55.2289C69.1752 57.6425 67.9891 60.5449 67.9891 63.9481C67.9891 67.3513 69.1871 70.2717 71.5891 72.6974C73.9852 75.1231 76.8699 76.3419 80.2315 76.3419C83.5932 76.3419 86.466 75.1351 88.8501 72.7276M80.1779 43.1006C83.9925 43.1006 87.4614 44.0419 90.5786 45.9185C93.6959 47.795 96.1813 50.3173 98.0409 53.4731C99.8946 56.6288 100.824 60.1406 100.824 64.0024C100.824 67.8642 99.8946 71.3277 98.0409 74.4835C96.1813 77.6393 93.6959 80.1554 90.5786 82.0381C87.4614 83.9207 84.0104 84.8559 80.2315 84.8559C76.4527 84.8559 72.9898 83.9146 69.8547 82.0381C66.7196 80.1615 64.2222 77.6332 62.3685 74.4593C60.5089 71.2854 59.5851 67.7857 59.5851 63.9541C59.5851 60.1225 60.5149 56.6349 62.3685 53.4791C64.2222 50.3233 66.7136 47.8071 69.8308 45.9245C72.9481 44.0479 76.3991 43.1066 80.1779 43.1066" fill="#F47F7A"/>
<path d="M119.295 54.7041C116.053 55.6032 113.603 57.5462 111.94 60.527C110.277 63.5078 109.89 66.6394 110.778 69.9219C111.666 73.2044 113.573 75.6904 116.5 77.38C119.426 79.0695 122.514 79.4617 125.756 78.5626C129.166 77.6153 131.752 75.4249 133.511 71.9976L141.116 75.7327C138.1 81.4951 133.725 85.1759 127.979 86.7689C124.332 87.7826 120.762 87.8007 117.263 86.8232C113.764 85.8457 110.712 84.0837 108.096 81.5374C105.479 78.991 103.673 75.8715 102.672 72.1786C101.671 68.4858 101.653 64.8594 102.612 61.3053C103.572 57.7513 105.312 54.6438 107.828 52.0009C110.343 49.352 113.424 47.5237 117.072 46.51C122.812 44.917 128.438 45.8341 133.946 49.2675L129.273 56.3575C126.03 54.318 122.705 53.7689 119.295 54.7162" fill="#EFAE4E"/>
<path d="M167.371 64.9139C169.749 62.5003 170.941 59.5919 170.941 56.1887C170.941 52.7856 169.749 49.8229 167.371 47.4153C164.987 45.0077 162.096 43.8009 158.705 43.8009C155.313 43.8009 152.47 45.0077 150.086 47.4153C147.702 49.8289 146.516 52.7313 146.516 56.1405C146.516 59.5497 147.714 62.4641 150.116 64.8898C152.512 67.3155 155.397 68.5343 158.758 68.5343C162.12 68.5343 164.993 67.3275 167.377 64.92M158.705 35.293C162.519 35.293 165.988 36.2343 169.105 38.1109C172.223 39.9874 174.708 42.5096 176.568 45.6654C178.421 48.8212 179.351 52.333 179.351 56.1948C179.351 60.0565 178.421 63.5201 176.568 66.6698C174.708 69.8256 172.223 72.3418 169.105 74.2244C165.988 76.107 162.537 77.0423 158.758 77.0423C154.98 77.0423 151.517 76.101 148.382 74.2244C145.246 72.3478 142.749 69.8196 140.895 66.6457C139.042 63.4718 138.112 59.9721 138.112 56.1405C138.112 52.3089 139.042 48.8212 140.895 45.6654C142.755 42.5096 145.24 39.9935 148.358 38.1109C151.475 36.2343 154.926 35.293 158.705 35.293Z" fill="#A45199"/>
<path d="M209.665 71.0381C212.049 68.6245 213.236 65.7161 213.236 62.3129C213.236 58.9098 212.043 55.9471 209.665 53.5395C207.281 51.1319 204.396 49.9251 200.999 49.9251C197.602 49.9251 194.765 51.1319 192.38 53.5395C189.996 55.9531 188.81 58.8555 188.81 62.2647C188.81 65.6739 190.008 68.5883 192.41 71.014C194.806 73.4397 197.691 74.6585 201.053 74.6585C204.414 74.6585 207.287 73.4517 209.665 71.0442M200.993 41.4111C204.808 41.4111 208.277 42.3524 211.394 44.229C214.511 46.1056 216.996 48.6278 218.856 51.7836C220.71 54.9394 221.64 58.4512 221.64 62.3129C221.64 66.1747 220.71 69.6322 218.856 72.788C216.996 75.9438 214.511 78.46 211.394 80.3426C208.277 82.2191 204.826 83.1605 201.047 83.1605C197.268 83.1605 193.805 82.2191 190.67 80.3426C187.535 78.466 185.037 75.9377 183.184 72.7638C181.33 69.59 180.4 66.0902 180.4 62.2586C180.4 58.427 181.33 54.9394 183.184 51.7836C185.043 48.6278 187.529 46.1116 190.646 44.229C193.763 42.3524 197.214 41.4111 200.993 41.4111Z" fill="#32B887"/>
<path d="M241.612 46.3047C244.974 46.3047 248.05 47.1495 250.833 48.8329C253.617 50.5164 255.84 52.7671 257.503 55.585C259.166 58.4029 260 61.5345 260 64.9739V88.0057H251.596V64.9739C251.596 62.1741 250.613 59.7786 248.652 57.7934C246.691 55.8083 244.342 54.8126 241.612 54.8126C238.883 54.8126 236.481 55.8083 234.52 57.7934C232.559 59.7786 231.575 62.1741 231.575 64.9739V88.0057H223.171V64.9739C223.171 61.5345 224 58.4029 225.669 55.585C227.332 52.7671 229.555 50.5164 232.338 48.8329C235.122 47.1495 238.215 46.3047 241.612 46.3047Z" fill="#36B7B9"/>
</g>
<defs>
<clipPath id="clip0_5804_15919">
<rect width="260" height="88" fill="white"/>
</clipPath>
</defs>
</svg>
