<svg width="63" height="63" viewBox="0 0 63 63" fill="none" xmlns="http://www.w3.org/2000/svg">
<path d="M20.9238 42.7067C21.3446 41.918 21.7128 41.2266 22.081 40.5352C24.4178 36.137 26.7613 31.7414 29.081 27.334C29.2638 26.9856 29.369 26.5532 29.369 26.1588C29.3861 18.4166 29.3808 10.673 29.3808 2.93079C29.3808 2.75597 29.3808 2.58114 29.3808 2.40632C29.3874 1.04847 30.1396 0.11125 31.3048 0.00872168C32.4686 -0.0924926 33.3628 0.692247 33.6219 2.10136C33.8665 2.10136 34.1255 2.10136 34.3833 2.10136C41.0558 2.10136 47.7284 2.09873 54.4009 2.10399C55.8146 2.10399 56.8075 3.10167 56.6562 4.39906C56.6128 4.775 56.4432 5.15619 56.2552 5.4927C55.2268 7.32113 54.1892 9.1443 53.1214 10.9491C52.8676 11.3776 52.8439 11.6917 53.1082 12.1347C54.1484 13.8803 55.0637 15.7048 56.1736 17.4018C57.3953 19.2697 56.1381 21.0705 54.1037 21.039C47.5206 20.9404 40.9335 21.0021 34.3491 21.0021H33.5864C33.5864 22.9265 33.5824 24.7799 33.5929 26.6333C33.5929 26.7753 33.6732 26.9265 33.7429 27.0592C36.4676 32.1922 39.195 37.3226 41.9225 42.453C41.9527 42.5095 41.9961 42.5608 42.075 42.6738C42.7772 41.5079 43.5623 40.4169 44.1238 39.2207C44.926 37.5159 47.2537 37.4988 48.2597 39.2234C51.9602 45.5644 55.7936 51.8278 59.5572 58.1333C59.8452 58.6158 60.1306 58.8405 60.7263 58.8195C62.0664 58.7735 63 59.6713 63.0014 60.8964C63.0027 62.1214 62.0703 62.9982 60.7342 62.9982C41.2636 63.0008 21.793 63.0008 2.3211 62.9982C0.981062 62.9982 0.0223918 62.1333 0.00135099 60.9292C-0.0210048 59.7081 0.960021 58.7774 2.32899 58.8169C2.87736 58.8326 3.13643 58.6131 3.39549 58.1793C7.19729 51.8212 11.0201 45.4763 14.8206 39.1182C15.3361 38.2572 16.0278 37.8274 17.0312 37.9115C17.7637 37.972 18.3002 38.3308 18.6737 38.9578C19.4009 40.1763 20.1347 41.3922 20.9251 42.708L20.9238 42.7067ZM45.8242 58.7761C41.0401 49.7759 36.2875 40.8375 31.4797 31.7926C26.6574 40.8664 21.9114 49.7943 17.1377 58.7761H45.8255H45.8242ZM33.5864 16.7367H50.9305C50.1415 15.3591 49.3932 14.0328 48.6226 12.7197C48.1584 11.9257 48.1545 11.1581 48.62 10.3668C49.2946 9.21791 49.9521 8.05855 50.6149 6.90181C50.7162 6.72436 50.8082 6.54165 50.9161 6.34185H33.5864V16.738V16.7367ZM7.88375 58.7985C9.37633 58.7985 10.7282 58.8103 12.0788 58.7827C12.2392 58.7788 12.4575 58.5908 12.5416 58.4317C14.5063 54.7551 16.4579 51.0707 18.4041 47.3836C18.4765 47.2456 18.5554 47.0221 18.4949 46.9156C17.9531 45.9574 17.381 45.0162 16.7643 43.9791C13.7844 48.9504 10.8715 53.8114 7.88243 58.7985H7.88375ZM46.1753 43.9791C45.5678 44.9926 45.0181 45.8825 44.5065 46.7921C44.425 46.938 44.4513 47.2153 44.5354 47.3744C46.4765 51.0641 48.4306 54.7473 50.3927 58.4252C50.4729 58.5763 50.6517 58.7761 50.7885 58.7788C52.1719 58.805 53.5554 58.7945 55.0545 58.7945C52.0694 53.8127 49.1552 48.9518 46.174 43.9778L46.1753 43.9791Z" fill="#A55199"/>
<path d="M27.2401 56.6811C26.9784 56.6811 26.7128 56.7113 26.455 56.6759C25.4017 56.5326 24.6087 55.577 24.6468 54.5214C24.6836 53.4699 25.545 52.576 26.6102 52.5077C27.0021 52.4827 27.3966 52.4906 27.7898 52.5024C28.9694 52.5366 29.882 53.4422 29.8926 54.5793C29.9031 55.7426 28.9812 56.6627 27.7648 56.6982C27.5899 56.7035 27.415 56.6982 27.2401 56.6982C27.2401 56.6929 27.2401 56.6864 27.2401 56.6811Z" fill="#A55199"/>
<path d="M35.6586 56.6912C34.0266 56.6991 33.0495 55.9157 33.0469 54.6052C33.0429 53.292 34.0227 52.4705 35.648 52.5165C36.2162 52.5323 36.8342 52.6295 37.3326 52.8806C38.1203 53.2776 38.4478 54.249 38.2374 55.0797C38.0138 55.9591 37.2721 56.6071 36.3805 56.6873C36.1425 56.7083 35.9005 56.6899 35.6599 56.6899L35.6586 56.6912Z" fill="#A55199"/>
<path d="M41.9676 11.5449C41.9676 11.938 41.9873 12.3323 41.9624 12.724C41.8913 13.8492 40.9392 14.7207 39.828 14.6984C38.7471 14.6773 37.8265 13.8019 37.7805 12.7043C37.7489 11.9406 37.7489 11.1743 37.7805 10.4106C37.8252 9.28405 38.7734 8.39678 39.882 8.40336C40.9945 8.40861 41.9111 9.29457 41.9663 10.4316C41.9847 10.8023 41.9689 11.1743 41.9689 11.5449H41.9676Z" fill="#A55199"/>
</svg>
