<svg width="43" height="46" viewBox="0 0 43 46" fill="none" xmlns="http://www.w3.org/2000/svg">
<g clip-path="url(#clip0_5860_19888)">
<path d="M22.0085 0C22.9108 0.7865 23.1299 1.7303 22.6205 2.99554C22.3649 3.62816 22.2606 4.19239 22.511 4.87288C22.6101 5.14474 22.3249 5.80813 22.085 5.88165C21.7581 5.98253 21.1374 5.80984 20.9392 5.54141C20.2959 4.67455 20.4177 3.70168 20.7515 2.70659C20.9079 2.23982 20.7671 1.68243 20.861 1.18488C20.9358 0.774532 21.1583 0.39325 21.3165 0C21.5478 0 21.779 0 22.0102 0H22.0085Z" fill="#A55199"/>
<path d="M28.3943 19.9428C31.5116 21.0491 32.9286 23.2256 32.7061 26.4793C34.5647 26.8555 36.0147 27.7907 36.9205 29.4441C37.8281 31.1009 37.8159 32.8038 37.0683 34.5324C37.7881 34.7581 38.4922 34.9086 39.1355 35.1924C41.5765 36.2678 42.9118 38.8684 42.3902 41.4365C41.8669 44.0132 39.5389 45.9777 36.8596 45.9828C26.6157 46.0033 16.3699 46.0051 6.12594 45.9828C3.27633 45.976 0.800524 43.7276 0.531037 41.0193C0.231993 38.0067 2.12014 35.401 5.0619 34.7718C5.314 34.7171 5.56958 34.6794 5.91904 34.6145C5.24098 32.9115 5.13492 31.2325 5.97989 29.5894C6.8266 27.9395 8.21403 26.9632 10.09 26.5084C10.0239 26.004 9.92831 25.5099 9.89876 25.0123C9.68838 21.4201 11.8565 18.3476 15.6519 16.8721C16.4534 16.5609 17.2966 16.3506 18.1051 16.0514C20.101 15.3127 21.132 13.8577 21.1546 11.7615C21.1598 11.1956 21.0886 10.6296 21.0694 10.062C21.0225 8.62236 22.2447 7.78114 23.4983 8.52319C24.5206 9.12674 25.4212 9.95941 26.2766 10.7887C26.4766 10.9836 26.4174 11.6641 26.2262 11.9667C25.9463 12.4095 25.4264 12.348 25.0196 11.9975C24.3798 11.4469 23.7539 10.8827 23.1888 10.3834C22.9645 11.6863 22.895 12.972 22.5038 14.1552C21.7788 16.3472 19.9863 17.4568 17.8234 18.0467C16.3039 18.4604 14.8851 19.0589 13.7133 20.1275C12.0564 21.6389 11.4687 23.506 11.8356 25.6843C11.9225 26.2006 12.1346 26.4315 12.7362 26.4297C18.5084 26.4041 24.2789 26.4041 30.0512 26.4297C30.7258 26.4332 30.8822 26.1818 30.8962 25.5954C30.9483 23.453 29.2618 21.6714 27.0208 21.6218C25.03 21.5774 23.0393 21.6167 21.0468 21.5979C20.7113 21.5945 20.2801 21.5825 20.0697 21.3876C19.8472 21.1824 19.6594 20.6575 19.7776 20.4489C19.948 20.1463 20.4018 19.8317 20.7478 19.8163C22.3039 19.7496 23.8669 19.7171 25.4195 19.8129C26.2801 19.8659 26.6174 19.5068 26.8017 18.8041C26.8817 18.5015 26.8834 18.1202 27.0764 17.9236C27.3389 17.6551 27.7927 17.3371 28.0883 17.3987C28.3699 17.4568 28.7281 17.9646 28.7437 18.2878C28.7698 18.8024 28.5386 19.329 28.3943 19.9445V19.9428ZM21.4571 44.2047C26.334 44.2047 31.2126 44.2064 36.0894 44.2012C36.5502 44.2012 37.0179 44.1893 37.4682 44.1106C39.6206 43.7293 41.0271 41.6554 40.5838 39.5523C40.1908 37.6887 38.6296 36.461 36.5849 36.4593C30.2059 36.4508 23.8286 36.4542 17.4496 36.4593C16.775 36.4593 16.1248 36.4354 16.0448 35.5788C15.9857 34.9479 16.4829 34.6401 17.4792 34.6333C17.6808 34.6333 17.8825 34.6333 18.0859 34.6333C23.3957 34.6333 28.7072 34.6196 34.017 34.6487C34.7003 34.6521 35.0654 34.411 35.3557 33.8382C36.6162 31.3437 34.8863 28.302 32.0506 28.278C25.0092 28.2165 17.966 28.2233 10.9245 28.2763C8.41919 28.2951 6.6736 30.7589 7.33254 33.1304C7.6681 34.3392 7.9967 34.5991 9.30762 34.6316C9.95787 34.647 10.5142 34.8402 10.5177 35.5497C10.5212 36.261 9.97699 36.4679 9.31632 36.461C8.21924 36.4491 7.12043 36.4234 6.02684 36.473C3.46062 36.5859 1.70809 39.1095 2.50438 41.5032C3.07639 43.2215 4.51423 44.1995 6.56407 44.2047C11.5279 44.2166 16.4934 44.2081 21.4571 44.2098V44.2047Z" fill="#A55199"/>
<path d="M34.002 18.1201C34.1132 17.6396 34.1671 17.2737 34.2871 16.9301C34.5009 16.318 34.7357 15.752 34.4801 15.0527C34.3879 14.8031 34.7235 14.1876 34.9982 14.0833C35.2764 13.9773 35.8675 14.1927 36.0657 14.4543C36.6151 15.1844 36.5873 16.0376 36.2448 16.8771C35.9875 17.5097 35.7823 18.1132 36.1109 18.8313C36.2222 19.0758 35.9318 19.7597 35.6902 19.8367C35.365 19.941 34.7565 19.7734 34.5444 19.5084C34.2297 19.1169 34.1532 18.5373 34.0054 18.1184L34.002 18.1201Z" fill="#A55199"/>
<path d="M10.4482 12.1222C10.5786 11.5939 10.7143 11.1887 10.7734 10.7732C10.8481 10.2414 10.8081 9.68919 10.9229 9.16771C11.0098 8.77959 11.1785 8.26494 11.474 8.10935C11.7035 7.98967 12.3381 8.23417 12.5276 8.50089C13.1014 9.30449 12.9971 10.2226 12.6267 11.0929C12.3851 11.6606 12.2755 12.165 12.5398 12.7942C12.6563 13.0711 12.3868 13.7482 12.1156 13.8747C11.8409 14.003 11.1976 13.791 10.9837 13.5208C10.6725 13.1276 10.5995 12.5497 10.45 12.1205L10.4482 12.1222Z" fill="#A55199"/>
<path d="M27.8467 13.4558C28.0779 13.7841 28.457 14.0936 28.5056 14.4458C28.5787 14.9809 28.1684 15.4186 27.6155 15.2955C27.2712 15.2186 26.7896 14.7741 26.7757 14.4783C26.7618 14.1449 27.2052 13.7909 27.4486 13.4473C27.5807 13.4507 27.7128 13.4524 27.8467 13.4558Z" fill="#A55199"/>
<path d="M13.0733 36.5721C12.8369 36.2148 12.4005 35.8454 12.4248 35.5069C12.4474 35.2026 12.9429 34.7461 13.2854 34.6913C13.8157 34.6059 14.2434 35.0453 14.1408 35.589C14.073 35.9463 13.6923 36.249 13.4523 36.5755C13.3254 36.5755 13.2002 36.5738 13.0733 36.5721Z" fill="#A55199"/>
<mask id="mask0_5860_19888" style="mask-type:alpha" maskUnits="userSpaceOnUse" x="26" y="3" width="19" height="19">
<rect x="26" y="3" width="18.2466" height="18.2466" fill="#D9D9D9"/>
</mask>
<g mask="url(#mask0_5860_19888)">
<path d="M33.0822 17.4452C31.3969 17.4452 29.9619 16.8623 28.7771 15.6966C27.5924 14.5308 27 13.1116 27 11.439C27 10.6408 27.1552 9.87732 27.4657 9.14872C27.7761 8.42012 28.2164 7.77706 28.7866 7.21952L33.0822 3L37.3777 7.21952C37.9479 7.77706 38.3883 8.42012 38.6987 9.14872C39.0092 9.87732 39.1644 10.6408 39.1644 11.439C39.1644 13.1116 38.572 14.5308 37.3872 15.6966C36.2025 16.8623 34.7675 17.4452 33.0822 17.4452ZM33.0822 15.9247C34.3493 15.9247 35.4264 15.4907 36.3134 14.6227C37.2003 13.7547 37.6438 12.6935 37.6438 11.439C37.6438 10.8435 37.5298 10.2765 37.3017 9.73793C37.0736 9.1994 36.7442 8.7274 36.3134 8.32192L33.0822 5.12877L29.851 8.32192C29.4202 8.7274 29.0908 9.1994 28.8627 9.73793C28.6346 10.2765 28.5205 10.8435 28.5205 11.439C28.5205 12.6935 28.964 13.7547 29.851 14.6227C30.738 15.4907 31.8151 15.9247 33.0822 15.9247Z" fill="#A55199"/>
</g>
</g>
<defs>
<clipPath id="clip0_5860_19888">
<rect width="42" height="46" fill="white" transform="translate(0.5)"/>
</clipPath>
</defs>
</svg>
