<svg width="28" height="41" viewBox="0 0 28 41" fill="none" xmlns="http://www.w3.org/2000/svg">
<path d="M6.93935 16.4343C6.37458 14.5326 6.28144 12.464 6.41353 10.3963C6.46687 9.55464 6.25604 9.07877 5.58373 8.53941C3.15532 6.59362 3.04947 3.36759 5.25097 1.36253C6.89616 -0.136176 9.23991 -0.212382 10.9969 1.23298C11.5218 1.66482 11.9232 2.24567 12.3957 2.7444C12.5074 2.86209 12.6725 2.99587 12.8199 3.00434C16.6242 3.21941 18.8638 5.15334 19.6606 8.91197C19.9908 10.4708 19.9993 12.0423 19.9112 13.6215C19.907 13.6909 19.9112 13.7603 19.9112 13.8298C20.6437 14.055 21.3786 14.2387 22.0822 14.5046C24.398 15.381 26.2498 16.8162 27.2236 19.1523C27.586 20.0227 27.8248 20.9779 27.9247 21.9152C28.0449 23.0413 27.9941 24.1903 27.945 25.3267C27.9111 26.1107 27.5555 26.8127 27.1533 27.485C26.9831 27.7695 26.8383 28.0794 26.7426 28.3952C26.0949 30.5264 25.2312 32.5493 23.7867 34.2749C22.5098 35.8007 20.9595 36.8896 18.9324 37.1555C15.7199 37.578 12.6344 35.3926 11.9791 32.208C11.4727 29.7491 12.2915 27.6619 13.8741 25.8161C14.7631 24.7797 15.8317 23.9558 16.9968 23.2556C17.2855 23.082 17.4701 22.8728 17.5971 22.546C18.5641 20.0659 21.1737 18.6866 23.7918 19.2454C23.8985 19.2683 24.006 19.2869 24.2236 19.3284C22.9798 17.6722 21.3498 16.911 19.4642 16.5393C18.6792 19.0863 17.4786 21.2412 14.6209 21.7628C11.908 22.2581 9.6819 21.4038 8.03925 19.0084C7.56931 19.43 7.06297 19.778 6.68956 20.2361C3.95547 23.5858 2.97073 27.3791 4.157 31.573C4.99695 34.5424 7.16288 36.3307 10.0155 37.2918C11.0612 37.644 12.1654 37.8345 13.2526 38.0538C14.0815 38.2215 14.6183 38.8633 14.4854 39.6271C14.3508 40.401 13.6581 40.8413 12.8156 40.7253C10.6353 40.4247 8.54136 39.8523 6.63791 38.7194C3.48808 36.8464 1.6202 34.0751 1.13841 30.4468C0.54231 25.9524 1.7218 21.9313 4.66927 18.4783C5.30855 17.7298 6.14003 17.1447 6.93935 16.4352V16.4343ZM9.05702 12.3632C9.09935 12.9034 9.11967 13.392 9.17979 13.8755C9.33982 15.1684 9.6294 16.4258 10.3424 17.5418C11.0892 18.7112 12.1814 19.2556 13.5557 19.1879C14.9435 19.1193 15.8215 18.3174 16.3804 17.1032C17.0213 15.7078 17.2246 14.2201 17.2576 12.7087C17.2779 11.7587 17.211 10.8069 17.1797 9.74176C14.7309 11.63 12.0798 12.508 9.05786 12.3632H9.05702ZM23.3083 29.9362C20.4438 30.0522 18.5124 28.8092 17.4379 26.2132C16.4972 26.905 15.7047 27.6746 15.1484 28.6619C14.5641 29.6983 14.3457 30.7923 14.7123 31.9523C15.432 34.2309 17.9417 35.1877 20.0492 33.9726C21.6352 33.0581 22.5293 31.573 23.3092 29.9362H23.3083ZM22.6208 21.8339C21.1187 21.8322 19.9112 23.0388 19.9138 24.5375C19.9163 26.0252 21.1492 27.2496 22.6343 27.2394C24.1051 27.2293 25.3151 26.0159 25.321 24.546C25.3269 23.0456 24.122 21.8356 22.6216 21.8339H22.6208ZM9.20435 9.65455C11.8368 9.78071 14.0934 8.92044 16.0324 7.14993C14.9943 5.85443 13.0358 5.36163 11.4609 5.96366C10.1578 6.46153 9.11459 8.14991 9.20435 9.65455ZM7.26195 6.45899C7.83519 5.26595 8.62434 4.3608 9.74541 3.72321C9.18402 3.15675 8.60825 2.74524 7.81402 2.9637C7.01809 3.18215 6.56086 3.75116 6.42454 4.54539C6.28991 5.32522 6.66247 5.91709 7.26195 6.45984V6.45899Z" fill="white"/>
</svg>
