<svg width="46" height="52" viewBox="0 0 46 52" fill="none" xmlns="http://www.w3.org/2000/svg">
<g clip-path="url(#clip0_5912_30479)">
<path d="M19.8728 35.9852C18.904 34.0992 18.8562 34.2495 17.8945 32.3605C17.8549 32.2823 17.8426 32.1909 17.806 32.0659C17.5201 32.2224 17.3053 32.3534 17.0784 32.461C14.7267 33.5822 11.9232 32.9099 10.3866 30.8086C9.95104 30.2125 9.64168 29.5229 9.29366 28.8668C9.05961 28.4271 9.19393 28.0411 9.63659 27.8096C10.0528 27.5922 10.4751 27.3861 10.8944 27.1738C10.9452 27.1484 10.9921 27.1149 11.0674 27.0692C11.0063 27.056 10.9829 27.0509 10.9605 27.0468C9.4524 26.8011 8.20379 26.1034 7.32457 24.8481C6.93686 24.2946 6.65193 23.67 6.33341 23.0698C6.03525 22.5071 6.15736 22.1517 6.72316 21.8632C7.16073 21.6398 7.59729 21.4143 8.05522 21.1797C8.00129 21.1625 7.97279 21.1482 7.94328 21.1442C6.33443 20.8954 5.06343 20.1042 4.17098 18.7463C3.85653 18.268 3.61332 17.7429 3.35688 17.229C3.26123 17.0381 3.21849 16.8218 3.15234 16.6166C3.18694 16.509 3.22256 16.4013 3.25716 16.2937C3.44847 16.1647 3.62961 16.0164 3.83313 15.9088C4.71133 15.4456 5.58445 14.9632 6.62445 14.8708C6.5695 14.7906 6.5349 14.7368 6.49725 14.686C5.674 13.5708 5.25372 12.3227 5.28527 10.9354C5.29443 10.52 5.36566 10.1066 5.4084 9.69227C5.57834 9.16923 5.7493 8.6462 5.91924 8.12317C6.23369 7.78294 6.60003 7.73825 7.01725 7.91497C7.21772 8.00028 7.43244 8.05106 7.64003 8.12113C9.27127 8.66956 10.4741 9.71157 11.2322 11.2543C11.395 11.5864 11.5131 11.9398 11.6545 12.2922C11.7695 12.1835 11.8855 12.0718 12.0036 11.9621C12.7261 11.2979 13.6216 10.9242 14.4876 10.5078C14.8193 10.3483 15.1918 10.5139 15.3719 10.8551C15.6365 11.3558 15.9051 11.8555 16.132 12.3735C16.7253 13.7262 16.7355 15.1014 16.2267 16.4816C16.1412 16.7121 16.0272 16.9315 15.9183 17.1752C16.4149 16.9284 16.8891 16.6887 17.3674 16.4541C17.7826 16.251 18.1835 16.3739 18.3983 16.7801C18.6323 17.224 18.8654 17.6688 19.077 18.1228C19.768 19.6076 19.7639 21.1066 19.1401 22.6117C19.078 22.761 19.0007 22.9052 18.9223 23.0677C19.4149 22.825 19.8779 22.5945 20.3419 22.367C20.8059 22.1395 21.1865 22.2552 21.4226 22.7072C21.6546 23.152 21.8856 23.5979 22.0993 24.0508C23.176 26.3369 22.5003 29.1075 20.4803 30.6228C20.0499 30.9457 19.5634 31.1966 19.0556 31.5094C19.0902 31.5571 19.1544 31.6242 19.1951 31.7024C19.9583 33.1933 20.6075 34.0047 21.3687 35.4956M14.0734 24.9202C12.9703 22.0978 9.92967 21.5078 7.90766 22.9337C8.95479 25.5407 11.7512 26.3867 14.0734 24.9202ZM11.0674 19.0114C9.92763 16.1941 6.95212 15.6264 4.90468 17.0249C5.85513 19.5842 8.78587 20.5338 11.0674 19.0114ZM20.4182 23.9716C17.573 25.1213 17.0235 28.096 18.4278 30.1322C21.0349 29.0973 21.906 26.3014 20.4182 23.9716ZM14.397 12.1927C11.7329 13.1951 10.9127 16.1535 12.4086 18.336C15.0941 17.2829 15.8563 14.3915 14.397 12.1927ZM15.4136 24.2407C18.2446 23.0921 18.7931 20.1194 17.3969 18.0852C14.8091 19.117 13.8729 22.0064 15.4136 24.2407ZM17.0876 30.8127C15.9886 28.0655 13.0812 27.379 10.9137 28.816C11.9293 31.3896 14.7064 32.3107 17.0876 30.8127ZM10.0884 15.4487C11.1121 12.733 9.27534 9.96547 7.01827 9.48813C6.04644 12.1033 7.69193 14.8556 10.0884 15.4487ZM13.8862 19.2765C12.9062 19.7751 11.9252 20.2738 10.9452 20.7725C11.7461 20.87 12.491 21.1584 13.2186 21.591C13.2868 20.7369 13.5066 19.9762 13.8862 19.2765ZM16.8861 25.1822C15.9082 25.6799 14.9435 26.1704 13.9666 26.667C14.7705 26.7808 15.5174 27.057 16.2297 27.4927C16.2867 26.6518 16.5126 25.8952 16.8861 25.1822Z" fill="#A55199"/>
<path d="M32.0231 1.57528C30.7379 1.56817 29.4516 1.58746 28.1664 1.56512C27.6738 1.557 27.4947 1.74894 27.5222 2.22424C27.5466 2.66197 27.5263 3.10172 27.5273 3.54046C27.5293 4.19553 27.5924 4.26256 28.2549 4.26357C30.3868 4.2656 32.5177 4.26357 34.6496 4.26357C35.309 4.26357 35.9695 4.2656 36.6289 4.26357C37.3453 4.26154 37.387 4.2199 37.389 3.53031C37.39 3.10782 37.3911 2.68634 37.389 2.26385C37.386 1.61285 37.3473 1.56715 36.697 1.57426H32.0242L32.0231 1.57528ZM12.8319 45.7437C13.7406 45.6523 14.6585 45.5985 15.551 45.4218C21.3239 44.2793 26.3041 41.5666 30.6443 37.6596C31.4604 36.9253 32.1463 36.0082 32.7416 35.0789C33.2962 34.2126 32.9878 33.5393 32.0506 33.1249C31.2436 32.7674 30.397 32.8009 29.5554 32.9391C28.0544 33.1858 26.7041 33.8561 25.3181 34.4411C23.986 35.0038 22.6336 35.5816 21.2323 35.9087C18.8562 36.4632 16.4516 36.1108 14.0673 35.7766C12.1064 35.5024 10.1454 35.2069 8.15597 35.3349C6.43721 35.4456 4.81412 35.863 3.43626 36.9578C2.44307 37.7469 1.93426 38.7737 2.05231 40.0564C2.13677 40.9684 2.48581 41.788 3.05059 42.5101C3.87689 43.5663 4.96879 44.2691 6.20418 44.7312C7.02336 45.0379 7.86086 45.3416 8.72889 45.4706C11.4775 45.8798 12.8319 45.7427 12.8319 45.7427V45.7437ZM8.46736 46.9706C6.17365 46.5227 4.03971 45.7346 2.35149 44.0274C2.2772 43.9522 2.1846 43.8943 2.06452 43.7999C1.93732 45.1131 2.2599 46.2343 3.0282 47.2255C3.7965 48.2157 4.82022 48.8627 5.96606 49.3207C8.90697 50.4957 11.9486 50.6593 15.0462 50.1758C18.6211 49.6172 21.8958 48.2553 25.0057 46.4526C25.3099 46.2769 25.4992 46.0708 25.6274 45.7194C25.7984 45.2532 26.065 44.8023 26.3744 44.4113C27.5487 42.9265 29.1463 42.1353 30.9628 41.724C31.1348 41.6854 31.3373 41.6235 31.4502 41.5026C32.479 40.3986 33.345 39.2226 32.9156 37.5245C32.6174 37.8414 32.3386 38.1542 32.0435 38.4507C29.6175 40.8882 26.7336 42.6776 23.694 44.2234C20.3155 45.9408 16.7487 47.0417 12.9398 47.2631C12.9398 47.2631 10.9259 47.4398 8.46736 46.9716V46.9706ZM1.19547 37.2036C2.26295 35.5827 3.84535 34.7123 5.67197 34.2014C7.12512 33.7952 8.60779 33.7586 10.1006 33.8074C10.2726 33.8135 10.4446 33.8074 10.6888 33.8074C11.8489 33.8785 13.7223 34.2106 13.7223 34.2106C14.8264 34.3386 15.9611 34.499 17.1008 34.5914C17.806 34.6483 18.5194 34.6016 19.3151 34.6016C19.3151 34.6016 20.4813 34.6077 21.4908 34.3284C22.1065 34.0958 22.7303 33.8856 23.3571 33.6855C23.7448 33.5616 23.8822 33.3504 23.8792 32.9218C23.8568 29.7287 23.9372 26.5347 23.8446 23.3437C23.7713 20.8138 24.3361 18.4698 25.3506 16.1816C26.1016 14.4876 26.8038 12.7682 27.4418 11.0285C28.0616 9.34056 27.798 7.56326 27.8367 5.83166C26.3825 5.40511 26.0029 4.89426 26.0029 3.41554C26.0029 3.11188 26.0263 2.80517 25.9989 2.50353C25.891 1.34473 26.3214 0.505848 27.4205 0.0488281H37.4755C38.5664 0.474365 39.0142 1.27567 38.9175 2.43041C38.8737 2.9504 38.9195 3.47648 38.9022 3.99951C38.8809 4.65864 38.5613 5.16441 38.0027 5.49346C37.734 5.6519 37.4145 5.724 37.0746 5.85197C37.0746 6.55375 37.0888 7.27686 37.0715 7.99895C37.0318 9.66352 37.3626 11.2438 38.0566 12.7601C38.716 14.2012 39.3174 15.6677 39.9697 17.1119C40.7105 18.7531 41.0647 20.4614 41.0555 22.2641C41.0341 26.5682 41.0677 30.8723 41.0311 35.1764C41.024 35.9564 41.1379 36.3901 41.9683 36.7344C43.395 37.3265 44.2091 38.6092 44.7494 40.0056C45.0863 40.877 45.2542 41.8144 45.4984 42.7223V44.4458C45.36 44.981 45.2633 45.5305 45.0781 46.0484C44.0676 48.8616 41.2936 50.1515 38.4769 49.1389C38.3832 49.1054 38.2876 49.0739 38.1655 49.0312C37.3178 50.5831 35.9898 51.4788 34.2894 51.7815C31.6314 52.2537 29.1982 51.6688 27.1111 49.9514C26.468 49.4223 26.0182 48.6575 25.4707 47.9913C24.3076 48.5539 23.0539 49.2151 21.7564 49.7757C18.4604 51.1996 15.0269 52.0344 11.4123 51.9359C8.59863 51.8597 5.88974 51.3417 3.53294 49.6802C1.54248 48.2797 0.429209 46.4059 0.503495 43.8933C0.554376 42.1739 0.513671 40.4515 0.513671 38.7615C0.513671 38.7615 0.820991 37.7825 1.19547 37.2036ZM35.1401 41.9667C35.5838 40.9176 35.9481 39.8665 36.461 38.8925C37.0308 37.8119 37.8826 36.9517 39.0732 36.5353C39.4528 36.4023 39.5372 36.2215 39.5362 35.8488C39.523 31.2897 39.5301 26.7307 39.524 22.1727C39.524 21.7014 39.4985 21.2271 39.4365 20.76C39.1994 18.9786 38.43 17.375 37.6974 15.7642C37.6434 15.6444 37.4145 15.5378 37.2669 15.5367C34.0696 15.5235 30.8722 15.5306 27.6738 15.5205C27.3828 15.5205 27.2556 15.6383 27.1549 15.8851C26.9188 16.4619 26.6705 17.0358 26.4069 17.6004C25.7261 19.0609 25.372 20.5853 25.3873 22.2031C25.4188 25.4957 25.427 28.7883 25.4463 32.0809C25.4473 32.2708 25.4646 32.4617 25.4727 32.6293C26.5016 32.2799 27.4591 31.896 28.4493 31.631C29.8912 31.245 31.3525 31.1171 32.766 31.7833C33.9291 32.3317 34.559 33.2234 34.5255 34.5457C34.5041 35.3724 34.5224 36.2001 34.5193 37.0279C34.5173 37.7205 34.6303 38.4395 34.4786 39.0977C34.2792 39.965 33.8711 40.7856 33.5516 41.6265C34.038 41.7311 34.6425 41.8601 35.1391 41.9667H35.1401ZM29.3295 5.80221C29.4964 8.63472 29.3519 11.3809 27.9669 13.9646H36.9576C35.5756 11.3626 35.423 8.61745 35.5807 5.80221H29.3285H29.3295ZM44.0076 43.9746C43.8967 41.7342 43.4459 40.032 42.1189 38.6772C40.9721 37.5062 39.6756 37.5133 38.5257 38.6863C37.4827 39.7497 36.9576 41.0689 36.7703 42.5243C36.7489 42.6909 36.8873 42.9295 37.0247 43.0565C38.2245 44.1614 38.7506 45.5325 38.6387 47.1382C38.6142 47.4885 38.7323 47.6094 39.0192 47.7232C40.7258 48.3985 42.6582 47.6967 43.4255 46.0108C43.7664 45.2613 43.8875 44.4113 44.0076 43.9756V43.9746ZM32.7945 43.0047C32.7813 43.0392 32.7691 43.0737 32.7558 43.1093C32.3528 43.1509 31.9458 43.1702 31.5469 43.2383C30.0642 43.4891 28.7088 44.0193 27.6688 45.1537C26.7407 46.1673 26.7336 47.3118 27.6118 48.3457C29.2339 50.255 32.9461 51.0259 35.1808 49.9016C36.4599 49.2577 37.1377 48.2005 37.1346 46.7726C37.1316 45.3446 36.465 44.2508 35.1584 43.6709C34.4176 43.3419 33.5852 43.22 32.7945 43.0047Z" fill="#A55199"/>
<path d="M9.09785 42.6108C8.24407 42.5742 7.30379 42.4117 6.49275 41.8176C5.31231 40.9523 5.31333 39.5437 6.4897 38.6774C7.9113 37.6313 10.5164 37.6232 11.9472 38.6611C13.152 39.5355 13.153 40.9533 11.9492 41.8328C11.2735 42.3264 10.2671 42.6128 9.09785 42.6108ZM9.22505 41.2224C12.2321 41.2428 11.0852 39.9144 11.0852 39.9144C10.2742 39.2583 8.20947 39.2613 7.38113 39.9144C7.38113 39.9144 6.21697 41.2021 9.22505 41.2224Z" fill="#A55199"/>
<path d="M33.8369 45.6731C33.4095 45.4304 33.323 45.0353 33.5489 44.6403C33.7708 44.2523 34.1595 44.1436 34.594 44.3731C35.517 44.8617 36.0299 45.6213 36.0808 46.4907C36.1072 47.2036 35.861 47.5205 35.402 47.5571C34.9695 47.5916 34.6408 47.3316 34.5951 46.8421" fill="#A55199"/>
</g>
<defs>
<clipPath id="clip0_5912_30479">
<rect width="45" height="51.8952" fill="white" transform="translate(0.5 0.0527344)"/>
</clipPath>
</defs>
</svg>
