<svg width="31" height="38" viewBox="0 0 31 38" fill="none" xmlns="http://www.w3.org/2000/svg">
<path d="M15.5003 37.2087C11.2517 37.2087 7.63401 35.7392 4.6472 32.8003C1.6604 29.8614 0.166992 26.2837 0.166992 22.067C0.166992 20.0545 0.558312 18.1298 1.34095 16.293C2.12359 14.4562 3.23366 12.835 4.67116 11.4295L15.5003 0.791992L26.3295 11.4295C27.767 12.835 28.8771 14.4562 29.6597 16.293C30.4423 18.1298 30.8337 20.0545 30.8337 22.067C30.8337 26.2837 29.3403 29.8614 26.3535 32.8003C23.3666 35.7392 19.7489 37.2087 15.5003 37.2087ZM15.5003 33.3753C18.6948 33.3753 21.41 32.2812 23.6462 30.093C25.8823 27.9048 27.0003 25.2295 27.0003 22.067C27.0003 20.5656 26.7128 19.1361 26.1378 17.7785C25.5628 16.4208 24.7323 15.2309 23.6462 14.2087L15.5003 6.15866L7.35449 14.2087C6.26838 15.2309 5.43783 16.4208 4.86283 17.7785C4.28783 19.1361 4.00033 20.5656 4.00033 22.067C4.00033 25.2295 5.11838 27.9048 7.35449 30.093C9.5906 32.2812 12.3059 33.3753 15.5003 33.3753Z" fill="white"/>
</svg>
