<svg width="45" height="52" viewBox="0 0 45 52" fill="none" xmlns="http://www.w3.org/2000/svg">
<g clip-path="url(#clip0_5860_19880)">
<path d="M23.0445 0.941406C24.0113 1.7983 24.2461 2.82657 23.7002 4.20506C23.4264 4.8943 23.3146 5.50903 23.5829 6.25043C23.6891 6.54661 23.3836 7.26939 23.1265 7.34949C22.7763 7.45939 22.1113 7.27125 21.8989 6.97879C21.2097 6.03434 21.3401 4.9744 21.6977 3.89024C21.8654 3.38169 21.7145 2.77442 21.8151 2.23234C21.8952 1.78526 22.1336 1.36985 22.3031 0.941406C22.5509 0.941406 22.7986 0.941406 23.0464 0.941406H23.0445Z" fill="#A55199"/>
<path d="M29.8867 22.6692C33.2267 23.8745 34.7449 26.2458 34.5065 29.7908C36.4978 30.2006 38.0514 31.2196 39.0219 33.0209C39.9943 34.826 39.9813 36.6813 39.1803 38.5646C39.9515 38.8105 40.7059 38.9744 41.3952 39.2837C44.0106 40.4554 45.4412 43.2887 44.8824 46.0867C44.3217 48.8939 41.8274 51.0343 38.9568 51.0399C27.9811 51.0622 17.0035 51.0641 6.02779 51.0399C2.97464 51.0324 0.32199 48.5828 0.0332541 45.6321C-0.28715 42.3499 1.73587 39.5109 4.88775 38.8254C5.15786 38.7658 5.43169 38.7248 5.80611 38.654C5.07962 36.7987 4.96599 34.9694 5.87131 33.1792C6.7785 31.3816 8.26503 30.318 10.275 29.8224C10.2042 29.2729 10.1018 28.7346 10.0701 28.1925C9.8447 24.2787 12.1676 20.9312 16.2341 19.3236C17.0929 18.9846 17.9964 18.7555 18.8626 18.4295C21.0011 17.6247 22.1057 16.0395 22.13 13.7557C22.1355 13.1391 22.0592 12.5225 22.0387 11.904C21.9884 10.3355 23.2979 9.41904 24.641 10.2275C25.7364 10.8851 26.7013 11.7923 27.6178 12.6957C27.832 12.9081 27.7687 13.6495 27.5638 13.9792C27.2639 14.4617 26.7069 14.3946 26.271 14.0127C25.5855 13.4129 24.9149 12.7982 24.3094 12.2542C24.0691 13.6737 23.9946 15.0745 23.5755 16.3636C22.7987 18.7517 20.8781 19.9607 18.5608 20.6034C16.9327 21.0542 15.4126 21.7062 14.1571 22.8704C12.3818 24.5171 11.7522 26.5513 12.1453 28.9246C12.2384 29.4871 12.4657 29.7386 13.1102 29.7368C19.2948 29.7088 25.4774 29.7088 31.662 29.7368C32.3847 29.7405 32.5524 29.4666 32.5673 28.8277C32.6232 26.4936 30.8163 24.5525 28.4151 24.4985C26.2822 24.4501 24.1492 24.4929 22.0145 24.4724C21.6549 24.4687 21.193 24.4557 20.9676 24.2433C20.7291 24.0198 20.5279 23.4479 20.6546 23.2206C20.8372 22.8909 21.3234 22.5482 21.6941 22.5314C23.3613 22.4587 25.0359 22.4233 26.6994 22.5277C27.6215 22.5854 27.9829 22.1942 28.1804 21.4286C28.2661 21.0989 28.2679 20.6835 28.4747 20.4693C28.756 20.1768 29.2422 19.8303 29.5589 19.8974C29.8606 19.9607 30.2444 20.514 30.2611 20.866C30.2891 21.4267 30.0413 22.0005 29.8867 22.6711V22.6692ZM22.4541 49.1026C27.6793 49.1026 32.9063 49.1044 38.1315 49.0988C38.6252 49.0988 39.1263 49.0858 39.6087 49.0001C41.9149 48.5847 43.4219 46.3251 42.9469 44.0339C42.5259 42.0034 40.8531 40.6659 38.6624 40.664C31.8278 40.6547 24.995 40.6584 18.1603 40.664C17.4375 40.664 16.7408 40.6379 16.6551 39.7047C16.5918 39.0173 17.1246 38.682 18.192 38.6745C18.4081 38.6745 18.6241 38.6745 18.8421 38.6745C24.5311 38.6745 30.222 38.6596 35.9111 38.6913C36.6431 38.695 37.0343 38.4324 37.3454 37.8083C38.696 35.0905 36.8425 31.7765 33.8042 31.7505C26.2598 31.6834 18.7136 31.6908 11.1692 31.7486C8.48484 31.7691 6.61458 34.4534 7.32058 37.0371C7.68011 38.3541 8.03218 38.6373 9.43674 38.6727C10.1334 38.6894 10.7295 38.8999 10.7333 39.673C10.737 40.4479 10.1539 40.6733 9.44605 40.6659C8.27062 40.6528 7.09332 40.6249 5.92161 40.6789C3.1721 40.8019 1.29438 43.5514 2.14755 46.1593C2.76041 48.0314 4.30096 49.097 6.49722 49.1026C11.8156 49.1156 17.1357 49.1063 22.4541 49.1082V49.1026Z" fill="#A55199"/>
<path d="M35.8945 20.6831C36.0138 20.1596 36.0715 19.761 36.2 19.3865C36.4292 18.7197 36.6806 18.1031 36.4068 17.3412C36.3081 17.0692 36.6676 16.3986 36.9619 16.285C37.26 16.1695 37.8933 16.4042 38.1057 16.6892C38.6943 17.4846 38.6645 18.4142 38.2976 19.3288C38.0219 20.018 37.8021 20.6756 38.1541 21.458C38.2733 21.7244 37.9623 22.4695 37.7033 22.5533C37.355 22.667 36.703 22.4844 36.4757 22.1957C36.1386 21.7691 36.0566 21.1376 35.8983 20.6812L35.8945 20.6831Z" fill="#A55199"/>
<path d="M10.6592 14.1482C10.7989 13.5726 10.9442 13.1311 11.0075 12.6785C11.0876 12.0991 11.0448 11.4974 11.1677 10.9293C11.2609 10.5064 11.4416 9.94572 11.7582 9.77621C12.0041 9.64581 12.6841 9.91219 12.8871 10.2028C13.5018 11.0783 13.3901 12.0786 12.9933 13.0268C12.7344 13.6453 12.617 14.1948 12.9001 14.8803C13.025 15.1821 12.7362 15.9198 12.4456 16.0576C12.1513 16.1973 11.4621 15.9663 11.2329 15.672C10.8995 15.2436 10.8212 14.6139 10.661 14.1464L10.6592 14.1482Z" fill="#A55199"/>
<path d="M29.3002 15.6011C29.5479 15.9588 29.954 16.2959 30.0062 16.6797C30.0844 17.2627 29.6448 17.7396 29.0524 17.6055C28.6836 17.5217 28.1676 17.0373 28.1527 16.7151C28.1378 16.3518 28.6128 15.9662 28.8736 15.5918C29.0152 15.5955 29.1567 15.5974 29.3002 15.6011Z" fill="#A55199"/>
<path d="M13.4713 40.7863C13.2179 40.397 12.7504 39.9946 12.7764 39.6258C12.8007 39.2942 13.3316 38.7968 13.6985 38.7372C14.2667 38.6441 14.7249 39.1228 14.615 39.7152C14.5424 40.1045 14.1344 40.4342 13.8774 40.79C13.7414 40.79 13.6073 40.7882 13.4713 40.7863Z" fill="#A55199"/>
</g>
<defs>
<clipPath id="clip0_5860_19880">
<rect width="45" height="50.1171" fill="white" transform="translate(0 0.941406)"/>
</clipPath>
</defs>
</svg>
