<svg width="25" height="24" viewBox="0 0 25 24" fill="none" xmlns="http://www.w3.org/2000/svg">
<g clip-path="url(#clip0_6041_2361)">
<path d="M24.4999 12.2772C24.3671 12.7631 24.0333 13.1053 23.6868 13.4471C22.7029 14.4179 21.7292 15.3991 20.7527 16.3774C20.5269 16.6037 20.2758 16.7835 19.949 16.8201C19.4237 16.8793 18.9763 16.5713 18.7909 16.0315C18.5219 15.2498 17.7337 14.7855 16.8802 14.9057C16.0995 15.0155 15.4507 15.7146 15.4033 16.4967C15.3516 17.3431 15.7831 18.0102 16.5666 18.2952C17.329 18.5726 17.5694 19.3759 17.0806 20.0232C17.0102 20.1162 16.9271 20.2002 16.8445 20.2828C15.7901 21.3382 14.7357 22.3931 13.6799 23.447C12.9461 24.1798 12.0589 24.1812 11.3284 23.4498C10.3407 22.4607 9.35481 21.4701 8.34783 20.4598C7.66571 21.5663 6.70567 22.1752 5.40575 22.1419C4.47622 22.118 3.7035 21.7255 3.09602 21.0204C1.94022 19.6787 2.03693 17.3389 4.01944 16.1559C3.96076 16.093 3.90677 16.0305 3.84856 15.9723C2.91012 15.0329 1.97074 14.0954 1.03277 13.1556C0.322948 12.4439 0.322009 11.5486 1.03042 10.8388C2.10078 9.76656 3.17348 8.69667 4.24291 7.6235C4.46871 7.39675 4.71846 7.21507 5.04333 7.17329C5.57381 7.10475 6.02825 7.41881 6.21556 7.97277C6.47047 8.72672 7.24367 9.18725 8.0901 9.08914C8.86939 8.999 9.53743 8.30749 9.59799 7.5282C9.66512 6.66628 9.23604 5.99495 8.42388 5.69075C7.68214 5.41283 7.44319 4.63729 7.90607 3.99554C7.98306 3.8885 8.07695 3.79273 8.17037 3.69884C9.14121 2.72613 10.1186 1.75905 11.0838 0.780705C11.4153 0.445044 11.7495 0.126753 12.2204 0H12.7828C13.2616 0.1291 13.6001 0.455372 13.9362 0.796667C14.7798 1.65342 15.6347 2.49938 16.4858 3.34863C16.5431 3.4059 16.6046 3.45895 16.6656 3.51576C17.451 2.27827 18.5421 1.67126 19.9824 1.89379C21.2757 2.09377 22.1695 2.86744 22.5169 4.13121C22.955 5.72455 22.3437 6.94701 20.9846 7.83945C21.0438 7.90094 21.0959 7.95775 21.1499 8.01221C22.0001 8.86286 22.8456 9.71774 23.7028 10.5609C24.0446 10.897 24.3694 11.236 24.499 11.7143V12.2767L24.4999 12.2772ZM5.02267 8.83281C4.0002 9.85529 2.9965 10.8613 1.98999 11.8641C1.85525 11.9979 1.94257 12.0796 2.03599 12.173C2.84299 12.9786 3.64951 13.7846 4.4551 14.5916C4.764 14.901 5.08464 15.2005 5.37523 15.5263C5.9644 16.1864 5.72779 17.0535 4.89357 17.3417C4.80531 17.3722 4.71471 17.4009 4.63396 17.4464C3.97625 17.8163 3.62651 18.6285 3.79927 19.3749C3.9786 20.1505 4.65368 20.7035 5.46725 20.742C6.21133 20.7772 6.90707 20.2993 7.16151 19.5838C7.31127 19.1623 7.59294 18.8768 8.04644 18.8092C8.46942 18.7463 8.80179 18.9393 9.09098 19.2284C10.1623 20.2997 11.2373 21.3678 12.3035 22.4442C12.4546 22.5968 12.5476 22.5991 12.6997 22.4452C13.6386 21.4955 14.5864 20.5542 15.5305 19.6101C15.5737 19.5669 15.6122 19.5195 15.6544 19.4721C13.6578 18.3046 13.5696 15.87 14.793 14.5381C15.4038 13.8729 16.1563 13.5053 17.0628 13.4865C18.3594 13.4602 19.304 14.0705 19.9777 15.1573C20.0335 15.1043 20.0739 15.0677 20.1119 15.0296C21.0565 14.0856 21.9973 13.1377 22.9488 12.2002C23.1141 12.0373 23.0972 11.9397 22.9413 11.7852C21.9527 10.8078 20.972 9.82243 19.9894 8.83892C19.8626 8.71169 19.7312 8.58823 19.6143 8.45209C19.0467 7.79203 19.2819 6.9348 20.1049 6.65078C20.1856 6.62309 20.2692 6.59773 20.3443 6.55783C21.003 6.21043 21.3673 5.40203 21.2114 4.64339C21.0527 3.8716 20.3847 3.30732 19.5645 3.25192C18.8148 3.20122 18.0961 3.68241 17.844 4.4035C17.5647 5.20204 16.7257 5.44053 16.0718 4.90582C15.9812 4.83211 15.899 4.74761 15.8164 4.66498C14.7831 3.63265 13.747 2.60313 12.7208 1.56423C12.5574 1.39898 12.4593 1.38724 12.2894 1.56C11.3636 2.50079 10.4261 3.42985 9.49283 4.36312C9.44354 4.41242 9.398 4.46453 9.34636 4.51992C10.6524 5.35649 11.2585 6.52356 10.9251 8.05164C10.6453 9.33232 9.80267 10.1633 8.52012 10.428C7.01035 10.7397 5.85596 10.1341 5.02314 8.83141L5.02267 8.83281Z" fill="#A55199"/>
</g>
<defs>
<clipPath id="clip0_6041_2361">
<rect width="24" height="23.9972" fill="white" transform="translate(0.5)"/>
</clipPath>
</defs>
</svg>
