<svg width="32" height="30" viewBox="0 0 32 30" fill="none" xmlns="http://www.w3.org/2000/svg">
<path d="M11.8753 29.999L11.2753 25.199C10.9503 25.074 10.644 24.924 10.3565 24.749C10.069 24.574 9.78779 24.3865 9.51279 24.1865L5.05029 26.0615L0.925293 18.9365L4.78779 16.0115C4.76279 15.8365 4.75029 15.6678 4.75029 15.5053V14.4928C4.75029 14.3303 4.76279 14.1615 4.78779 13.9865L0.925293 11.0615L5.05029 3.93652L9.51279 5.81152C9.78779 5.61152 10.0753 5.42402 10.3753 5.24902C10.6753 5.07402 10.9753 4.92402 11.2753 4.79902L11.8753 -0.000976562H20.1253L20.7253 4.79902C21.0503 4.92402 21.3565 5.07402 21.644 5.24902C21.9315 5.42402 22.2128 5.61152 22.4878 5.81152L26.9503 3.93652L31.0753 11.0615L27.2128 13.9865C27.2378 14.1615 27.2503 14.3303 27.2503 14.4928V15.5053C27.2503 15.6678 27.2253 15.8365 27.1753 16.0115L31.0378 18.9365L26.9128 26.0615L22.4878 24.1865C22.2128 24.3865 21.9253 24.574 21.6253 24.749C21.3253 24.924 21.0253 25.074 20.7253 25.199L20.1253 29.999H11.8753ZM14.5003 26.999H17.4628L17.9878 23.024C18.7628 22.824 19.4815 22.5303 20.144 22.1428C20.8065 21.7553 21.4128 21.2865 21.9628 20.7365L25.6753 22.274L27.1378 19.724L23.9128 17.2865C24.0378 16.9365 24.1253 16.5678 24.1753 16.1803C24.2253 15.7928 24.2503 15.399 24.2503 14.999C24.2503 14.599 24.2253 14.2053 24.1753 13.8178C24.1253 13.4303 24.0378 13.0615 23.9128 12.7115L27.1378 10.274L25.6753 7.72402L21.9628 9.29902C21.4128 8.72402 20.8065 8.24277 20.144 7.85527C19.4815 7.46777 18.7628 7.17402 17.9878 6.97402L17.5003 2.99902H14.5378L14.0128 6.97402C13.2378 7.17402 12.519 7.46777 11.8565 7.85527C11.194 8.24277 10.5878 8.71152 10.0378 9.26152L6.32529 7.72402L4.86279 10.274L8.08779 12.674C7.96279 13.049 7.87529 13.424 7.82529 13.799C7.77529 14.174 7.75029 14.574 7.75029 14.999C7.75029 15.399 7.77529 15.7865 7.82529 16.1615C7.87529 16.5365 7.96279 16.9115 8.08779 17.2865L4.86279 19.724L6.32529 22.274L10.0378 20.699C10.5878 21.274 11.194 21.7553 11.8565 22.1428C12.519 22.5303 13.2378 22.824 14.0128 23.024L14.5003 26.999ZM16.0753 20.249C17.5253 20.249 18.7628 19.7365 19.7878 18.7115C20.8128 17.6865 21.3253 16.449 21.3253 14.999C21.3253 13.549 20.8128 12.3115 19.7878 11.2865C18.7628 10.2615 17.5253 9.74902 16.0753 9.74902C14.6003 9.74902 13.3565 10.2615 12.344 11.2865C11.3315 12.3115 10.8253 13.549 10.8253 14.999C10.8253 16.449 11.3315 17.6865 12.344 18.7115C13.3565 19.7365 14.6003 20.249 16.0753 20.249Z" fill="#434343"/>
</svg>
