<svg width="24" height="24" viewBox="0 0 24 24" fill="none" xmlns="http://www.w3.org/2000/svg">
<mask id="mask0_5811_7232" style="mask-type:alpha" maskUnits="userSpaceOnUse" x="0" y="0" width="24" height="24">
<rect width="24" height="24" fill="#D9D9D9"/>
</mask>
<g mask="url(#mask0_5811_7232)">
<path d="M17 22.6557C16.1667 22.6557 15.4583 22.3477 14.875 21.7317C14.2917 21.1157 14 20.3677 14 19.4877C14 19.3821 14.025 19.1358 14.075 18.7486L7.05 14.4191C6.78333 14.683 6.475 14.8898 6.125 15.0394C5.775 15.189 5.4 15.2638 5 15.2638C4.16667 15.2638 3.45833 14.9558 2.875 14.3399C2.29167 13.7239 2 12.9759 2 12.0959C2 11.2159 2.29167 10.4679 2.875 9.85195C3.45833 9.23597 4.16667 8.92797 5 8.92797C5.4 8.92797 5.775 9.00277 6.125 9.15237C6.475 9.30197 6.78333 9.50876 7.05 9.77276L14.075 5.44325C14.0417 5.32005 14.0208 5.20125 14.0125 5.08686C14.0042 4.97246 14 4.84486 14 4.70406C14 3.82408 14.2917 3.0761 14.875 2.46011C15.4583 1.84413 16.1667 1.53613 17 1.53613C17.8333 1.53613 18.5417 1.84413 19.125 2.46011C19.7083 3.0761 20 3.82408 20 4.70406C20 5.58405 19.7083 6.33203 19.125 6.94802C18.5417 7.564 17.8333 7.872 17 7.872C16.6 7.872 16.225 7.7972 15.875 7.6476C15.525 7.498 15.2167 7.29121 14.95 7.02721L7.925 11.3567C7.95833 11.4799 7.97917 11.5987 7.9875 11.7131C7.99583 11.8275 8 11.9551 8 12.0959C8 12.2367 7.99583 12.3643 7.9875 12.4787C7.97917 12.5931 7.95833 12.7119 7.925 12.8351L14.95 17.1646C15.2167 16.9006 15.525 16.6938 15.875 16.5442C16.225 16.3946 16.6 16.3198 17 16.3198C17.8333 16.3198 18.5417 16.6278 19.125 17.2438C19.7083 17.8598 20 18.6078 20 19.4877C20 20.3677 19.7083 21.1157 19.125 21.7317C18.5417 22.3477 17.8333 22.6557 17 22.6557ZM17 20.5437C17.2833 20.5437 17.5208 20.4425 17.7125 20.2401C17.9042 20.0377 18 19.7869 18 19.4877C18 19.1886 17.9042 18.9378 17.7125 18.7354C17.5208 18.533 17.2833 18.4318 17 18.4318C16.7167 18.4318 16.4792 18.533 16.2875 18.7354C16.0958 18.9378 16 19.1886 16 19.4877C16 19.7869 16.0958 20.0377 16.2875 20.2401C16.4792 20.4425 16.7167 20.5437 17 20.5437ZM5 13.1519C5.28333 13.1519 5.52083 13.0507 5.7125 12.8483C5.90417 12.6459 6 12.3951 6 12.0959C6 11.7967 5.90417 11.5459 5.7125 11.3435C5.52083 11.1411 5.28333 11.0399 5 11.0399C4.71667 11.0399 4.47917 11.1411 4.2875 11.3435C4.09583 11.5459 4 11.7967 4 12.0959C4 12.3951 4.09583 12.6459 4.2875 12.8483C4.47917 13.0507 4.71667 13.1519 5 13.1519ZM17 5.76004C17.2833 5.76004 17.5208 5.65884 17.7125 5.45645C17.9042 5.25405 18 5.00326 18 4.70406C18 4.40487 17.9042 4.15408 17.7125 3.95168C17.5208 3.74929 17.2833 3.64809 17 3.64809C16.7167 3.64809 16.4792 3.74929 16.2875 3.95168C16.0958 4.15408 16 4.40487 16 4.70406C16 5.00326 16.0958 5.25405 16.2875 5.45645C16.4792 5.65884 16.7167 5.76004 17 5.76004Z" fill="#434343"/>
</g>
</svg>
