<svg width="84" height="87" viewBox="0 0 84 87" fill="none" xmlns="http://www.w3.org/2000/svg">
<path d="M35.5792 7C37.0655 7.28297 38.5746 7.47733 40.0338 7.86462C49.1759 10.2856 56.193 18.293 57.2434 27.6838C57.5649 30.5521 57.4492 33.4718 57.4921 36.3686C57.5049 37.2976 56.8618 37.8978 56.0372 37.8792C55.2155 37.8607 54.671 37.2533 54.6567 36.3029C54.6224 33.9505 54.6967 31.5925 54.5538 29.2458C54.055 20.9983 48.4814 13.7441 40.6383 11.0159C28.2678 6.71417 15.0683 14.6987 13.079 27.6895C13.0675 27.7596 13.0547 27.831 13.0547 27.9025C13.0447 33.2689 13.0361 38.6367 13.0275 44.0031C14.2165 52.0562 18.5911 57.6684 26.0412 60.8739C28.3978 61.8872 30.9002 62.3259 33.4712 62.3517C34.5588 62.3631 35.2419 63.0305 35.1404 63.938C35.0533 64.7226 34.4487 65.2099 33.5212 65.1999C28.2906 65.1456 23.5859 63.5278 19.4114 60.3852C16.7747 58.4015 14.6639 55.9477 13.0332 53.0809C12.9761 53.1066 12.9075 53.1223 12.906 53.1409C12.5759 58.3601 13.3519 63.3063 16.3045 67.7809C20.9906 74.8837 29.5297 78.4365 38.0259 76.7416C46.2062 75.1095 52.8202 68.3397 54.2694 60.045C54.5095 58.6717 54.5952 57.2611 54.6352 55.8648C54.6952 53.7269 54.6409 51.586 54.6581 49.4466C54.6652 48.5477 55.2312 47.9575 56.0301 47.9389C56.8232 47.9189 57.4921 48.4991 57.482 49.3766C57.442 53.078 57.725 56.7895 57.1191 60.4766C55.5727 69.8946 47.6682 77.9135 38.2302 79.5998C25.3509 81.9007 13.4391 74.0377 10.5608 61.2741C10.2193 59.7564 10.0578 58.1686 10.0492 56.6123C10.0035 47.7702 9.96631 38.9268 10.0492 30.0847C10.1435 20.4224 16.6847 11.4632 25.8582 8.38912C27.6875 7.77602 29.6412 7.53164 31.5376 7.11719C31.6977 7.08146 31.8563 7.04002 32.0149 7C33.204 7 34.3916 7 35.5806 7H35.5792Z" fill="white"/>
<path d="M73.0926 7C74.2674 7.7017 74.4246 8.40626 73.6643 9.57672C72.4367 11.4646 71.2076 13.3511 69.8871 15.3804C70.5259 15.3804 71.0333 15.3804 71.5406 15.3804C71.9679 15.3804 72.3967 15.369 72.824 15.389C73.6471 15.4276 74.1974 15.9406 74.246 16.6909C74.2974 17.4798 73.7858 18.1744 72.964 18.1972C71.0175 18.2501 69.0668 18.2773 67.1217 18.1915C65.9684 18.1415 65.4911 16.9253 66.1485 15.8963C67.2732 14.1357 68.4251 12.3921 69.5655 10.6414C69.707 10.4256 69.8414 10.2055 70.0629 9.85397C69.2897 9.85397 68.6209 9.85397 67.9521 9.85397C66.8502 9.85397 66.3329 9.58387 66.0928 8.88788C65.8498 8.18332 66.0899 7.66312 66.9588 7.00143H73.0926V7Z" fill="white"/>
<path d="M33.76 50.167C25.8584 50.1842 19.06 44.1447 18.1496 36.3302C18.1196 36.0772 17.8567 35.7614 17.6166 35.6385C16.1288 34.8753 15.2714 33.6977 15.2657 32.0199C15.2599 30.3164 16.1088 29.1102 17.6423 28.3528C17.8781 28.237 18.1225 27.9012 18.1511 27.6425C18.9514 20.6069 24.7537 14.7775 31.7907 13.97C40.4884 12.9739 48.0471 18.8019 49.3018 27.4896C49.3733 27.9855 49.5576 28.2399 50.0264 28.4671C51.477 29.1717 52.2473 30.3922 52.2458 32.0028C52.2458 33.5834 51.5013 34.8039 50.0778 35.4956C49.5462 35.7528 49.3633 36.0587 49.2904 36.596C48.2414 44.3505 41.5945 50.1513 33.7586 50.167H33.76ZM29.0468 17.6129C29.011 17.6243 28.921 17.6486 28.8352 17.6815C28.658 17.7515 28.478 17.8144 28.3093 17.9001C23.739 20.2353 21.2451 23.9511 20.9121 29.0845C20.8278 30.3979 20.5306 30.7623 19.2343 30.9009C18.7141 30.9567 18.3197 31.1539 18.1639 31.6812C17.9424 32.4272 18.4398 33.0403 19.3044 33.1018C20.4248 33.1818 20.8507 33.6377 20.9036 34.7624C20.9322 35.3555 20.9679 35.9515 21.0651 36.536C22.1355 42.9571 28.0035 47.7132 34.3174 47.2902C41.1772 46.83 46.3421 41.618 46.5793 34.9111C46.6251 33.6277 47.0109 33.2133 48.2643 33.1004C48.9303 33.0403 49.3733 32.6288 49.4019 32.0442C49.4305 31.4397 48.9874 30.991 48.2814 30.9081C46.9852 30.7552 46.6265 30.3736 46.5808 29.1017C46.3707 23.3008 42.3677 18.3789 36.7283 17.0484C35.8337 16.8369 34.8991 16.7611 33.9787 16.7097C32.9912 16.6554 32.2637 17.2113 32.0508 18.0573C31.8507 18.8519 32.2566 19.7223 32.9997 20.0938C33.8029 20.4969 34.6232 20.2839 35.2778 19.5036C35.9452 18.709 36.7741 18.5547 37.44 19.1006C38.0917 19.6351 38.1346 20.4597 37.5215 21.2586C36.4139 22.702 34.9233 23.3323 33.1412 23.0807C31.3562 22.8292 30.0672 21.8102 29.4655 20.101C29.1968 19.3378 29.184 18.4846 29.0453 17.6129H29.0468Z" fill="white"/>
<path d="M62.2115 19.2281C62.9046 19.2281 63.4249 19.2052 63.9422 19.2338C64.7196 19.2766 65.247 19.7926 65.3013 20.5214C65.3585 21.2846 64.884 21.9763 64.0951 22.0106C62.5331 22.0792 60.9625 22.1063 59.4033 22.0134C58.3 21.9477 57.8155 20.7929 58.4143 19.8254C59.1375 18.655 59.9106 17.5174 60.6595 16.3641C60.7995 16.1483 60.931 15.9268 61.1497 15.5752C60.608 15.5752 60.1736 15.5895 59.7406 15.5723C58.9117 15.5409 58.3157 14.9764 58.2828 14.2132C58.2485 13.4401 58.8574 12.7627 59.7063 12.7398C61.0582 12.7026 62.413 12.6955 63.7636 12.7384C64.9855 12.777 65.5957 13.9288 64.954 14.9735C64.2352 16.1454 63.4606 17.283 62.7103 18.4363C62.5702 18.6507 62.4359 18.8693 62.2087 19.2281H62.2115Z" fill="white"/>
<path d="M54.6641 42.9465C54.6612 42.1534 55.2572 41.5345 56.0418 41.5188C56.8349 41.5031 57.508 42.1734 57.4923 42.9622C57.478 43.7168 56.8149 44.3657 56.0603 44.3614C55.29 44.3571 54.6684 43.7268 54.6641 42.9451V42.9465Z" fill="white"/>
<path d="M39.1834 38.868C39.2005 41.8678 36.7767 44.323 33.7798 44.343C30.8015 44.3631 28.3205 41.9049 28.3077 38.9252C28.2948 35.9283 30.7143 33.4888 33.7241 33.4631C36.7252 33.4388 39.1662 35.854 39.1834 38.868ZM33.7827 36.3156C32.3578 36.2999 31.1759 37.4489 31.1616 38.868C31.1473 40.2829 32.3049 41.4691 33.7226 41.4905C35.1403 41.5119 36.3165 40.3572 36.3294 38.9266C36.3437 37.4832 35.2204 36.3313 33.7812 36.3156H33.7827Z" fill="white"/>
<path d="M27.3671 31.8158C26.441 31.7915 25.3749 31.3885 24.4674 30.5854C23.7685 29.9665 23.6585 29.1376 24.173 28.5031C24.7017 27.8514 25.4935 27.8014 26.2581 28.3702C27.3571 29.1877 28.0402 29.1834 29.1463 28.3545C29.8709 27.8114 30.6512 27.8529 31.1857 28.4645C31.7316 29.0891 31.6445 29.9094 30.9613 30.551C30.101 31.3599 28.8791 31.8273 27.3656 31.8158H27.3671Z" fill="white"/>
<path d="M39.4998 31.8166C38.5437 31.798 37.4375 31.3736 36.51 30.5147C35.8741 29.9259 35.8012 29.0798 36.3099 28.4782C36.8344 27.8579 37.6162 27.8079 38.345 28.3453C39.4983 29.197 40.1314 29.1956 41.2876 28.3353C42.0022 27.8036 42.7982 27.8636 43.3213 28.4896C43.8343 29.1027 43.7486 29.9059 43.1069 30.5233C42.2666 31.3307 41.0218 31.8195 39.4998 31.8166Z" fill="white"/>
</svg>
