<svg width="32" height="37" viewBox="0 0 32 37" fill="none" xmlns="http://www.w3.org/2000/svg">
<path d="M10.8754 36.2139C10.2513 36.0688 9.61036 35.9744 9.00671 35.7694C7.34721 35.2066 6.0568 34.1226 4.977 32.7709C3.5098 30.9346 2.5589 28.8271 1.82776 26.6161C0.950815 23.9656 0.32956 21.2502 0.0471071 18.4722C-0.186744 16.1675 0.457755 14.0621 1.80944 12.1913C3.2527 10.193 5.21226 8.97513 7.63741 8.53771C8.6341 8.3581 9.64205 8.36444 10.6444 8.54194C10.7571 8.56166 10.8705 8.57645 10.9684 8.59124C10.7599 7.9559 10.5042 7.35014 10.3654 6.71832C9.9238 4.71016 10.2203 2.75975 10.9557 0.867813C11.1874 0.271915 11.851 0.0429945 12.4236 0.3501C14.8826 1.6708 16.8189 3.44863 17.512 6.28725C17.5169 6.30767 17.5395 6.32387 17.5852 6.38234C17.7761 6.18018 17.9586 5.97732 18.1509 5.78362C19.3765 4.54815 20.7817 3.57189 22.3813 2.88232C22.8927 2.66185 23.4012 2.78793 23.7076 3.18731C24.0014 3.57119 24.0133 4.11849 23.6992 4.48828C23.5682 4.64254 23.3829 4.76933 23.1977 4.85526C21.6121 5.58921 20.2175 6.57956 19.1123 7.939C18.6622 8.49263 18.2974 9.1167 17.9621 9.73937C18.5763 9.46537 19.1771 9.15545 19.8075 8.92441C23.3097 7.63964 27.4683 8.85397 29.7695 11.7933C31.2113 13.6352 31.9608 15.7153 31.8544 18.0488C31.8037 19.1646 31.5945 20.2796 31.3839 21.3812C30.8669 24.0867 30.1738 26.7443 29.0116 29.2561C28.0888 31.2516 26.9449 33.0893 25.191 34.4783C23.9978 35.4229 22.6539 36.0082 21.1311 36.161C21.0627 36.1681 20.9965 36.1956 20.9289 36.2139H19.5934C19.5624 36.1984 19.5321 36.1716 19.5004 36.1688C18.2558 36.0589 17.1035 35.6933 16.0701 34.9714C16.0011 34.9235 15.8377 34.9629 15.7412 35.0094C15.2397 35.2545 14.7664 35.5736 14.2444 35.7553C13.6344 35.968 12.9843 36.0659 12.3518 36.2139H10.8754ZM20.6176 34.062C22.1313 34.0726 23.5893 33.2464 24.8022 31.9214C26.1863 30.4084 27.0478 28.5947 27.7486 26.695C28.6474 24.2586 29.163 21.7278 29.5948 19.1758C29.9737 16.938 29.4997 14.9228 28.0938 13.1358C26.373 10.9488 23.3977 10.0422 20.7352 10.8635C19.7885 11.1559 19.001 11.7201 18.1783 12.2343C17.381 12.7322 16.4998 12.9154 15.5588 12.8421C14.5874 12.7661 13.7739 12.3371 13.0005 11.7842C11.9658 11.0453 10.8029 10.6339 9.53569 10.5691C5.86874 10.3818 2.66878 13.1013 2.21094 16.7465C2.06795 17.8833 2.23911 18.9849 2.43774 20.0943C2.90404 22.7019 3.49712 25.2743 4.52973 27.7255C5.26227 29.4639 6.16035 31.0973 7.5543 32.4103C9.79701 34.5227 12.8575 34.6199 15.1981 32.6512C15.6778 32.2476 16.2089 32.2518 16.6907 32.6638C16.9217 32.8618 17.1373 33.0808 17.3852 33.2548C18.253 33.8641 19.244 34.0479 20.6183 34.0634L20.6176 34.062ZM12.5786 2.95839C11.665 5.49553 13.0498 9.0843 15.2982 10.0514C16.0039 7.33253 15.3707 4.84681 12.5786 2.95839Z" fill="#A55199"/>
</svg>
