<svg width="44" height="43" viewBox="0 0 44 43" fill="none" xmlns="http://www.w3.org/2000/svg">
<path fill-rule="evenodd" clip-rule="evenodd" d="M17.5611 16.0056C17.3801 16.4392 16.9719 16.7352 16.5036 16.7726L7.99451 17.4521C6.88113 17.541 6.43062 18.9313 7.28027 19.6563L13.7561 25.1821C14.1148 25.4882 14.2715 25.9696 14.1617 26.4282L12.182 34.6955C11.9223 35.7799 13.101 36.6386 14.0536 36.059L21.3482 31.6208C21.7486 31.3771 22.2515 31.3771 22.652 31.6208L29.9466 36.059C30.8992 36.6386 32.0778 35.7799 31.8181 34.6955L29.8384 26.4282C29.7286 25.9696 29.8853 25.4882 30.244 25.1821L36.7199 19.6563C37.5695 18.9313 37.119 17.541 36.0056 17.4521L27.4965 16.7726C27.0282 16.7352 26.62 16.4392 26.439 16.0056L23.1574 8.14626C22.7282 7.11835 21.2719 7.11835 20.8427 8.14626L17.5611 16.0056ZM29.1982 13.3137L26.4641 6.76558C24.8086 2.80078 19.1915 2.80081 17.5361 6.76559L14.8019 13.3137L7.70925 13.8801C3.41477 14.2231 1.67712 19.5858 4.95434 22.3822L10.3446 26.9816L8.69718 33.861C7.69557 38.0438 12.2418 41.3558 15.9161 39.1203L22.0001 35.4186L28.084 39.1203C31.7583 41.3558 36.3046 38.0437 35.3029 33.861L33.6556 26.9816L39.0458 22.3822C42.323 19.5858 40.5853 14.2231 36.2909 13.8801L29.1982 13.3137Z" fill="#DFDFDF"/>
</svg>
