<svg width="44" height="43" viewBox="0 0 44 43" fill="none" xmlns="http://www.w3.org/2000/svg">
<path d="M20.6052 5.60327C21.2276 4.16089 23.2728 4.16089 23.8952 5.60327L27.8011 14.6546C28.0647 15.2653 28.6449 15.6798 29.3081 15.731L39.3247 16.505C40.9318 16.6292 41.5704 18.6467 40.3274 19.673L32.7945 25.8923C32.2632 26.331 32.0305 27.0355 32.196 27.7044L34.5143 37.0718C34.8956 38.6123 33.2338 39.8513 31.8662 39.0462L23.1592 33.9203C22.5982 33.5901 21.9022 33.5901 21.3412 33.9203L12.6342 39.0462C11.2666 39.8513 9.60482 38.6123 9.98607 37.0718L12.3044 27.7044C12.4699 27.0355 12.2372 26.331 11.7059 25.8923L4.17303 19.673C2.93004 18.6467 3.5686 16.6292 5.1757 16.505L15.1923 15.731C15.8555 15.6798 16.4357 15.2653 16.6993 14.6546L20.6052 5.60327Z" fill="#3FB7B7"/>
</svg>
