<svg width="19" height="24" viewBox="0 0 19 24" fill="none" xmlns="http://www.w3.org/2000/svg">
<path d="M13.5195 4.02026C13.5195 2.95343 13.0962 1.93142 12.3421 1.17741C11.589 0.424255 10.566 0 9.49999 0C8.434 0 7.41115 0.424255 6.65788 1.17741C5.90377 1.93152 5.48047 2.95353 5.48047 4.02026C5.48047 5.08613 5.90377 6.10815 6.65788 6.86237C7.41103 7.61648 8.434 8.03978 9.49999 8.03978C10.5659 8.03883 11.5869 7.61458 12.3411 6.86142C13.0943 6.10732 13.5186 5.08528 13.5195 4.02026ZM6.7011 4.02026C6.7011 2.88766 7.38277 1.8666 8.42861 1.43368C9.47542 0.999902 10.6795 1.24014 11.4794 2.04003C12.2802 2.84085 12.5195 4.04496 12.0867 5.09082C11.6529 6.13763 10.6328 6.81927 9.50012 6.81927C7.95471 6.81736 6.70306 5.56574 6.7011 4.02026Z" fill="#A55199"/>
<path d="M2.46429 9.7292C0.96655 10.6378 0.0475052 12.2575 0.0332031 14.0098C0.0332031 20.2744 8.06825 23.9993 9.49919 23.9993C10.9293 23.9993 18.9652 20.2725 18.9652 14.0071V14.0062C18.9614 12.62 18.3779 11.2976 17.3549 10.3613C16.3119 9.39464 14.941 8.8617 13.5185 8.87122C12.0084 8.86169 10.5592 9.46327 9.49902 10.5387C8.58854 9.63201 7.39874 9.05903 6.12216 8.9122C4.84559 8.76538 3.55672 9.05325 2.46429 9.7292ZM9.0025 11.8447C9.12358 11.9963 9.30568 12.084 9.49922 12.084C9.69276 12.084 9.87486 11.9963 9.99594 11.8447C10.8196 10.7283 12.1296 10.0762 13.5178 10.0934C14.6294 10.0839 15.7038 10.4986 16.52 11.2536C17.2941 11.961 17.7365 12.9592 17.7403 14.0079C17.7451 19.3419 10.5653 22.779 9.49927 22.779C8.4332 22.779 1.25359 19.3441 1.25359 14.0089C1.2698 12.678 1.97243 11.4501 3.11267 10.7636C3.82197 10.3212 4.64187 10.0876 5.47798 10.0905C6.86609 10.0743 8.17781 10.7264 9.0025 11.8428V11.8447Z" fill="#A55199"/>
</svg>
