<svg width="42" height="42" viewBox="0 0 42 42" fill="none" xmlns="http://www.w3.org/2000/svg">
<rect x="0.5" y="0.5" width="41" height="41" rx="20.5" fill="white"/>
<rect x="0.5" y="0.5" width="41" height="41" rx="20.5" stroke="#DFDFDF"/>
<g clip-path="url(#clip0_5811_7598)">
<path d="M20.9993 7.66699C17.4639 7.66699 14.0702 9.07262 11.5723 11.5722C9.07179 14.0728 7.66673 17.464 7.66602 21.0003C7.66602 24.5351 9.07227 27.9289 11.5723 30.4285C14.0702 32.928 17.4639 34.3337 20.9993 34.3337C24.5348 34.3337 27.9285 32.928 30.4264 30.4285C32.9264 27.9289 34.3327 24.5351 34.3327 21.0003C34.3327 17.4655 32.9264 14.0718 30.4264 11.5722C27.9285 9.07262 24.5348 7.66699 20.9993 7.66699Z" fill="url(#paint0_linear_5811_7598)"/>
<path d="M13.7018 20.8584C17.5893 19.1651 20.1809 18.0487 21.4768 17.5092C25.1809 15.969 25.9497 15.7015 26.4518 15.6925C26.5622 15.6907 26.808 15.718 26.9684 15.8477C27.1018 15.957 27.1393 16.105 27.158 16.2088C27.1747 16.3126 27.1976 16.549 27.1789 16.7336C26.9789 18.8419 26.1101 23.9582 25.6684 26.3196C25.483 27.3188 25.1143 27.6538 24.758 27.6865C23.983 27.7578 23.3955 27.1749 22.6455 26.6834C21.4726 25.914 20.8101 25.4353 19.6705 24.6846C18.3539 23.8171 19.208 23.3403 19.958 22.5611C20.1539 22.3571 23.5664 19.254 23.6309 18.9726C23.6393 18.9374 23.6476 18.8061 23.5684 18.7369C23.4914 18.6676 23.3768 18.6913 23.2934 18.7101C23.1747 18.7367 21.3018 19.9759 17.6684 22.4274C17.1372 22.7928 16.6559 22.9709 16.2226 22.9615C15.7476 22.9513 14.8309 22.6924 14.1497 22.4711C13.3164 22.1996 12.6518 22.0561 12.7101 21.5951C12.7393 21.3551 13.0705 21.1094 13.7018 20.8584Z" fill="white"/>
</g>
<defs>
<linearGradient id="paint0_linear_5811_7598" x1="1341" y1="7.66699" x2="1341" y2="2674.33" gradientUnits="userSpaceOnUse">
<stop stop-color="#2AABEE"/>
<stop offset="1" stop-color="#229ED9"/>
</linearGradient>
<clipPath id="clip0_5811_7598">
<rect width="26.6667" height="26.6667" fill="white" transform="translate(7.6665 7.66699)"/>
</clipPath>
</defs>
</svg>
