<svg width="45" height="46" viewBox="0 0 45 46" fill="none" xmlns="http://www.w3.org/2000/svg">
<path d="M0.000880247 14.7368C0.0871445 14.3846 0.159325 14.0288 0.263194 13.681C0.789582 11.9145 1.86788 10.6173 3.55532 9.84591C3.62134 9.81596 3.68648 9.78338 3.75161 9.7508C3.76394 9.74464 3.77186 9.72967 3.80971 9.69004C3.42064 7.83988 3.77802 6.11565 4.91354 4.56665C5.72953 3.45356 6.81311 2.73147 8.13789 2.33871C10.8279 1.54088 14.2521 2.78078 15.5874 6.0267C15.6834 6.0223 15.7846 6.0135 15.8849 6.01438C16.2362 6.0179 16.3911 5.8999 16.4597 5.49922C16.9509 2.61963 19.5547 0.502644 22.5528 0.500002C25.4532 0.497361 28.0596 2.65309 28.5297 5.51859C28.6353 6.1632 29.0499 5.94569 29.3985 6.04608C29.4407 5.97211 29.4821 5.91399 29.5103 5.85058C30.674 3.23693 33.313 1.77336 36.1456 2.17228C38.7511 2.53949 40.8989 4.73133 41.2686 7.47443C41.3531 8.10142 41.2607 8.75571 41.2149 9.39503C41.1982 9.62575 41.2061 9.74904 41.4491 9.86352C45.4903 11.7753 46.2411 17.1814 42.8812 20.1164C42.8275 20.1631 42.7765 20.2142 42.7316 20.2565C42.743 20.3023 42.7404 20.3366 42.7571 20.3533C45.0475 22.6869 44.8556 25.9126 42.883 28.3149C42.1471 29.2114 41.2449 29.8965 40.2335 30.4513C37.6543 31.8673 35.0999 33.3229 32.7285 35.0745C31.2646 36.155 29.8597 37.3033 28.7454 38.7625C28.1899 39.489 27.7929 40.2595 27.6512 41.2044C27.315 43.4473 25.5941 45.0808 23.3582 45.4234C23.2737 45.4366 23.1936 45.4745 23.1118 45.5H21.8812C21.7694 45.4709 21.6594 45.4322 21.5467 45.4128C19.3452 45.0289 17.6622 43.4033 17.34 41.2026C17.2018 40.2569 16.7995 39.4872 16.2458 38.7598C15.1878 37.3711 13.8604 36.2659 12.474 35.2277C10.0199 33.3881 7.35887 31.8787 4.68027 30.4011C3.52099 29.7618 2.52631 28.941 1.76049 27.8552C0.130277 25.541 0.179571 22.7838 1.88725 20.7417C2.01489 20.5885 2.14956 20.4405 2.29568 20.2741C1.24291 19.434 0.552795 18.3887 0.211259 17.1197C0.132037 16.8256 0.0695395 16.528 0 16.2312C0 15.7328 0 15.2352 0 14.7368H0.000880247ZM9.73025 20.9293C9.74874 22.0335 10.342 23.2532 11.2452 24.3671C12.5629 25.9928 13.9193 27.5937 15.1306 29.2968C17.5037 32.6334 18.9799 36.2976 19.0028 40.4779C19.0125 42.3281 20.6788 43.7837 22.5625 43.7564C24.4339 43.7291 25.9884 42.2268 26.0016 40.3458C26.0245 37.0506 26.9981 34.045 28.6292 31.2165C30.0411 28.7676 31.813 26.5889 33.6571 24.4631C34.3279 23.6891 34.8331 22.8252 35.1025 21.831C35.65 19.8118 34.9361 17.9915 33.2241 17.103C32.864 16.9163 32.4697 16.7895 32.0815 16.6627C31.35 16.4232 31.137 15.7372 31.6255 15.1498C31.6907 15.0714 31.762 14.9966 31.8262 14.9165C32.9679 13.5145 33.1519 11.6529 32.3077 10.059C31.4891 8.51443 29.8113 7.58098 28.1397 7.74213C27.2313 7.82931 26.8986 7.53079 26.8889 6.62112C26.8616 4.11666 24.7983 2.15995 22.2993 2.26915C19.9358 2.37218 18.1296 4.26637 18.1049 6.66515C18.097 7.46562 17.7097 7.84164 16.9852 7.75358C15.2987 7.5484 13.5373 8.47392 12.7372 9.98592C11.7962 11.763 12.0075 13.5612 13.3401 15.1155C13.8718 15.7363 13.6579 16.4399 12.8683 16.6689C12.672 16.7261 12.474 16.7807 12.283 16.8529C10.6545 17.4693 9.72233 18.8316 9.73113 20.9301L9.73025 20.9293ZM28.3008 36.4491C29.3263 35.5949 30.3175 34.7046 31.3747 33.9006C33.9089 31.9739 36.6913 30.4389 39.443 28.8539C40.1912 28.4232 40.913 27.8658 41.4817 27.2203C43.3029 25.1535 42.9974 22.6376 40.8091 21.005C40.0697 20.4528 40.1225 19.7765 40.9403 19.3177C42.589 18.3949 43.442 16.7499 43.2193 14.9226C42.9957 13.0892 41.8214 11.7278 40.0116 11.2091C39.2326 10.9854 39.0266 10.5592 39.2916 9.78074C39.9042 7.97901 39.5205 6.37014 38.1702 5.07124C36.8471 3.79788 35.246 3.53458 33.533 4.20296C32.4125 4.63975 31.5974 5.41996 31.1255 6.56916C32.7549 7.40134 33.7962 8.68879 34.3015 10.3989C34.8094 12.1205 34.6307 13.7787 33.7003 15.3462C33.798 15.4025 33.8587 15.4395 33.9212 15.4739C36.312 16.7649 37.3911 19.0007 36.9255 21.676C36.6376 23.3333 35.775 24.6745 34.7205 25.9478C33.4608 27.4678 32.2311 29.0185 31.0851 30.6248C29.8219 32.3939 28.8765 34.34 28.2999 36.4491H28.3008ZM11.2856 15.3312C10.3587 13.7761 10.1853 12.1293 10.6818 10.4209C11.1835 8.69583 12.2337 7.39605 13.8639 6.56916C13.8032 6.43443 13.7618 6.32787 13.7099 6.2266C12.6624 4.18623 10.1704 3.31707 8.02873 4.24523C5.97864 5.13377 4.91354 7.60123 5.66615 9.71734C5.98304 10.6085 5.79643 10.9423 4.87833 11.2337C3.16097 11.7788 2.09235 12.9448 1.80451 14.7218C1.52459 16.4505 2.10115 17.8956 3.51131 18.9708C3.75425 19.1557 4.03945 19.2843 4.29209 19.4578C4.79031 19.8012 4.82816 20.4511 4.37923 20.8526C4.25952 20.9592 4.12044 21.0446 3.9928 21.1415C2.33353 22.4096 1.88285 24.3187 2.80975 26.1856C3.41184 27.3982 4.38451 28.2321 5.55348 28.8776C8.57625 30.549 11.5788 32.2574 14.2935 34.4131C15.1138 35.0639 15.8823 35.779 16.6895 36.4773C16.671 36.4016 16.656 36.332 16.6376 36.2642C16.2045 34.7187 15.5302 33.2789 14.7239 31.8964C13.3525 29.5442 11.6122 27.4695 9.84292 25.4168C9.07711 24.5283 8.53048 23.5182 8.22503 22.384C7.45305 19.5194 8.4715 16.705 11.129 15.4413C11.1783 15.4175 11.2196 15.377 11.2865 15.3286L11.2856 15.3312Z" fill="#A55199"/>
<path d="M23.3756 25.9304C23.7911 25.5817 24.1344 25.2955 24.4751 25.0057C26.0481 23.669 27.6184 22.3296 29.1941 20.9963C29.584 20.6661 29.9608 20.6362 30.3199 20.8748C30.6438 21.0906 30.8155 21.515 30.6509 21.8769C30.547 22.105 30.3542 22.3093 30.1597 22.4757C28.0348 24.2933 25.9063 26.1074 23.7665 27.9065C23.4848 28.1433 23.3651 28.3758 23.3668 28.7527C23.3827 32.4575 23.3765 36.1622 23.3765 39.8678C23.3765 40.014 23.3844 40.1619 23.3695 40.3072C23.3184 40.8003 22.9734 41.1138 22.4954 41.1138C22.0174 41.1138 21.6697 40.7977 21.6275 40.3037C21.6063 40.0562 21.6195 39.8061 21.6195 39.5569C21.6195 35.9403 21.616 32.3227 21.6248 28.7061C21.6248 28.3908 21.55 28.1751 21.2947 27.9602C19.1311 26.1426 16.9833 24.3074 14.8311 22.4766C14.7202 22.3815 14.6048 22.2882 14.5089 22.179C14.2246 21.8558 14.2167 21.3759 14.4816 21.05C14.765 20.7013 15.2351 20.6203 15.6259 20.8678C15.7729 20.9611 15.9041 21.0817 16.0379 21.1953C17.8679 22.7487 19.6971 24.3039 21.5773 25.9013C21.5949 25.7481 21.6169 25.6442 21.6169 25.5411C21.6187 22.9636 21.6239 20.3861 21.6072 17.8094C21.6063 17.6254 21.4866 17.3911 21.3449 17.2678C19.9744 16.0781 18.5827 14.9122 17.2095 13.7251C17.0308 13.571 16.8627 13.3526 16.7967 13.1325C16.6805 12.745 16.8336 12.4033 17.1901 12.1964C17.5616 11.9798 17.9269 12.0423 18.2482 12.3135C19.1099 13.04 19.9655 13.7736 20.8247 14.5036C21.065 14.7079 21.307 14.9104 21.6187 15.1737C21.6187 14.9219 21.6187 14.7669 21.6187 14.6119C21.6187 12.1515 21.6187 9.69107 21.6187 7.23153C21.6187 7.09944 21.6116 6.96734 21.6257 6.83613C21.6768 6.34475 22.0227 6.0295 22.5007 6.03126C22.9769 6.03302 23.3255 6.34828 23.3677 6.84318C23.3897 7.10472 23.3765 7.36978 23.3765 7.63397C23.3765 9.9623 23.3765 12.2906 23.3765 14.619C23.3765 14.7731 23.3765 14.9272 23.3765 15.1781C24.2735 14.4164 25.0947 13.7199 25.916 13.0224C26.1836 12.7952 26.4459 12.561 26.7188 12.3399C27.1818 11.9648 27.7126 11.9921 28.0409 12.3998C28.3552 12.7891 28.29 13.306 27.8526 13.6802C26.4741 14.8611 25.0921 16.0394 23.7004 17.2044C23.4663 17.3999 23.3677 17.5963 23.3686 17.9063C23.3818 20.4107 23.3756 22.9143 23.3756 25.4187V25.9339V25.9304Z" fill="#A55199"/>
</svg>
