<svg width="19" height="18" viewBox="0 0 19 18" fill="none" xmlns="http://www.w3.org/2000/svg">
<mask id="mask0_5854_15787" style="mask-type:alpha" maskUnits="userSpaceOnUse" x="0" y="0" width="19" height="18">
<rect x="0.290039" width="18" height="18" fill="#D9D9D9"/>
</mask>
<g mask="url(#mask0_5854_15787)">
<path d="M9.29004 16.499C8.35254 16.499 7.47441 16.3209 6.65566 15.9647C5.83691 15.6084 5.12441 15.1272 4.51816 14.5209C3.91191 13.9147 3.43066 13.2022 3.07441 12.3834C2.71816 11.5646 2.54004 10.6865 2.54004 9.74902C2.54004 8.81152 2.71816 7.9334 3.07441 7.11465C3.43066 6.2959 3.91191 5.5834 4.51816 4.97715C5.12441 4.3709 5.83691 3.88965 6.65566 3.5334C7.47441 3.17715 8.35254 2.99902 9.29004 2.99902C10.2275 2.99902 11.1057 3.17715 11.9244 3.5334C12.7432 3.88965 13.4557 4.3709 14.0619 4.97715C14.6682 5.5834 15.1494 6.2959 15.5057 7.11465C15.8619 7.9334 16.04 8.81152 16.04 9.74902C16.04 10.6865 15.8619 11.5646 15.5057 12.3834C15.1494 13.2022 14.6682 13.9147 14.0619 14.5209C13.4557 15.1272 12.7432 15.6084 11.9244 15.9647C11.1057 16.3209 10.2275 16.499 9.29004 16.499ZM11.39 12.899L12.44 11.849L10.04 9.44902V5.99902H8.54004V10.049L11.39 12.899ZM9.29004 14.999C10.7525 14.999 11.9932 14.4896 13.0119 13.4709C14.0307 12.4521 14.54 11.2115 14.54 9.74902C14.54 8.28652 14.0307 7.0459 13.0119 6.02715C11.9932 5.0084 10.7525 4.49902 9.29004 4.49902C7.82754 4.49902 6.58691 5.0084 5.56816 6.02715C4.54941 7.0459 4.04004 8.28652 4.04004 9.74902C4.04004 11.2115 4.54941 12.4521 5.56816 13.4709C6.58691 14.4896 7.82754 14.999 9.29004 14.999Z" fill="#A55199"/>
</g>
</svg>
