<svg width="19" height="24" viewBox="0 0 19 24" fill="none" xmlns="http://www.w3.org/2000/svg">
<path d="M13.5193 4.02026C13.5193 2.95343 13.096 1.93142 12.3419 1.17741C11.5887 0.424255 10.5657 0 9.49975 0C8.43376 0 7.41091 0.424255 6.65763 1.17741C5.90353 1.93152 5.48022 2.95353 5.48022 4.02026C5.48022 5.08613 5.90353 6.10815 6.65763 6.86237C7.41079 7.61648 8.43376 8.03978 9.49975 8.03978C10.5656 8.03883 11.5867 7.61458 12.3409 6.86142C13.094 6.10732 13.5183 5.08528 13.5193 4.02026ZM6.70086 4.02026C6.70086 2.88766 7.38253 1.8666 8.42836 1.43368C9.47517 0.999902 10.6793 1.24014 11.4792 2.04003C12.28 2.84085 12.5193 4.04496 12.0865 5.09082C11.6527 6.13763 10.6326 6.81927 9.49987 6.81927C7.95446 6.81736 6.70281 5.56574 6.70086 4.02026Z" fill="#434343"/>
<path d="M2.46502 9.7292C0.967282 10.6378 0.0482376 12.2575 0.0339355 14.0098C0.0339355 20.2744 8.06898 23.9993 9.49993 23.9993C10.93 23.9993 18.9659 20.2725 18.9659 14.0071V14.0062C18.9621 12.62 18.3787 11.2976 17.3557 10.3613C16.3127 9.39464 14.9417 8.8617 13.5192 8.87122C12.0091 8.86169 10.56 9.46327 9.49975 10.5387C8.58928 9.63201 7.39947 9.05903 6.1229 8.9122C4.84632 8.76538 3.55745 9.05325 2.46502 9.7292ZM9.00323 11.8447C9.12431 11.9963 9.30641 12.084 9.49995 12.084C9.69349 12.084 9.87559 11.9963 9.99667 11.8447C10.8204 10.7283 12.1303 10.0762 13.5185 10.0934C14.6301 10.0839 15.7046 10.4986 16.5207 11.2536C17.2949 11.961 17.7372 12.9592 17.741 14.0079C17.7458 19.3419 10.5661 22.779 9.5 22.779C8.43393 22.779 1.25432 19.3441 1.25432 14.0089C1.27053 12.678 1.97316 11.4501 3.1134 10.7636C3.8227 10.3212 4.6426 10.0876 5.47872 10.0905C6.86683 10.0743 8.17854 10.7264 9.00323 11.8428V11.8447Z" fill="#434343"/>
</svg>
