<svg width="42" height="44" viewBox="0 0 42 44" fill="none" xmlns="http://www.w3.org/2000/svg">
<rect x="0.5" y="0.5" width="41" height="41" rx="20.5" fill="white"/>
<rect x="0.5" y="0.5" width="41" height="41" rx="20.5" stroke="#DFDFDF"/>
<g filter="url(#filter0_d_5811_7600)">
<path d="M8.23571 20.8396C8.23508 23.0801 8.82508 25.2678 9.94696 27.1961L8.12842 33.7844L14.9234 32.0165C16.8028 33.0317 18.9086 33.5637 21.0484 33.5638H21.054C28.1181 33.5638 33.8684 27.8601 33.8714 20.8496C33.8728 17.4525 32.5407 14.2581 30.1205 11.8548C27.7007 9.45166 24.4825 8.12753 21.0535 8.12598C13.9886 8.12598 8.23873 13.8293 8.23581 20.8396" fill="url(#paint0_linear_5811_7600)"/>
</g>
<path d="M7.77747 20.8366C7.77674 23.1577 8.38789 25.4237 9.54977 27.421L7.66602 34.2455L14.7047 32.4143C16.644 33.4635 18.8276 34.0167 21.0495 34.0175H21.0552C28.3727 34.0175 34.3296 28.1086 34.3327 20.8471C34.3339 17.328 32.9539 14.0187 30.4473 11.5293C27.9403 9.04022 24.607 7.66844 21.0552 7.66699C13.7364 7.66699 7.78039 13.575 7.77747 20.8366ZM11.9692 27.077L11.7064 26.6631C10.6016 24.92 10.0185 22.9058 10.0193 20.8374C10.0216 14.8018 14.9721 9.89128 21.0594 9.89128C24.0073 9.89252 26.7777 11.0328 28.8614 13.1016C30.9451 15.1707 32.0916 17.9211 32.0909 20.8463C32.0882 26.882 27.1377 31.7931 21.0552 31.7931H21.0508C19.0703 31.7921 17.1279 31.2643 15.4339 30.267L15.0308 30.0298L10.8539 31.1164L11.9692 27.077Z" fill="url(#paint1_linear_5811_7600)"/>
<path d="M17.7362 15.3304C17.4877 14.7822 17.2261 14.7712 16.9898 14.7616C16.7962 14.7533 16.575 14.7539 16.3539 14.7539C16.1327 14.7539 15.7732 14.8365 15.4694 15.1657C15.1652 15.4952 14.3081 16.2915 14.3081 17.911C14.3081 19.5306 15.497 21.0958 15.6627 21.3157C15.8286 21.5351 17.9578 24.965 21.3299 26.2845C24.1324 27.381 24.7027 27.1629 25.3109 27.1079C25.9193 27.0531 27.2738 26.3119 27.5502 25.5432C27.8268 24.7746 27.8268 24.1158 27.7438 23.9781C27.6609 23.8409 27.4397 23.7586 27.1079 23.594C26.7761 23.4295 25.145 22.633 24.8409 22.5231C24.5368 22.4133 24.3156 22.3586 24.0944 22.6882C23.8731 23.0173 23.2378 23.7586 23.0441 23.9781C22.8507 24.1982 22.6571 24.2255 22.3254 24.0609C21.9934 23.8957 20.925 23.5485 19.6574 22.4272C18.6711 21.5546 18.0053 20.4771 17.8118 20.1475C17.6182 19.8184 17.791 19.64 17.9574 19.476C18.1064 19.3285 18.2893 19.0916 18.4553 18.8994C18.6207 18.7072 18.6759 18.57 18.7865 18.3505C18.8973 18.1308 18.8419 17.9385 18.759 17.7739C18.6759 17.6092 18.0312 15.9812 17.7362 15.3304Z" fill="white"/>
<defs>
<filter id="filter0_d_5811_7600" x="0.128418" y="2.12598" width="41.7432" height="41.6582" filterUnits="userSpaceOnUse" color-interpolation-filters="sRGB">
<feFlood flood-opacity="0" result="BackgroundImageFix"/>
<feColorMatrix in="SourceAlpha" type="matrix" values="0 0 0 0 0 0 0 0 0 0 0 0 0 0 0 0 0 0 127 0" result="hardAlpha"/>
<feOffset dy="2"/>
<feGaussianBlur stdDeviation="4"/>
<feComposite in2="hardAlpha" operator="out"/>
<feColorMatrix type="matrix" values="0 0 0 0 0 0 0 0 0 0 0 0 0 0 0 0 0 0 0.08 0"/>
<feBlend mode="normal" in2="BackgroundImageFix" result="effect1_dropShadow_5811_7600"/>
<feBlend mode="normal" in="SourceGraphic" in2="effect1_dropShadow_5811_7600" result="shape"/>
</filter>
<linearGradient id="paint0_linear_5811_7600" x1="1295.28" y1="2573.97" x2="1295.28" y2="8.12598" gradientUnits="userSpaceOnUse">
<stop stop-color="#1FAF38"/>
<stop offset="1" stop-color="#60D669"/>
</linearGradient>
<linearGradient id="paint1_linear_5811_7600" x1="1341" y1="2665.52" x2="1341" y2="7.66699" gradientUnits="userSpaceOnUse">
<stop stop-color="#F9F9F9"/>
<stop offset="1" stop-color="white"/>
</linearGradient>
</defs>
</svg>
