<svg width="38" height="47" viewBox="0 0 38 47" fill="none" xmlns="http://www.w3.org/2000/svg">
<path d="M13.4486 26.2545L15.4788 19.9607L10.1423 15.8753H16.755L18.8432 9.69199L20.9314 15.8753H27.5441L22.1495 19.9607L24.1797 26.2545L18.8432 22.3347L13.4486 26.2545ZM4.92173 46.792V29.7326C3.45225 28.1868 2.31146 26.4201 1.49938 24.4326C0.687292 22.4451 0.28125 20.3288 0.28125 18.0837C0.28125 13.1517 2.07944 8.97428 5.67581 5.55137C9.27219 2.12845 13.6613 0.416992 18.8432 0.416992C24.0251 0.416992 28.4142 2.12845 32.0106 5.55137C35.6069 8.97428 37.4051 13.1517 37.4051 18.0837C37.4051 20.3288 36.9991 22.4451 36.187 24.4326C35.3749 26.4201 34.2341 28.1868 32.7646 29.7326V46.792L18.8432 42.3753L4.92173 46.792ZM18.8432 31.3337C22.7103 31.3337 25.9973 30.0455 28.7042 27.4691C31.4112 24.8927 32.7646 21.7642 32.7646 18.0837C32.7646 14.4031 31.4112 11.2746 28.7042 8.69824C25.9973 6.12185 22.7103 4.83366 18.8432 4.83366C14.9761 4.83366 11.6891 6.12185 8.98216 8.69824C6.27521 11.2746 4.92173 14.4031 4.92173 18.0837C4.92173 21.7642 6.27521 24.8927 8.98216 27.4691C11.6891 30.0455 14.9761 31.3337 18.8432 31.3337ZM9.56222 40.2222L18.8432 37.9587L28.1242 40.2222V33.3764C26.7707 34.1125 25.3109 34.6922 23.7447 35.1154C22.1785 35.5387 20.5447 35.7503 18.8432 35.7503C17.1417 35.7503 15.5078 35.5387 13.9417 35.1154C12.3755 34.6922 10.9157 34.1125 9.56222 33.3764V40.2222Z" fill="#A55199"/>
</svg>
